Ubuntu-ExtraBold.ufo
<glyph name="exclam" format="2">
  <advance width="286"/>
  <unicode hex="0021"/>
  <outline>
    <contour>
      <point x="87" y="221" type="curve"/>
      <point x="201" y="221" type="line"/>
      <point x="214" y="317"/>
      <point x="223" y="406"/>
      <point x="223" y="514" type="curve" smooth="yes"/>
      <point x="223" y="693" type="line"/>
      <point x="64" y="693" type="line"/>
      <point x="64" y="514" type="line" smooth="yes"/>
      <point x="64" y="406"/>
      <point x="74" y="317"/>
    </contour>
    <contour>
      <point x="143" y="-13" type="curve" smooth="yes"/>
      <point x="191" y="-13"/>
      <point x="236" y="20"/>
      <point x="236" y="79" type="curve" smooth="yes"/>
      <point x="236" y="138"/>
      <point x="191" y="171"/>
      <point x="143" y="171" type="curve" smooth="yes"/>
      <point x="95" y="171"/>
      <point x="50" y="138"/>
      <point x="50" y="79" type="curve" smooth="yes"/>
      <point x="50" y="20"/>
      <point x="95" y="-13"/>
    </contour>
  </outline>
</glyph>
<glyph name="numbersign" format="2">
  <advance width="699"/>
  <unicode hex="0023"/>
  <outline>
    <contour>
      <point x="95" y="0" type="line"/>
      <point x="225" y="0" type="line"/>
      <point x="257" y="170" type="line"/>
      <point x="373" y="170" type="line"/>
      <point x="341" y="0" type="line"/>
      <point x="471" y="0" type="line"/>
      <point x="503" y="170" type="line"/>
      <point x="644" y="170" type="line"/>
      <point x="644" y="285" type="line"/>
      <point x="525" y="285" type="line"/>
      <point x="549" y="408" type="line"/>
      <point x="644" y="408" type="line"/>
      <point x="644" y="523" type="line"/>
      <point x="571" y="523" type="line"/>
      <point x="604" y="693" type="line"/>
      <point x="474" y="693" type="line"/>
      <point x="441" y="523" type="line"/>
      <point x="325" y="523" type="line"/>
      <point x="358" y="693" type="line"/>
      <point x="228" y="693" type="line"/>
      <point x="195" y="523" type="line"/>
      <point x="55" y="523" type="line"/>
      <point x="55" y="408" type="line"/>
      <point x="173" y="408" type="line"/>
      <point x="149" y="285" type="line"/>
      <point x="55" y="285" type="line"/>
      <point x="55" y="170" type="line"/>
      <point x="127" y="170" type="line"/>
    </contour>
    <contour>
      <point x="279" y="285" type="line"/>
      <point x="303" y="408" type="line"/>
      <point x="419" y="408" type="line"/>
      <point x="395" y="285" type="line"/>
    </contour>
  </outline>
</glyph>
<glyph name="dollar" format="2">
  <advance width="564"/>
  <unicode hex="0024"/>
  <outline>
    <contour>
      <point x="218" y="-109" type="line"/>
      <point x="344" y="-109" type="line"/>
      <point x="344" y="13" type="line"/>
      <point x="475" y="34"/>
      <point x="520" y="115"/>
      <point x="520" y="196" type="curve" smooth="yes"/>
      <point x="520" y="314"/>
      <point x="432" y="367"/>
      <point x="315" y="409" type="curve" smooth="yes"/>
      <point x="239" y="436"/>
      <point x="204" y="451"/>
      <point x="204" y="493" type="curve" smooth="yes"/>
      <point x="204" y="528"/>
      <point x="230" y="551"/>
      <point x="294" y="551" type="curve" smooth="yes"/>
      <point x="358" y="551"/>
      <point x="418" y="536"/>
      <point x="462" y="517" type="curve"/>
      <point x="493" y="637" type="line"/>
      <point x="464" y="650"/>
      <point x="413" y="665"/>
      <point x="344" y="672" type="curve"/>
      <point x="344" y="776" type="line"/>
      <point x="218" y="776" type="line"/>
      <point x="218" y="668" type="line"/>
      <point x="100" y="646"/>
      <point x="51" y="570"/>
      <point x="51" y="481" type="curve" smooth="yes"/>
      <point x="51" y="366"/>
      <point x="142" y="325"/>
      <point x="229" y="294" type="curve" smooth="yes"/>
      <point x="320" y="261"/>
      <point x="367" y="243"/>
      <point x="367" y="193" type="curve" smooth="yes"/>
      <point x="367" y="153"/>
      <point x="342" y="130"/>
      <point x="261" y="130" type="curve" smooth="yes"/>
      <point x="189" y="130"/>
      <point x="122" y="152"/>
      <point x="75" y="175" type="curve"/>
      <point x="32" y="60" type="line"/>
      <point x="61" y="45"/>
      <point x="121" y="18"/>
      <point x="218" y="10" type="curve"/>
    </contour>
  </outline>
</glyph>
<glyph name="parenright" format="2">
  <advance width="356"/>
  <unicode hex="0029"/>
  <outline>
    <contour>
      <point x="109" y="-185" type="line"/>
      <point x="221" y="-54"/>
      <point x="286" y="115"/>
      <point x="286" y="299" type="curve" smooth="yes"/>
      <point x="286" y="483"/>
      <point x="221" y="652"/>
      <point x="109" y="783" type="curve"/>
      <point x="5" y="716" type="line"/>
      <point x="84" y="603"/>
      <point x="139" y="455"/>
      <point x="139" y="299" type="curve" smooth="yes"/>
      <point x="139" y="143"/>
      <point x="84" y="-5"/>
      <point x="5" y="-118" type="curve"/>
    </contour>
  </outline>
</glyph>
<glyph name="asterisk" format="2">
  <advance width="502"/>
  <unicode hex="002A"/>
  <outline>
    <contour>
      <point x="185" y="292" type="line"/>
      <point x="223" y="341"/>
      <point x="234" y="377"/>
      <point x="251" y="437" type="curve"/>
      <point x="268" y="378"/>
      <point x="279" y="340"/>
      <point x="317" y="292" type="curve"/>
      <point x="423" y="367" type="line"/>
      <point x="381" y="423"/>
      <point x="361" y="436"/>
      <point x="303" y="475" type="curve"/>
      <point x="375" y="475"/>
      <point x="390" y="470"/>
      <point x="462" y="492" type="curve"/>
      <point x="422" y="616" type="line"/>
      <point x="365" y="598"/>
      <point x="329" y="574"/>
      <point x="283" y="536" type="curve"/>
      <point x="307" y="602"/>
      <point x="316" y="623"/>
      <point x="316" y="693" type="curve"/>
      <point x="186" y="693" type="line"/>
      <point x="186" y="624"/>
      <point x="194" y="604"/>
      <point x="219" y="536" type="curve"/>
      <point x="173" y="574"/>
      <point x="137" y="598"/>
      <point x="80" y="616" type="curve"/>
      <point x="40" y="492" type="line"/>
      <point x="112" y="470"/>
      <point x="127" y="475"/>
      <point x="199" y="475" type="curve"/>
      <point x="143" y="437"/>
      <point x="121" y="424"/>
      <point x="79" y="367" type="curve"/>
    </contour>
  </outline>
</glyph>
<glyph name="zero" format="2">
  <advance width="568"/>
  <unicode hex="0030"/>
  <outline>
    <contour>
      <point x="284" y="-14" type="curve" smooth="yes"/>
      <point x="440" y="-14"/>
      <point x="534" y="115"/>
      <point x="534" y="348" type="curve" smooth="yes"/>
      <point x="534" y="580"/>
      <point x="440" y="709"/>
      <point x="284" y="709" type="curve" smooth="yes"/>
      <point x="132" y="709"/>
      <point x="34" y="579"/>
      <point x="34" y="348" type="curve" smooth="yes"/>
      <point x="34" y="115"/>
      <point x="128" y="-14"/>
    </contour>
    <contour>
      <point x="284" y="114" type="curve" smooth="yes"/>
      <point x="210" y="114"/>
      <point x="186" y="209"/>
      <point x="186" y="348" type="curve" smooth="yes"/>
      <point x="186" y="486"/>
      <point x="210" y="581"/>
      <point x="284" y="581" type="curve" smooth="yes"/>
      <point x="359" y="581"/>
      <point x="382" y="486"/>
      <point x="382" y="348" type="curve" smooth="yes"/>
      <point x="382" y="209"/>
      <point x="359" y="114"/>
    </contour>
  </outline>
</glyph>
<glyph name="one" format="2">
  <advance width="564"/>
  <unicode hex="0031"/>
  <outline>
    <contour>
      <point x="252" y="0" type="line"/>
      <point x="401" y="0" type="line"/>
      <point x="401" y="693" type="line"/>
      <point x="297" y="693" type="line"/>
      <point x="239" y="632"/>
      <point x="146" y="581"/>
      <point x="68" y="549" type="curve"/>
      <point x="113" y="434" type="line"/>
      <point x="160" y="450"/>
      <point x="212" y="472"/>
      <point x="252" y="499" type="curve"/>
    </contour>
  </outline>
</glyph>
<glyph name="three" format="2">
  <advance width="564"/>
  <unicode hex="0033"/>
  <outline>
    <contour>
      <point x="226" y="-15" type="curve" smooth="yes"/>
      <point x="419" y="-15"/>
      <point x="503" y="78"/>
      <point x="503" y="206" type="curve" smooth="yes"/>
      <point x="503" y="287"/>
      <point x="462" y="347"/>
      <point x="390" y="376" type="curve"/>
      <point x="442" y="403"/>
      <point x="475" y="459"/>
      <point x="475" y="514" type="curve" smooth="yes"/>
      <point x="475" y="626"/>
      <point x="402" y="709"/>
      <point x="239" y="709" type="curve" smooth="yes"/>
      <point x="152" y="709"/>
      <point x="79" y="674"/>
      <point x="36" y="647" type="curve"/>
      <point x="89" y="538" type="line"/>
      <point x="129" y="563"/>
      <point x="178" y="583"/>
      <point x="235" y="583" type="curve" smooth="yes"/>
      <point x="280" y="583"/>
      <point x="326" y="560"/>
      <point x="326" y="509" type="curve" smooth="yes"/>
      <point x="326" y="442"/>
      <point x="271" y="424"/>
      <point x="212" y="424" type="curve" smooth="yes"/>
      <point x="146" y="424" type="line"/>
      <point x="146" y="304" type="line"/>
      <point x="204" y="304" type="line" smooth="yes"/>
      <point x="288" y="304"/>
      <point x="353" y="281"/>
      <point x="353" y="208" type="curve" smooth="yes"/>
      <point x="353" y="149"/>
      <point x="312" y="112"/>
      <point x="220" y="112" type="curve" smooth="yes"/>
      <point x="140" y="112"/>
      <point x="88" y="133"/>
      <point x="53" y="148" type="curve"/>
      <point x="24" y="24" type="line"/>
      <point x="59" y="8"/>
      <point x="154" y="-15"/>
    </contour>
  </outline>
</glyph>
<glyph name="four" format="2">
  <advance width="564"/>
  <unicode hex="0034"/>
  <outline>
    <contour>
      <point x="317" y="0" type="line"/>
      <point x="463" y="0" type="line"/>
      <point x="463" y="155" type="line"/>
      <point x="537" y="155" type="line"/>
      <point x="537" y="277" type="line"/>
      <point x="463" y="277" type="line"/>
      <point x="463" y="693" type="line"/>
      <point x="322" y="693" type="line"/>
      <point x="202" y="573"/>
      <point x="76" y="381"/>
      <point x="18" y="264" type="curve"/>
      <point x="18" y="155" type="line"/>
      <point x="317" y="155" type="line"/>
    </contour>
    <contour>
      <point x="160" y="277" type="line"/>
      <point x="200" y="361"/>
      <point x="265" y="443"/>
      <point x="317" y="511" type="curve"/>
      <point x="317" y="277" type="line"/>
    </contour>
  </outline>
</glyph>
<glyph name="five" format="2">
  <advance width="564"/>
  <unicode hex="0035"/>
  <outline>
    <contour>
      <point x="233" y="-15" type="curve" smooth="yes"/>
      <point x="417" y="-15"/>
      <point x="507" y="81"/>
      <point x="507" y="209" type="curve" smooth="yes"/>
      <point x="507" y="348"/>
      <point x="417" y="427"/>
      <point x="222" y="440" type="curve"/>
      <point x="226" y="473"/>
      <point x="229" y="520"/>
      <point x="232" y="568" type="curve"/>
      <point x="482" y="568" type="line"/>
      <point x="482" y="693" type="line"/>
      <point x="107" y="693" type="line"/>
      <point x="102" y="581"/>
      <point x="93" y="448"/>
      <point x="78" y="324" type="curve"/>
      <point x="297" y="324"/>
      <point x="358" y="281"/>
      <point x="358" y="204" type="curve" smooth="yes"/>
      <point x="358" y="155"/>
      <point x="319" y="112"/>
      <point x="227" y="112" type="curve" smooth="yes"/>
      <point x="151" y="112"/>
      <point x="96" y="129"/>
      <point x="63" y="144" type="curve"/>
      <point x="36" y="21" type="line"/>
      <point x="67" y="6"/>
      <point x="162" y="-15"/>
    </contour>
  </outline>
</glyph>
<glyph name="less" format="2">
  <advance width="568"/>
  <unicode hex="003C"/>
  <outline>
    <contour>
      <point x="480" y="56" type="line"/>
      <point x="519" y="177" type="line"/>
      <point x="205" y="299" type="line"/>
      <point x="519" y="421" type="line"/>
      <point x="480" y="542" type="line"/>
      <point x="50" y="361" type="line"/>
      <point x="50" y="237" type="line"/>
    </contour>
  </outline>
</glyph>
<glyph name="A" format="2">
  <advance width="721"/>
  <unicode hex="0041"/>
  <anchor x="361" y="0" name="bottom"/>
  <anchor x="649" y="10" name="ogonek"/>
  <anchor x="361" y="685" name="top"/>
  <outline>
    <contour>
      <point x="10" y="0" type="curve"/>
      <point x="172" y="0" type="line"/>
      <point x="187" y="48"/>
      <point x="206" y="99"/>
      <point x="223" y="150" type="curve"/>
      <point x="493" y="150" type="line"/>
      <point x="510" y="99"/>
      <point x="529" y="48"/>
      <point x="544" y="0" type="curve"/>
      <point x="711" y="0" type="line"/>
      <point x="607" y="298"/>
      <point x="526" y="500"/>
      <point x="435" y="693" type="curve"/>
      <point x="286" y="693" type="line"/>
      <point x="193" y="501"/>
      <point x="114" y="298"/>
    </contour>
    <contour>
      <point x="259" y="274" type="line"/>
      <point x="302" y="394"/>
      <point x="344" y="496"/>
      <point x="357" y="536" type="curve"/>
      <point x="373" y="496"/>
      <point x="413" y="394"/>
      <point x="456" y="274" type="curve"/>
    </contour>
  </outline>
</glyph>
<glyph name="C" format="2">
  <advance width="648"/>
  <unicode hex="0043"/>
  <anchor x="349" y="0" name="bottom"/>
  <anchor x="391" y="685" name="top"/>
  <outline>
    <contour>
      <point x="396" y="-14" type="curve" smooth="yes"/>
      <point x="501" y="-14"/>
      <point x="584" y="11"/>
      <point x="628" y="38" type="curve"/>
      <point x="585" y="163" type="line"/>
      <point x="551" y="147"/>
      <point x="502" y="124"/>
      <point x="410" y="124" type="curve" smooth="yes"/>
      <point x="265" y="124"/>
      <point x="212" y="222"/>
      <point x="212" y="350" type="curve" smooth="yes"/>
      <point x="212" y="510"/>
      <point x="305" y="571"/>
      <point x="402" y="571" type="curve" smooth="yes"/>
      <point x="474" y="571"/>
      <point x="530" y="553"/>
      <point x="573" y="530" type="curve"/>
      <point x="618" y="656" type="line"/>
      <point x="596" y="669"/>
      <point x="522" y="709"/>
      <point x="404" y="709" type="curve" smooth="yes"/>
      <point x="201" y="709"/>
      <point x="50" y="577"/>
      <point x="50" y="347" type="curve" smooth="yes"/>
      <point x="50" y="116"/>
      <point x="171" y="-14"/>
    </contour>
  </outline>
</glyph>
<glyph name="D" format="2">
  <advance width="737"/>
  <unicode hex="0044"/>
  <anchor x="369" y="0" name="bottom"/>
  <anchor x="369" y="347" name="center"/>
  <anchor x="354" y="685" name="top"/>
  <outline>
    <contour>
      <point x="288" y="-9" type="curve" smooth="yes"/>
      <point x="533" y="-9"/>
      <point x="687" y="107"/>
      <point x="687" y="347" type="curve" smooth="yes"/>
      <point x="687" y="598"/>
      <point x="530" y="701"/>
      <point x="293" y="701" type="curve" smooth="yes"/>
      <point x="237" y="701"/>
      <point x="152" y="697"/>
      <point x="80" y="684" type="curve"/>
      <point x="80" y="9" type="line"/>
      <point x="152" y="-6"/>
      <point x="232" y="-9"/>
    </contour>
    <contour>
      <point x="296" y="125" type="curve" smooth="yes"/>
      <point x="269" y="125"/>
      <point x="251" y="126"/>
      <point x="236" y="127" type="curve"/>
      <point x="236" y="565" type="line"/>
      <point x="256" y="568"/>
      <point x="280" y="568"/>
      <point x="301" y="568" type="curve" smooth="yes"/>
      <point x="457" y="568"/>
      <point x="526" y="492"/>
      <point x="526" y="347" type="curve" smooth="yes"/>
      <point x="526" y="208"/>
      <point x="452" y="125"/>
    </contour>
  </outline>
</glyph>
<glyph name="E" format="2">
  <advance width="606"/>
  <unicode hex="0045"/>
  <anchor x="303" y="0" name="bottom"/>
  <anchor x="545" y="10" name="ogonek"/>
  <anchor x="303" y="693" name="top"/>
  <anchor x="20" y="693" name="topleft"/>
  <outline>
    <contour>
      <point x="80" y="0" type="line"/>
      <point x="571" y="0" type="line"/>
      <point x="571" y="131" type="line"/>
      <point x="236" y="131" type="line"/>
      <point x="236" y="298" type="line"/>
      <point x="513" y="298" type="line"/>
      <point x="513" y="426" type="line"/>
      <point x="236" y="426" type="line"/>
      <point x="236" y="562" type="line"/>
      <point x="548" y="562" type="line"/>
      <point x="548" y="693" type="line"/>
      <point x="80" y="693" type="line"/>
    </contour>
  </outline>
</glyph>
<glyph name="F" format="2">
  <advance width="574"/>
  <unicode hex="0046"/>
  <anchor x="287" y="0" name="bottom"/>
  <anchor x="287" y="693" name="top"/>
  <outline>
    <contour>
      <point x="80" y="0" type="line"/>
      <point x="236" y="0" type="line"/>
      <point x="236" y="286" type="line"/>
      <point x="510" y="286" type="line"/>
      <point x="510" y="417" type="line"/>
      <point x="236" y="417" type="line"/>
      <point x="236" y="562" type="line"/>
      <point x="544" y="562" type="line"/>
      <point x="544" y="693" type="line"/>
      <point x="80" y="693" type="line"/>
    </contour>
  </outline>
</glyph>
<glyph name="G" format="2">
  <advance width="702"/>
  <unicode hex="0047"/>
  <anchor x="368" y="0" name="bottom"/>
  <anchor x="388" y="685" name="top"/>
  <outline>
    <contour>
      <point x="394" y="-13" type="curve" smooth="yes"/>
      <point x="515" y="-13"/>
      <point x="600" y="8"/>
      <point x="637" y="23" type="curve"/>
      <point x="637" y="366" type="line"/>
      <point x="481" y="366" type="line"/>
      <point x="481" y="125" type="line"/>
      <point x="462" y="121"/>
      <point x="439" y="120"/>
      <point x="404" y="120" type="curve" smooth="yes"/>
      <point x="276" y="120"/>
      <point x="212" y="212"/>
      <point x="212" y="347" type="curve" smooth="yes"/>
      <point x="212" y="487"/>
      <point x="273" y="573"/>
      <point x="418" y="573" type="curve" smooth="yes"/>
      <point x="483" y="573"/>
      <point x="539" y="554"/>
      <point x="582" y="531" type="curve"/>
      <point x="627" y="656" type="line"/>
      <point x="606" y="669"/>
      <point x="529" y="709"/>
      <point x="397" y="709" type="curve" smooth="yes"/>
      <point x="204" y="709"/>
      <point x="50" y="578"/>
      <point x="50" y="347" type="curve" smooth="yes"/>
      <point x="50" y="118"/>
      <point x="186" y="-13"/>
    </contour>
  </outline>
</glyph>
<glyph name="I" format="2">
  <advance width="316"/>
  <unicode hex="0049"/>
  <anchor x="158" y="0" name="bottom"/>
  <anchor x="284" y="10" name="ogonek"/>
  <anchor x="158" y="685" name="top"/>
  <anchor x="20" y="693" name="topleft"/>
  <outline>
    <contour>
      <point x="80" y="0" type="line"/>
      <point x="236" y="0" type="line"/>
      <point x="236" y="693" type="line"/>
      <point x="80" y="693" type="line"/>
    </contour>
  </outline>
</glyph>
<glyph name="L" format="2">
  <advance width="563"/>
  <unicode hex="004C"/>
  <anchor x="307" y="0" name="bottom"/>
  <anchor x="282" y="347" name="center"/>
  <anchor x="182" y="685" name="top"/>
  <anchor x="236" y="693" name="topright"/>
  <outline>
    <contour>
      <point x="80" y="0" type="line"/>
      <point x="543" y="0" type="line"/>
      <point x="543" y="134" type="line"/>
      <point x="236" y="134" type="line"/>
      <point x="236" y="693" type="line"/>
      <point x="80" y="693" type="line"/>
    </contour>
  </outline>
</glyph>
<glyph name="M" format="2">
  <advance width="897"/>
  <unicode hex="004D"/>
  <anchor x="449" y="0" name="bottom"/>
  <anchor x="449" y="693" name="top"/>
  <outline>
    <contour>
      <point x="60" y="0" type="curve"/>
      <point x="212" y="0" type="line"/>
      <point x="216" y="135"/>
      <point x="222" y="299"/>
      <point x="235" y="460" type="curve"/>
      <point x="283" y="348"/>
      <point x="357" y="176"/>
      <point x="394" y="88" type="curve"/>
      <point x="503" y="88" type="line"/>
      <point x="540" y="176"/>
      <point x="614" y="348"/>
      <point x="662" y="460" type="curve"/>
      <point x="675" y="299"/>
      <point x="681" y="135"/>
      <point x="685" y="0" type="curve"/>
      <point x="837" y="0" type="line"/>
      <point x="826" y="219"/>
      <point x="808" y="511"/>
      <point x="782" y="693" type="curve"/>
      <point x="640" y="693" type="line"/>
      <point x="593" y="606"/>
      <point x="511" y="419"/>
      <point x="452" y="280" type="curve"/>
      <point x="393" y="419"/>
      <point x="311" y="606"/>
      <point x="264" y="693" type="curve"/>
      <point x="115" y="693" type="line"/>
      <point x="89" y="511"/>
      <point x="71" y="219"/>
    </contour>
  </outline>
</glyph>
<glyph name="P" format="2">
  <advance width="644"/>
  <unicode hex="0050"/>
  <anchor x="322" y="0" name="bottom"/>
  <anchor x="322" y="693" name="top"/>
  <outline>
    <contour>
      <point x="80" y="0" type="line"/>
      <point x="236" y="0" type="line"/>
      <point x="236" y="232" type="line"/>
      <point x="285" y="232" type="line" smooth="yes"/>
      <point x="493" y="232"/>
      <point x="609" y="301"/>
      <point x="609" y="468" type="curve" smooth="yes"/>
      <point x="609" y="633"/>
      <point x="495" y="701"/>
      <point x="288" y="701" type="curve" smooth="yes"/>
      <point x="231" y="701"/>
      <point x="148" y="696"/>
      <point x="80" y="683" type="curve"/>
    </contour>
    <contour>
      <point x="236" y="365" type="line"/>
      <point x="236" y="565" type="line"/>
      <point x="252" y="566"/>
      <point x="275" y="568"/>
      <point x="298" y="568" type="curve" smooth="yes"/>
      <point x="390" y="568"/>
      <point x="448" y="546"/>
      <point x="448" y="469" type="curve" smooth="yes"/>
      <point x="448" y="389"/>
      <point x="393" y="365"/>
      <point x="285" y="365" type="curve" smooth="yes"/>
    </contour>
  </outline>
</glyph>
<glyph name="S" format="2">
  <advance width="582"/>
  <unicode hex="0053"/>
  <anchor x="266" y="0" name="bottom"/>
  <anchor x="303" y="693" name="top"/>
  <outline>
    <contour>
      <point x="269" y="-14" type="curve" smooth="yes"/>
      <point x="452" y="-14"/>
      <point x="542" y="61"/>
      <point x="542" y="190" type="curve" smooth="yes"/>
      <point x="542" y="324"/>
      <point x="473" y="368"/>
      <point x="329" y="421" type="curve"/>
      <point x="261" y="445"/>
      <point x="209" y="464"/>
      <point x="209" y="513" type="curve" smooth="yes"/>
      <point x="209" y="556"/>
      <point x="239" y="576"/>
      <point x="314" y="576" type="curve" smooth="yes"/>
      <point x="381" y="576"/>
      <point x="425" y="558"/>
      <point x="464" y="538" type="curve"/>
      <point x="509" y="661" type="line"/>
      <point x="465" y="685"/>
      <point x="397" y="709"/>
      <point x="304" y="709" type="curve" smooth="yes"/>
      <point x="148" y="709"/>
      <point x="49" y="629"/>
      <point x="49" y="501" type="curve" smooth="yes"/>
      <point x="49" y="373"/>
      <point x="148" y="328"/>
      <point x="239" y="296" type="curve"/>
      <point x="343" y="261"/>
      <point x="381" y="236"/>
      <point x="381" y="191" type="curve" smooth="yes"/>
      <point x="381" y="149"/>
      <point x="357" y="119"/>
      <point x="269" y="119" type="curve" smooth="yes"/>
      <point x="181" y="119"/>
      <point x="122" y="140"/>
      <point x="81" y="163" type="curve"/>
      <point x="37" y="39" type="line"/>
      <point x="73" y="18"/>
      <point x="146" y="-14"/>
    </contour>
  </outline>
</glyph>
<glyph name="T" format="2">
  <advance width="614"/>
  <unicode hex="0054"/>
  <anchor x="277" y="0" name="bottom"/>
  <anchor x="307" y="347" name="center"/>
  <anchor x="307" y="685" name="top"/>
  <outline>
    <contour>
      <point x="229" y="0" type="line"/>
      <point x="385" y="0" type="line"/>
      <point x="385" y="560" type="line"/>
      <point x="594" y="560" type="line"/>
      <point x="594" y="693" type="line"/>
      <point x="20" y="693" type="line"/>
      <point x="20" y="560" type="line"/>
      <point x="229" y="560" type="line"/>
    </contour>
  </outline>
</glyph>
<glyph name="U" format="2">
  <advance width="707"/>
  <unicode hex="0055"/>
  <anchor x="354" y="0" name="bottom"/>
  <anchor x="636" y="10" name="ogonek"/>
  <anchor x="354" y="693" name="top"/>
  <anchor x="687" y="693" name="topright"/>
  <outline>
    <contour>
      <point x="351" y="-14" type="curve" smooth="yes"/>
      <point x="548" y="-14"/>
      <point x="637" y="98"/>
      <point x="637" y="262" type="curve" smooth="yes"/>
      <point x="637" y="693" type="line"/>
      <point x="481" y="693" type="line"/>
      <point x="481" y="275" type="line" smooth="yes"/>
      <point x="481" y="163"/>
      <point x="429" y="121"/>
      <point x="353" y="121" type="curve" smooth="yes"/>
      <point x="278" y="121"/>
      <point x="226" y="162"/>
      <point x="226" y="275" type="curve" smooth="yes"/>
      <point x="226" y="693" type="line"/>
      <point x="70" y="693" type="line"/>
      <point x="70" y="262" type="line" smooth="yes"/>
      <point x="70" y="100"/>
      <point x="156" y="-14"/>
    </contour>
  </outline>
</glyph>
<glyph name="W" format="2">
  <advance width="948"/>
  <unicode hex="0057"/>
  <anchor x="474" y="0" name="bottom"/>
  <anchor x="474" y="685" name="top"/>
  <outline>
    <contour>
      <point x="199" y="0" type="curve"/>
      <point x="342" y="0" type="line"/>
      <point x="389" y="128"/>
      <point x="430" y="272"/>
      <point x="473" y="413" type="curve"/>
      <point x="516" y="272"/>
      <point x="559" y="128"/>
      <point x="606" y="0" type="curve"/>
      <point x="749" y="0" type="line"/>
      <point x="820" y="215"/>
      <point x="881" y="461"/>
      <point x="928" y="693" type="curve"/>
      <point x="766" y="693" type="line"/>
      <point x="740" y="537"/>
      <point x="704" y="344"/>
      <point x="669" y="208" type="curve"/>
      <point x="626" y="334"/>
      <point x="577" y="510"/>
      <point x="545" y="619" type="curve"/>
      <point x="412" y="619" type="line"/>
      <point x="383" y="512"/>
      <point x="338" y="338"/>
      <point x="290" y="208" type="curve"/>
      <point x="253" y="343"/>
      <point x="215" y="537"/>
      <point x="189" y="693" type="curve"/>
      <point x="20" y="693" type="line"/>
      <point x="67" y="461"/>
      <point x="128" y="215"/>
    </contour>
  </outline>
</glyph>
<glyph name="X" format="2">
  <advance width="675"/>
  <unicode hex="0058"/>
  <anchor x="338" y="0" name="bottom"/>
  <anchor x="338" y="693" name="top"/>
  <outline>
    <contour>
      <point x="10" y="0" type="curve"/>
      <point x="188" y="0" type="line"/>
      <point x="212" y="51"/>
      <point x="298" y="191"/>
      <point x="335" y="239" type="curve"/>
      <point x="395" y="156"/>
      <point x="439" y="77"/>
      <point x="478" y="0" type="curve"/>
      <point x="665" y="0" type="line"/>
      <point x="621" y="84"/>
      <point x="546" y="212"/>
      <point x="434" y="357" type="curve"/>
      <point x="654" y="693" type="line"/>
      <point x="476" y="693" type="line"/>
      <point x="344" y="477" type="line"/>
      <point x="209" y="693" type="line"/>
      <point x="20" y="693" type="line"/>
      <point x="243" y="359" type="line"/>
      <point x="147" y="226"/>
      <point x="69" y="108"/>
    </contour>
  </outline>
</glyph>
<glyph name="Y" format="2">
  <advance width="661"/>
  <unicode hex="0059"/>
  <anchor x="331" y="0" name="bottom"/>
  <anchor x="331" y="685" name="top"/>
  <anchor x="20" y="693" name="topleft"/>
  <outline>
    <contour>
      <point x="253" y="0" type="line"/>
      <point x="409" y="0" type="line"/>
      <point x="409" y="265" type="line"/>
      <point x="500" y="406"/>
      <point x="580" y="544"/>
      <point x="656" y="693" type="curve"/>
      <point x="484" y="693" type="line"/>
      <point x="441" y="597"/>
      <point x="390" y="503"/>
      <point x="334" y="408" type="curve"/>
      <point x="278" y="503"/>
      <point x="229" y="597"/>
      <point x="186" y="693" type="curve"/>
      <point x="5" y="693" type="line"/>
      <point x="81" y="544"/>
      <point x="162" y="404"/>
      <point x="253" y="263" type="curve"/>
    </contour>
  </outline>
</glyph>
<glyph name="bracketleft" format="2">
  <advance width="371"/>
  <unicode hex="005B"/>
  <outline>
    <contour>
      <point x="90" y="-185" type="line"/>
      <point x="361" y="-185" type="line"/>
      <point x="361" y="-66" type="line"/>
      <point x="232" y="-66" type="line"/>
      <point x="232" y="664" type="line"/>
      <point x="361" y="664" type="line"/>
      <point x="361" y="783" type="line"/>
      <point x="90" y="783" type="line"/>
    </contour>
  </outline>
</glyph>
<glyph name="c" format="2">
  <advance width="500"/>
  <unicode hex="0063"/>
  <anchor x="270" y="0" name="bottom"/>
  <anchor x="301" y="526" name="top"/>
  <outline>
    <contour>
      <point x="319" y="-14" type="curve" smooth="yes"/>
      <point x="382" y="-14"/>
      <point x="435" y="-2"/>
      <point x="470" y="13" type="curve"/>
      <point x="449" y="135" type="line"/>
      <point x="414" y="120"/>
      <point x="370" y="114"/>
      <point x="334" y="114" type="curve" smooth="yes"/>
      <point x="233" y="114"/>
      <point x="197" y="168"/>
      <point x="197" y="263" type="curve" smooth="yes"/>
      <point x="197" y="352"/>
      <point x="240" y="412"/>
      <point x="328" y="412" type="curve" smooth="yes"/>
      <point x="369" y="412"/>
      <point x="402" y="403"/>
      <point x="430" y="392" type="curve"/>
      <point x="461" y="511" type="line"/>
      <point x="417" y="530"/>
      <point x="372" y="540"/>
      <point x="316" y="540" type="curve" smooth="yes"/>
      <point x="146" y="540"/>
      <point x="45" y="415"/>
      <point x="45" y="263" type="curve" smooth="yes"/>
      <point x="45" y="107"/>
      <point x="126" y="-14"/>
    </contour>
  </outline>
</glyph>
<glyph name="h" format="2">
  <advance width="589"/>
  <unicode hex="0068"/>
  <anchor x="295" y="0" name="bottom"/>
  <anchor x="295" y="388" name="center"/>
  <anchor x="295" y="776" name="top"/>
  <outline>
    <contour>
      <point x="70" y="0" type="line"/>
      <point x="219" y="0" type="line"/>
      <point x="219" y="400" type="line"/>
      <point x="238" y="405"/>
      <point x="261" y="411"/>
      <point x="288" y="411" type="curve" smooth="yes"/>
      <point x="355" y="411"/>
      <point x="375" y="375"/>
      <point x="375" y="279" type="curve" smooth="yes"/>
      <point x="375" y="0" type="line"/>
      <point x="524" y="0" type="line"/>
      <point x="524" y="297" type="line" smooth="yes"/>
      <point x="524" y="440"/>
      <point x="474" y="538"/>
      <point x="303" y="538" type="curve" smooth="yes"/>
      <point x="274" y="538"/>
      <point x="239" y="531"/>
      <point x="219" y="524" type="curve"/>
      <point x="219" y="776" type="line"/>
      <point x="70" y="752" type="line"/>
    </contour>
  </outline>
</glyph>
<glyph name="i" format="2">
  <advance width="289"/>
  <unicode hex="0069"/>
  <anchor x="145" y="0" name="bottom"/>
  <outline>
    <contour>
      <point x="70" y="0" type="line"/>
      <point x="219" y="0" type="line"/>
      <point x="219" y="526" type="line"/>
      <point x="70" y="526" type="line"/>
    </contour>
    <contour>
      <point x="144" y="590" type="curve" smooth="yes"/>
      <point x="192" y="590"/>
      <point x="233" y="623"/>
      <point x="233" y="678" type="curve" smooth="yes"/>
      <point x="233" y="733"/>
      <point x="192" y="766"/>
      <point x="144" y="766" type="curve" smooth="yes"/>
      <point x="96" y="766"/>
      <point x="55" y="733"/>
      <point x="55" y="678" type="curve" smooth="yes"/>
      <point x="55" y="623"/>
      <point x="96" y="590"/>
    </contour>
  </outline>
</glyph>
<glyph name="l" format="2">
  <advance width="316"/>
  <unicode hex="006C"/>
  <anchor x="178" y="0" name="bottom"/>
  <anchor x="158" y="388" name="center"/>
  <anchor x="158" y="776" name="top"/>
  <anchor x="269" y="776" name="topright"/>
  <outline>
    <contour>
      <point x="280" y="-10" type="curve"/>
      <point x="301" y="113" type="line"/>
      <point x="230" y="118"/>
      <point x="219" y="150"/>
      <point x="219" y="203" type="curve" smooth="yes"/>
      <point x="219" y="776" type="line"/>
      <point x="70" y="752" type="line"/>
      <point x="70" y="173" type="line" smooth="yes"/>
      <point x="70" y="61"/>
      <point x="108" y="-7"/>
    </contour>
  </outline>
</glyph>
<glyph name="r" format="2">
  <advance width="422"/>
  <unicode hex="0072"/>
  <anchor x="211" y="0" name="bottom"/>
  <anchor x="211" y="526" name="top"/>
  <outline>
    <contour>
      <point x="70" y="0" type="line"/>
      <point x="219" y="0" type="line"/>
      <point x="219" y="402" type="line"/>
      <point x="232" y="406"/>
      <point x="263" y="410"/>
      <point x="282" y="410" type="curve" smooth="yes"/>
      <point x="323" y="410"/>
      <point x="360" y="401"/>
      <point x="387" y="394" type="curve"/>
      <point x="412" y="517" type="line"/>
      <point x="380" y="530"/>
      <point x="318" y="537"/>
      <point x="286" y="537" type="curve" smooth="yes"/>
      <point x="197" y="537"/>
      <point x="123" y="517"/>
      <point x="70" y="498" type="curve"/>
    </contour>
  </outline>
</glyph>
<glyph name="t" format="2">
  <advance width="444"/>
  <unicode hex="0074"/>
  <anchor x="253" y="0" name="bottom"/>
  <anchor x="222" y="263" name="center"/>
  <anchor x="222" y="526" name="top"/>
  <anchor x="424" y="776" name="topright"/>
  <outline>
    <contour>
      <point x="273" y="-12" type="curve" smooth="yes"/>
      <point x="337" y="-12"/>
      <point x="378" y="0"/>
      <point x="414" y="15" type="curve"/>
      <point x="393" y="131" type="line"/>
      <point x="365" y="120"/>
      <point x="329" y="114"/>
      <point x="297" y="114" type="curve" smooth="yes"/>
      <point x="230" y="114"/>
      <point x="214" y="154"/>
      <point x="214" y="217" type="curve" smooth="yes"/>
      <point x="214" y="402" type="line"/>
      <point x="393" y="402" type="line"/>
      <point x="393" y="526" type="line"/>
      <point x="214" y="526" type="line"/>
      <point x="214" y="681" type="line"/>
      <point x="65" y="657" type="line"/>
      <point x="65" y="215" type="line"/>
      <point x="65" y="79"/>
      <point x="110" y="-12"/>
    </contour>
  </outline>
</glyph>
<glyph name="u" format="2">
  <advance width="589"/>
  <unicode hex="0075"/>
  <anchor x="295" y="0" name="bottom"/>
  <anchor x="530" y="10" name="ogonek"/>
  <anchor x="293" y="526" name="top"/>
  <anchor x="569" y="526" name="topright"/>
  <outline>
    <contour>
      <point x="295" y="-12" type="curve" smooth="yes"/>
      <point x="383" y="-12"/>
      <point x="468" y="3"/>
      <point x="519" y="18" type="curve"/>
      <point x="519" y="526" type="line"/>
      <point x="370" y="526" type="line"/>
      <point x="370" y="120" type="line"/>
      <point x="351" y="117"/>
      <point x="325" y="115"/>
      <point x="304" y="115" type="curve" smooth="yes"/>
      <point x="235" y="115"/>
      <point x="214" y="155"/>
      <point x="214" y="251" type="curve" smooth="yes"/>
      <point x="214" y="526" type="line"/>
      <point x="65" y="526" type="line"/>
      <point x="65" y="233" type="line" smooth="yes"/>
      <point x="65" y="89"/>
      <point x="116" y="-12"/>
    </contour>
  </outline>
</glyph>
<glyph name="v" format="2">
  <advance width="550"/>
  <unicode hex="0076"/>
  <anchor x="275" y="0" name="bottom"/>
  <anchor x="275" y="526" name="top"/>
  <outline>
    <contour>
      <point x="213" y="0" type="curve"/>
      <point x="337" y="0" type="line"/>
      <point x="405" y="133"/>
      <point x="477" y="315"/>
      <point x="540" y="526" type="curve"/>
      <point x="386" y="526" type="line"/>
      <point x="359" y="422"/>
      <point x="312" y="275"/>
      <point x="277" y="179" type="curve"/>
      <point x="240" y="274"/>
      <point x="195" y="422"/>
      <point x="168" y="526" type="curve"/>
      <point x="10" y="526" type="line"/>
      <point x="73" y="315"/>
      <point x="145" y="133"/>
    </contour>
  </outline>
</glyph>
<glyph name="z" format="2">
  <advance width="500"/>
  <unicode hex="007A"/>
  <anchor x="250" y="0" name="bottom"/>
  <anchor x="250" y="263" name="center"/>
  <anchor x="250" y="526" name="top"/>
  <outline>
    <contour>
      <point x="35" y="0" type="line"/>
      <point x="470" y="0" type="line"/>
      <point x="470" y="124" type="line"/>
      <point x="216" y="124" type="line"/>
      <point x="293" y="236"/>
      <point x="417" y="372"/>
      <point x="465" y="426" type="curve"/>
      <point x="465" y="526" type="line"/>
      <point x="47" y="526" type="line"/>
      <point x="47" y="402" type="line"/>
      <point x="271" y="402" type="line"/>
      <point x="200" y="317"/>
      <point x="91" y="184"/>
      <point x="35" y="88" type="curve"/>
    </contour>
  </outline>
</glyph>
<glyph name="braceright" format="2">
  <advance width="371"/>
  <unicode hex="007D"/>
  <outline>
    <contour>
      <point x="10" y="-185" type="line"/>
      <point x="30" y="-185" type="line" smooth="yes"/>
      <point x="198" y="-185"/>
      <point x="251" y="-120"/>
      <point x="251" y="-5" type="curve" smooth="yes"/>
      <point x="251" y="146" type="line" smooth="yes"/>
      <point x="251" y="202"/>
      <point x="277" y="240"/>
      <point x="336" y="240" type="curve"/>
      <point x="336" y="358" type="line"/>
      <point x="277" y="358"/>
      <point x="251" y="396"/>
      <point x="251" y="452" type="curve" smooth="yes"/>
      <point x="251" y="603" type="line" smooth="yes"/>
      <point x="251" y="718"/>
      <point x="198" y="783"/>
      <point x="30" y="783" type="curve" smooth="yes"/>
      <point x="10" y="783" type="line"/>
      <point x="10" y="664" type="line"/>
      <point x="35" y="664" type="line" smooth="yes"/>
      <point x="95" y="664"/>
      <point x="111" y="637"/>
      <point x="111" y="582" type="curve" smooth="yes"/>
      <point x="111" y="449" type="line" smooth="yes"/>
      <point x="111" y="380"/>
      <point x="125" y="334"/>
      <point x="181" y="299" type="curve"/>
      <point x="125" y="264"/>
      <point x="111" y="218"/>
      <point x="111" y="149" type="curve" smooth="yes"/>
      <point x="111" y="16" type="line" smooth="yes"/>
      <point x="111" y="-39"/>
      <point x="95" y="-66"/>
      <point x="35" y="-66" type="curve" smooth="yes"/>
      <point x="10" y="-66" type="line"/>
    </contour>
  </outline>
</glyph>
<glyph name="asciitilde" format="2">
  <advance width="564"/>
  <unicode hex="007E"/>
  <outline>
    <contour>
      <point x="384" y="196" type="curve" smooth="yes"/>
      <point x="487" y="196"/>
      <point x="530" y="297"/>
      <point x="543" y="372" type="curve"/>
      <point x="441" y="400" type="line"/>
      <point x="425" y="333"/>
      <point x="401" y="327"/>
      <point x="379" y="327" type="curve" smooth="yes"/>
      <point x="321" y="327"/>
      <point x="260" y="403"/>
      <point x="180" y="403" type="curve" smooth="yes"/>
      <point x="76" y="403"/>
      <point x="34" y="302"/>
      <point x="21" y="227" type="curve"/>
      <point x="123" y="199" type="line"/>
      <point x="139" y="266"/>
      <point x="163" y="272"/>
      <point x="185" y="272" type="curve" smooth="yes"/>
      <point x="243" y="272"/>
      <point x="304" y="196"/>
    </contour>
  </outline>
</glyph>
<glyph name="yen" format="2">
  <advance width="564"/>
  <unicode hex="00A5"/>
  <outline>
    <contour>
      <point x="207" y="0" type="line"/>
      <point x="358" y="0" type="line"/>
      <point x="358" y="111" type="line"/>
      <point x="506" y="111" type="line"/>
      <point x="506" y="210" type="line"/>
      <point x="358" y="210" type="line"/>
      <point x="358" y="275" type="line"/>
      <point x="506" y="275" type="line"/>
      <point x="506" y="374" type="line"/>
      <point x="406" y="374" type="line"/>
      <point x="467" y="482"/>
      <point x="520" y="590"/>
      <point x="571" y="693" type="curve"/>
      <point x="402" y="693" type="line"/>
      <point x="362" y="604"/>
      <point x="329" y="507"/>
      <point x="285" y="419" type="curve"/>
      <point x="240" y="507"/>
      <point x="204" y="601"/>
      <point x="163" y="693" type="curve"/>
      <point x="-7" y="693" type="line"/>
      <point x="33" y="604"/>
      <point x="103" y="475"/>
      <point x="159" y="374" type="curve"/>
      <point x="59" y="374" type="line"/>
      <point x="59" y="275" type="line"/>
      <point x="207" y="275" type="line"/>
      <point x="207" y="210" type="line"/>
      <point x="59" y="210" type="line"/>
      <point x="59" y="111" type="line"/>
      <point x="207" y="111" type="line"/>
    </contour>
  </outline>
</glyph>
<glyph name="copyright" format="2">
  <advance width="796"/>
  <unicode hex="00A9"/>
  <outline>
    <contour>
      <point x="398" y="-15" type="curve" smooth="yes"/>
      <point x="582" y="-15"/>
      <point x="746" y="119"/>
      <point x="746" y="347" type="curve" smooth="yes"/>
      <point x="746" y="575"/>
      <point x="582" y="709"/>
      <point x="398" y="709" type="curve" smooth="yes"/>
      <point x="214" y="709"/>
      <point x="50" y="575"/>
      <point x="50" y="347" type="curve" smooth="yes"/>
      <point x="50" y="119"/>
      <point x="214" y="-15"/>
    </contour>
    <contour>
      <point x="414" y="160" type="curve" smooth="yes"/>
      <point x="474" y="160"/>
      <point x="517" y="182"/>
      <point x="534" y="191" type="curve"/>
      <point x="506" y="282" type="line"/>
      <point x="485" y="274"/>
      <point x="460" y="262"/>
      <point x="420" y="262" type="curve" smooth="yes"/>
      <point x="360" y="262"/>
      <point x="347" y="307"/>
      <point x="347" y="354" type="curve" smooth="yes"/>
      <point x="347" y="407"/>
      <point x="376" y="436"/>
      <point x="420" y="436" type="curve" smooth="yes"/>
      <point x="457" y="436"/>
      <point x="478" y="428"/>
      <point x="497" y="417" type="curve"/>
      <point x="529" y="505" type="line"/>
      <point x="514" y="513"/>
      <point x="475" y="537"/>
      <point x="411" y="537" type="curve" smooth="yes"/>
      <point x="303" y="537"/>
      <point x="231" y="469"/>
      <point x="231" y="349" type="curve" smooth="yes"/>
      <point x="231" y="228"/>
      <point x="295" y="160"/>
    </contour>
    <contour>
      <point x="398" y="81" type="curve" smooth="yes"/>
      <point x="253" y="81"/>
      <point x="152" y="187"/>
      <point x="152" y="347" type="curve" smooth="yes"/>
      <point x="152" y="507"/>
      <point x="253" y="613"/>
      <point x="398" y="613" type="curve" smooth="yes"/>
      <point x="543" y="613"/>
      <point x="644" y="507"/>
      <point x="644" y="347" type="curve" smooth="yes"/>
      <point x="644" y="187"/>
      <point x="543" y="81"/>
    </contour>
  </outline>
</glyph>
<glyph name="ordfeminine" format="2">
  <advance width="399"/>
  <unicode hex="00AA"/>
  <outline>
    <contour>
      <point x="193" y="308" type="curve" smooth="yes"/>
      <point x="270" y="308"/>
      <point x="330" y="321"/>
      <point x="361" y="328" type="curve"/>
      <point x="361" y="555" type="line" smooth="yes"/>
      <point x="361" y="650"/>
      <point x="319" y="708"/>
      <point x="191" y="708" type="curve" smooth="yes"/>
      <point x="142" y="708"/>
      <point x="85" y="698"/>
      <point x="60" y="690" type="curve"/>
      <point x="75" y="601" type="line"/>
      <point x="102" y="610"/>
      <point x="142" y="616"/>
      <point x="179" y="616" type="curve" smooth="yes"/>
      <point x="234" y="616"/>
      <point x="254" y="594"/>
      <point x="254" y="557" type="curve" smooth="yes"/>
      <point x="254" y="547" type="line"/>
      <point x="239" y="550"/>
      <point x="217" y="553"/>
      <point x="190" y="553" type="curve" smooth="yes"/>
      <point x="101" y="553"/>
      <point x="24" y="524"/>
      <point x="24" y="434" type="curve" smooth="yes"/>
      <point x="24" y="341"/>
      <point x="88" y="308"/>
    </contour>
    <contour>
      <point x="200" y="393" type="curve" smooth="yes"/>
      <point x="161" y="393"/>
      <point x="136" y="402"/>
      <point x="136" y="437" type="curve" smooth="yes"/>
      <point x="136" y="472"/>
      <point x="170" y="479"/>
      <point x="210" y="479" type="curve" smooth="yes"/>
      <point x="225" y="479"/>
      <point x="245" y="477"/>
      <point x="254" y="474" type="curve"/>
      <point x="254" y="396" type="line"/>
      <point x="242" y="395"/>
      <point x="221" y="393"/>
    </contour>
  </outline>
</glyph>
<glyph name="logicalnot" format="2">
  <advance width="568"/>
  <unicode hex="00AC"/>
  <outline>
    <contour>
      <point x="384" y="51" type="line"/>
      <point x="520" y="51" type="line"/>
      <point x="520" y="410" type="line"/>
      <point x="50" y="410" type="line"/>
      <point x="50" y="285" type="line"/>
      <point x="384" y="285" type="line"/>
    </contour>
  </outline>
</glyph>
<glyph name="registered" format="2">
  <advance width="535"/>
  <unicode hex="00AE"/>
  <outline>
    <contour>
      <point x="268" y="255" type="curve" smooth="yes"/>
      <point x="393" y="255"/>
      <point x="510" y="345"/>
      <point x="510" y="502" type="curve" smooth="yes"/>
      <point x="510" y="658"/>
      <point x="394" y="748"/>
      <point x="268" y="748" type="curve" smooth="yes"/>
      <point x="141" y="748"/>
      <point x="25" y="658"/>
      <point x="25" y="502" type="curve" smooth="yes"/>
      <point x="25" y="345"/>
      <point x="142" y="255"/>
    </contour>
    <contour>
      <point x="268" y="327" type="curve" smooth="yes"/>
      <point x="169" y="327"/>
      <point x="101" y="397"/>
      <point x="101" y="502" type="curve" smooth="yes"/>
      <point x="101" y="608"/>
      <point x="170" y="678"/>
      <point x="268" y="678" type="curve" smooth="yes"/>
      <point x="366" y="678"/>
      <point x="434" y="607"/>
      <point x="434" y="502" type="curve" smooth="yes"/>
      <point x="434" y="396"/>
      <point x="365" y="327"/>
    </contour>
    <contour>
      <point x="177" y="391" type="line"/>
      <point x="252" y="391" type="line"/>
      <point x="252" y="464" type="line"/>
      <point x="263" y="464" type="line"/>
      <point x="266" y="464"/>
      <point x="268" y="464"/>
      <point x="270" y="464" type="curve"/>
      <point x="282" y="443"/>
      <point x="291" y="419"/>
      <point x="301" y="391" type="curve"/>
      <point x="380" y="391" type="line"/>
      <point x="369" y="427"/>
      <point x="353" y="460"/>
      <point x="336" y="485" type="curve"/>
      <point x="356" y="498"/>
      <point x="368" y="521"/>
      <point x="368" y="546" type="curve" smooth="yes"/>
      <point x="368" y="596"/>
      <point x="327" y="627"/>
      <point x="260" y="627" type="curve" smooth="yes"/>
      <point x="240" y="627"/>
      <point x="208" y="623"/>
      <point x="177" y="615" type="curve"/>
    </contour>
    <contour>
      <point x="252" y="523" type="line"/>
      <point x="252" y="560" type="line"/>
      <point x="256" y="561"/>
      <point x="260" y="562"/>
      <point x="267" y="562" type="curve" smooth="yes"/>
      <point x="282" y="562"/>
      <point x="293" y="556"/>
      <point x="293" y="542" type="curve" smooth="yes"/>
      <point x="293" y="529"/>
      <point x="281" y="523"/>
      <point x="265" y="523" type="curve" smooth="yes"/>
    </contour>
  </outline>
</glyph>
<glyph name="plusminus" format="2">
  <advance width="568"/>
  <unicode hex="00B1"/>
  <outline>
    <contour>
      <point x="216" y="160" type="line"/>
      <point x="352" y="160" type="line"/>
      <point x="352" y="330" type="line"/>
      <point x="519" y="330" type="line"/>
      <point x="519" y="455" type="line"/>
      <point x="352" y="455" type="line"/>
      <point x="352" y="625" type="line"/>
      <point x="216" y="625" type="line"/>
      <point x="216" y="455" type="line"/>
      <point x="49" y="455" type="line"/>
      <point x="49" y="330" type="line"/>
      <point x="216" y="330" type="line"/>
    </contour>
    <contour>
      <point x="49" y="0" type="line"/>
      <point x="519" y="0" type="line"/>
      <point x="519" y="125" type="line"/>
      <point x="49" y="125" type="line"/>
    </contour>
  </outline>
</glyph>
<glyph name="micro" format="2">
  <advance width="594"/>
  <unicode hex="00B5"/>
  <outline>
    <contour>
      <point x="70" y="-166" type="line"/>
      <point x="219" y="-166" type="line"/>
      <point x="219" y="-89" type="line" smooth="yes"/>
      <point x="219" y="-40"/>
      <point x="217" y="-18"/>
      <point x="214" y="9" type="curve"/>
      <point x="239" y="-3"/>
      <point x="278" y="-10"/>
      <point x="313" y="-10" type="curve" smooth="yes"/>
      <point x="397" y="-10"/>
      <point x="472" y="3"/>
      <point x="524" y="18" type="curve"/>
      <point x="524" y="526" type="line"/>
      <point x="375" y="526" type="line"/>
      <point x="375" y="120" type="line"/>
      <point x="356" y="117"/>
      <point x="331" y="115"/>
      <point x="310" y="115" type="curve" smooth="yes"/>
      <point x="249" y="115"/>
      <point x="219" y="143"/>
      <point x="219" y="244" type="curve" smooth="yes"/>
      <point x="219" y="526" type="line"/>
      <point x="70" y="526" type="line"/>
    </contour>
  </outline>
</glyph>
<glyph name="Aring" format="2">
  <advance width="721"/>
  <unicode hex="00C5"/>
  <outline>
    <contour>
      <point x="10" y="0" type="curve"/>
      <point x="172" y="0" type="line"/>
      <point x="187" y="48"/>
      <point x="206" y="99"/>
      <point x="223" y="150" type="curve"/>
      <point x="493" y="150" type="line"/>
      <point x="510" y="99"/>
      <point x="529" y="48"/>
      <point x="544" y="0" type="curve"/>
      <point x="711" y="0" type="line"/>
      <point x="609" y="291"/>
      <point x="529" y="490"/>
      <point x="441" y="680" type="curve"/>
      <point x="464" y="699"/>
      <point x="479" y="728"/>
      <point x="479" y="767" type="curve" smooth="yes"/>
      <point x="479" y="842"/>
      <point x="424" y="882"/>
      <point x="360" y="882" type="curve" smooth="yes"/>
      <point x="299" y="882"/>
      <point x="243" y="842"/>
      <point x="243" y="767" type="curve" smooth="yes"/>
      <point x="243" y="728"/>
      <point x="257" y="700"/>
      <point x="280" y="680" type="curve"/>
      <point x="190" y="491"/>
      <point x="111" y="291"/>
    </contour>
    <contour>
      <point x="259" y="274" type="line"/>
      <point x="302" y="394"/>
      <point x="344" y="496"/>
      <point x="357" y="536" type="curve"/>
      <point x="373" y="496"/>
      <point x="413" y="394"/>
      <point x="456" y="274" type="curve"/>
    </contour>
    <contour>
      <point x="360" y="720" type="curve" smooth="yes"/>
      <point x="337" y="720"/>
      <point x="315" y="736"/>
      <point x="315" y="767" type="curve" smooth="yes"/>
      <point x="315" y="798"/>
      <point x="337" y="814"/>
      <point x="360" y="814" type="curve" smooth="yes"/>
      <point x="384" y="814"/>
      <point x="406" y="798"/>
      <point x="406" y="767" type="curve" smooth="yes"/>
      <point x="406" y="736"/>
      <point x="384" y="720"/>
    </contour>
  </outline>
</glyph>
<glyph name="AE" format="2">
  <advance width="994"/>
  <unicode hex="00C6"/>
  <anchor x="497" y="0" name="bottom"/>
  <anchor x="609" y="685" name="top"/>
  <outline>
    <contour>
      <point x="10" y="0" type="curve"/>
      <point x="181" y="0" type="line"/>
      <point x="205" y="51"/>
      <point x="242" y="113"/>
      <point x="270" y="164" type="curve"/>
      <point x="490" y="164" type="line"/>
      <point x="490" y="0" type="line"/>
      <point x="959" y="0" type="line"/>
      <point x="959" y="131" type="line"/>
      <point x="641" y="131" type="line"/>
      <point x="641" y="298" type="line"/>
      <point x="901" y="298" type="line"/>
      <point x="901" y="426" type="line"/>
      <point x="641" y="426" type="line"/>
      <point x="641" y="562" type="line"/>
      <point x="936" y="562" type="line"/>
      <point x="936" y="693" type="line"/>
      <point x="436" y="693" type="line"/>
      <point x="311" y="518"/>
      <point x="173" y="292"/>
    </contour>
    <contour>
      <point x="333" y="288" type="line"/>
      <point x="379" y="363"/>
      <point x="447" y="481"/>
      <point x="490" y="542" type="curve"/>
      <point x="490" y="288" type="line"/>
    </contour>
  </outline>
</glyph>
<glyph name="multiply" format="2">
  <advance width="568"/>
  <unicode hex="00D7"/>
  <outline>
    <contour>
      <point x="149" y="77" type="line"/>
      <point x="284" y="213" type="line"/>
      <point x="420" y="77" type="line"/>
      <point x="507" y="164" type="line"/>
      <point x="371" y="299" type="line"/>
      <point x="507" y="435" type="line"/>
      <point x="420" y="522" type="line"/>
      <point x="284" y="386" type="line"/>
      <point x="149" y="522" type="line"/>
      <point x="62" y="435" type="line"/>
      <point x="198" y="299" type="line"/>
      <point x="62" y="164" type="line"/>
    </contour>
  </outline>
</glyph>
<glyph name="oslash" format="2">
  <advance width="607"/>
  <unicode hex="00F8"/>
  <anchor x="304" y="526" name="top"/>
  <outline>
    <contour>
      <point x="125" y="-39" type="line"/>
      <point x="170" y="20" type="line"/>
      <point x="209" y="-3"/>
      <point x="254" y="-14"/>
      <point x="304" y="-14" type="curve" smooth="yes"/>
      <point x="461" y="-14"/>
      <point x="562" y="98"/>
      <point x="562" y="264" type="curve" smooth="yes"/>
      <point x="562" y="340"/>
      <point x="541" y="403"/>
      <point x="502" y="450" type="curve"/>
      <point x="551" y="513" type="line"/>
      <point x="481" y="566" type="line"/>
      <point x="435" y="507" type="line"/>
      <point x="398" y="528"/>
      <point x="353" y="540"/>
      <point x="304" y="540" type="curve" smooth="yes"/>
      <point x="155" y="540"/>
      <point x="45" y="429"/>
      <point x="45" y="264" type="curve" smooth="yes"/>
      <point x="45" y="188"/>
      <point x="65" y="125"/>
      <point x="104" y="77" type="curve"/>
      <point x="55" y="14" type="line"/>
    </contour>
    <contour>
      <point x="304" y="106" type="curve" smooth="yes"/>
      <point x="283" y="106"/>
      <point x="265" y="111"/>
      <point x="249" y="121" type="curve"/>
      <point x="410" y="330" type="line"/>
      <point x="415" y="309"/>
      <point x="418" y="287"/>
      <point x="418" y="264" type="curve" smooth="yes"/>
      <point x="418" y="167"/>
      <point x="376" y="106"/>
    </contour>
    <contour>
      <point x="197" y="198" type="line"/>
      <point x="190" y="217"/>
      <point x="189" y="239"/>
      <point x="189" y="264" type="curve" smooth="yes"/>
      <point x="189" y="361"/>
      <point x="232" y="420"/>
      <point x="304" y="420" type="curve" smooth="yes"/>
      <point x="324" y="420"/>
      <point x="342" y="415"/>
      <point x="357" y="406" type="curve"/>
    </contour>
  </outline>
</glyph>
<glyph name="hbar" format="2">
  <advance width="599"/>
  <unicode hex="0127"/>
  <outline>
    <contour>
      <point x="80" y="0" type="line"/>
      <point x="229" y="0" type="line"/>
      <point x="229" y="385" type="line"/>
      <point x="248" y="390"/>
      <point x="271" y="396"/>
      <point x="298" y="396" type="curve" smooth="yes"/>
      <point x="365" y="396"/>
      <point x="385" y="360"/>
      <point x="385" y="264" type="curve" smooth="yes"/>
      <point x="385" y="0" type="line"/>
      <point x="534" y="0" type="line"/>
      <point x="534" y="282" type="line" smooth="yes"/>
      <point x="534" y="425"/>
      <point x="484" y="523"/>
      <point x="313" y="523" type="curve" smooth="yes"/>
      <point x="284" y="523"/>
      <point x="249" y="516"/>
      <point x="229" y="509" type="curve"/>
      <point x="229" y="596" type="line"/>
      <point x="372" y="596" type="line"/>
      <point x="372" y="689" type="line"/>
      <point x="229" y="689" type="line"/>
      <point x="229" y="776" type="line"/>
      <point x="80" y="752" type="line"/>
      <point x="80" y="689" type="line"/>
      <point x="18" y="689" type="line"/>
      <point x="18" y="596" type="line"/>
      <point x="80" y="596" type="line"/>
    </contour>
  </outline>
</glyph>
<glyph name="dotlessi" format="2">
  <advance width="289"/>
  <unicode hex="0131"/>
  <anchor x="145" y="0" name="bottom"/>
  <anchor x="260" y="10" name="ogonek"/>
  <anchor x="145" y="526" name="top"/>
  <outline>
    <contour>
      <point x="70" y="0" type="line"/>
      <point x="219" y="0" type="line"/>
      <point x="219" y="526" type="line"/>
      <point x="70" y="526" type="line"/>
    </contour>
  </outline>
</glyph>
<glyph name="Lslash" format="2">
  <advance width="594"/>
  <unicode hex="0141"/>
  <outline>
    <contour>
      <point x="111" y="0" type="line"/>
      <point x="574" y="0" type="line"/>
      <point x="574" y="134" type="line"/>
      <point x="267" y="134" type="line"/>
      <point x="267" y="332" type="line"/>
      <point x="438" y="419" type="line"/>
      <point x="389" y="520" type="line"/>
      <point x="267" y="458" type="line"/>
      <point x="267" y="693" type="line"/>
      <point x="111" y="693" type="line"/>
      <point x="111" y="380" type="line"/>
      <point x="0" y="324" type="line"/>
      <point x="49" y="223" type="line"/>
      <point x="111" y="254" type="line"/>
    </contour>
  </outline>
</glyph>
<glyph name="lslash" format="2">
  <advance width="364"/>
  <unicode hex="0142"/>
  <outline>
    <contour>
      <point x="307" y="-10" type="curve"/>
      <point x="328" y="113" type="line"/>
      <point x="257" y="118"/>
      <point x="246" y="150"/>
      <point x="246" y="203" type="curve" smooth="yes"/>
      <point x="246" y="406" type="line"/>
      <point x="362" y="464" type="line"/>
      <point x="317" y="556" type="line"/>
      <point x="246" y="520" type="line"/>
      <point x="246" y="776" type="line"/>
      <point x="97" y="752" type="line"/>
      <point x="97" y="446" type="line"/>
      <point x="-10" y="393" type="line"/>
      <point x="35" y="301" type="line"/>
      <point x="97" y="332" type="line"/>
      <point x="97" y="173" type="line" smooth="yes"/>
      <point x="97" y="61"/>
      <point x="135" y="-7"/>
    </contour>
  </outline>
</glyph>
<glyph name="OE" format="2">
  <advance width="997"/>
  <unicode hex="0152"/>
  <anchor x="499" y="0" name="bottom"/>
  <anchor x="499" y="693" name="top"/>
  <outline>
    <contour>
      <point x="443" y="-6" type="curve" smooth="yes"/>
      <point x="474" y="-6"/>
      <point x="515" y="-4"/>
      <point x="546" y="0" type="curve"/>
      <point x="962" y="0" type="line"/>
      <point x="962" y="131" type="line"/>
      <point x="644" y="131" type="line"/>
      <point x="644" y="298" type="line"/>
      <point x="904" y="298" type="line"/>
      <point x="904" y="426" type="line"/>
      <point x="644" y="426" type="line"/>
      <point x="644" y="562" type="line"/>
      <point x="939" y="562" type="line"/>
      <point x="939" y="693" type="line"/>
      <point x="546" y="693" type="line"/>
      <point x="515" y="697"/>
      <point x="474" y="699"/>
      <point x="443" y="699" type="curve" smooth="yes"/>
      <point x="208" y="699"/>
      <point x="50" y="589"/>
      <point x="50" y="347" type="curve" smooth="yes"/>
      <point x="50" y="104"/>
      <point x="208" y="-6"/>
    </contour>
    <contour>
      <point x="441" y="126" type="curve" smooth="yes"/>
      <point x="285" y="126"/>
      <point x="210" y="204"/>
      <point x="210" y="347" type="curve" smooth="yes"/>
      <point x="210" y="490"/>
      <point x="285" y="567"/>
      <point x="441" y="567" type="curve" smooth="yes"/>
      <point x="460" y="567"/>
      <point x="466" y="567"/>
      <point x="493" y="566" type="curve"/>
      <point x="493" y="127" type="line"/>
      <point x="468" y="126"/>
      <point x="457" y="126"/>
    </contour>
  </outline>
</glyph>
<glyph name="oe" format="2">
  <advance width="937"/>
  <unicode hex="0153"/>
  <anchor x="469" y="0" name="bottom"/>
  <anchor x="469" y="526" name="top"/>
  <outline>
    <contour>
      <point x="300" y="-14" type="curve" smooth="yes"/>
      <point x="368" y="-14"/>
      <point x="430" y="16"/>
      <point x="474" y="69" type="curve"/>
      <point x="521" y="13"/>
      <point x="591" y="-14"/>
      <point x="676" y="-14" type="curve" smooth="yes"/>
      <point x="751" y="-14"/>
      <point x="829" y="3"/>
      <point x="861" y="19" type="curve"/>
      <point x="841" y="140" type="line"/>
      <point x="808" y="125"/>
      <point x="751" y="114"/>
      <point x="696" y="114" type="curve" smooth="yes"/>
      <point x="611" y="114"/>
      <point x="558" y="153"/>
      <point x="551" y="214" type="curve"/>
      <point x="889" y="214" type="line"/>
      <point x="890" y="230"/>
      <point x="892" y="253"/>
      <point x="892" y="270" type="curve" smooth="yes"/>
      <point x="892" y="447"/>
      <point x="799" y="540"/>
      <point x="650" y="540" type="curve" smooth="yes"/>
      <point x="590" y="540"/>
      <point x="529" y="517"/>
      <point x="481" y="454" type="curve"/>
      <point x="438" y="511"/>
      <point x="377" y="540"/>
      <point x="300" y="540" type="curve" smooth="yes"/>
      <point x="150" y="540"/>
      <point x="45" y="429"/>
      <point x="45" y="264" type="curve" smooth="yes"/>
      <point x="45" y="98"/>
      <point x="145" y="-14"/>
    </contour>
    <contour>
      <point x="304" y="114" type="curve" smooth="yes"/>
      <point x="236" y="114"/>
      <point x="197" y="172"/>
      <point x="197" y="264" type="curve" smooth="yes"/>
      <point x="197" y="356"/>
      <point x="236" y="412"/>
      <point x="304" y="412" type="curve" smooth="yes"/>
      <point x="372" y="412"/>
      <point x="410" y="356"/>
      <point x="410" y="264" type="curve" smooth="yes"/>
      <point x="410" y="172"/>
      <point x="372" y="114"/>
    </contour>
    <contour>
      <point x="551" y="316" type="line"/>
      <point x="559" y="368"/>
      <point x="584" y="417"/>
      <point x="652" y="417" type="curve" smooth="yes"/>
      <point x="720" y="417"/>
      <point x="745" y="366"/>
      <point x="748" y="316" type="curve"/>
    </contour>
  </outline>
</glyph>
<glyph name="Tcedilla" format="2">
  <advance width="614"/>
  <unicode hex="0162"/>
  <outline>
    <contour>
      <point x="253" y="-221" type="curve" smooth="yes"/>
      <point x="336" y="-221"/>
      <point x="391" y="-187"/>
      <point x="391" y="-123" type="curve" smooth="yes"/>
      <point x="391" y="-92"/>
      <point x="378" y="-61"/>
      <point x="335" y="-40" type="curve"/>
      <point x="339" y="-29"/>
      <point x="346" y="-15"/>
      <point x="353" y="0" type="curve"/>
      <point x="385" y="0" type="line"/>
      <point x="385" y="560" type="line"/>
      <point x="594" y="560" type="line"/>
      <point x="594" y="693" type="line"/>
      <point x="20" y="693" type="line"/>
      <point x="20" y="560" type="line"/>
      <point x="229" y="560" type="line"/>
      <point x="229" y="0" type="line"/>
      <point x="254" y="0" type="line"/>
      <point x="245" y="-20"/>
      <point x="233" y="-48"/>
      <point x="226" y="-67" type="curve"/>
      <point x="269" y="-77"/>
      <point x="282" y="-91"/>
      <point x="281" y="-107" type="curve" smooth="yes"/>
      <point x="280" y="-126"/>
      <point x="264" y="-132"/>
      <point x="245" y="-132" type="curve" smooth="yes"/>
      <point x="221" y="-132"/>
      <point x="192" y="-124"/>
      <point x="183" y="-121" type="curve"/>
      <point x="165" y="-208" type="line"/>
      <point x="194" y="-216"/>
      <point x="224" y="-221"/>
    </contour>
  </outline>
</glyph>
<glyph name="longs" format="2">
  <advance width="329"/>
  <unicode hex="017F"/>
  <anchor x="165" y="0" name="bottom"/>
  <anchor x="165" y="526" name="top"/>
  <outline>
    <contour>
      <point x="70" y="0" type="line"/>
      <point x="219" y="0" type="line"/>
      <point x="219" y="552" type="line" smooth="yes"/>
      <point x="219" y="608"/>
      <point x="240" y="650"/>
      <point x="313" y="650" type="curve" smooth="yes"/>
      <point x="340" y="650"/>
      <point x="373" y="644"/>
      <point x="400" y="632" type="curve"/>
      <point x="429" y="751" type="line"/>
      <point x="404" y="762"/>
      <point x="354" y="776"/>
      <point x="298" y="776" type="curve" smooth="yes"/>
      <point x="147" y="776"/>
      <point x="70" y="690"/>
      <point x="70" y="554" type="curve" smooth="yes"/>
    </contour>
  </outline>
</glyph>
<glyph name="uni0180" format="2">
  <advance width="604"/>
  <unicode hex="0180"/>
  <outline>
    <contour>
      <point x="285" y="-13" type="curve" smooth="yes"/>
      <point x="458" y="-13"/>
      <point x="559" y="96"/>
      <point x="559" y="256" type="curve" smooth="yes"/>
      <point x="559" y="412"/>
      <point x="478" y="523"/>
      <point x="329" y="523" type="curve" smooth="yes"/>
      <point x="288" y="523"/>
      <point x="252" y="515"/>
      <point x="219" y="500" type="curve"/>
      <point x="219" y="596" type="line"/>
      <point x="362" y="596" type="line"/>
      <point x="362" y="689" type="line"/>
      <point x="219" y="689" type="line"/>
      <point x="219" y="776" type="line"/>
      <point x="70" y="752" type="line"/>
      <point x="70" y="689" type="line"/>
      <point x="8" y="689" type="line"/>
      <point x="8" y="596" type="line"/>
      <point x="70" y="596" type="line"/>
      <point x="70" y="17" type="line"/>
      <point x="123" y="1"/>
      <point x="213" y="-13"/>
    </contour>
    <contour>
      <point x="284" y="114" type="curve" smooth="yes"/>
      <point x="257" y="114"/>
      <point x="234" y="116"/>
      <point x="219" y="119" type="curve"/>
      <point x="219" y="376" type="line"/>
      <point x="238" y="388"/>
      <point x="270" y="397"/>
      <point x="301" y="397" type="curve" smooth="yes"/>
      <point x="372" y="397"/>
      <point x="407" y="347"/>
      <point x="407" y="260" type="curve" smooth="yes"/>
      <point x="407" y="176"/>
      <point x="364" y="114"/>
    </contour>
  </outline>
</glyph>
<glyph name="uni0181" format="2">
  <advance width="811"/>
  <unicode hex="0181"/>
  <outline>
    <contour>
      <point x="450" y="-9" type="curve" smooth="yes"/>
      <point x="659" y="-9"/>
      <point x="766" y="65"/>
      <point x="766" y="210" type="curve" smooth="yes"/>
      <point x="766" y="282"/>
      <point x="740" y="342"/>
      <point x="652" y="375" type="curve"/>
      <point x="705" y="407"/>
      <point x="732" y="451"/>
      <point x="732" y="506" type="curve" smooth="yes"/>
      <point x="732" y="654"/>
      <point x="607" y="701"/>
      <point x="410" y="701" type="curve" smooth="yes"/>
      <point x="253" y="701"/>
      <point x="15" y="696"/>
      <point x="15" y="523" type="curve" smooth="yes"/>
      <point x="15" y="498"/>
      <point x="22" y="465"/>
      <point x="27" y="446" type="curve"/>
      <point x="145" y="462" type="line"/>
      <point x="140" y="483"/>
      <point x="140" y="499"/>
      <point x="140" y="506" type="curve" smooth="yes"/>
      <point x="140" y="537"/>
      <point x="164" y="560"/>
      <point x="219" y="565" type="curve"/>
      <point x="219" y="11" type="line"/>
      <point x="300" y="-6"/>
      <point x="374" y="-9"/>
    </contour>
    <contour>
      <point x="452" y="119" type="curve" smooth="yes"/>
      <point x="420" y="119"/>
      <point x="394" y="120"/>
      <point x="371" y="123" type="curve"/>
      <point x="371" y="302" type="line"/>
      <point x="469" y="302" type="line"/>
      <point x="558" y="302"/>
      <point x="608" y="277"/>
      <point x="608" y="213" type="curve" smooth="yes"/>
      <point x="608" y="141"/>
      <point x="545" y="119"/>
    </contour>
    <contour>
      <point x="371" y="421" type="line"/>
      <point x="371" y="572" type="line"/>
      <point x="398" y="574"/>
      <point x="426" y="575"/>
      <point x="455" y="575" type="curve" smooth="yes"/>
      <point x="538" y="575"/>
      <point x="581" y="555"/>
      <point x="581" y="499" type="curve" smooth="yes"/>
      <point x="581" y="444"/>
      <point x="543" y="421"/>
      <point x="447" y="421" type="curve" smooth="yes"/>
    </contour>
  </outline>
</glyph>
<glyph name="Tonesix" format="2">
  <advance width="604"/>
  <unicode hex="0184"/>
  <outline>
    <contour>
      <point x="285" y="-13" type="curve" smooth="yes"/>
      <point x="458" y="-13"/>
      <point x="559" y="95"/>
      <point x="559" y="263" type="curve" smooth="yes"/>
      <point x="559" y="428"/>
      <point x="478" y="537"/>
      <point x="329" y="537" type="curve" smooth="yes"/>
      <point x="288" y="537"/>
      <point x="252" y="529"/>
      <point x="219" y="514" type="curve"/>
      <point x="219" y="776" type="line"/>
      <point x="132" y="753"/>
      <point x="53" y="720"/>
      <point x="-15" y="683" type="curve"/>
      <point x="70" y="594" type="line"/>
      <point x="70" y="17" type="line"/>
      <point x="123" y="1"/>
      <point x="213" y="-13"/>
    </contour>
    <contour>
      <point x="284" y="114" type="curve" smooth="yes"/>
      <point x="257" y="114"/>
      <point x="234" y="116"/>
      <point x="219" y="119" type="curve"/>
      <point x="219" y="390" type="line"/>
      <point x="238" y="402"/>
      <point x="270" y="411"/>
      <point x="301" y="411" type="curve" smooth="yes"/>
      <point x="372" y="411"/>
      <point x="407" y="363"/>
      <point x="407" y="267" type="curve" smooth="yes"/>
      <point x="407" y="175"/>
      <point x="365" y="114"/>
    </contour>
  </outline>
</glyph>
<glyph name="tonesix" format="2">
  <advance width="643"/>
  <unicode hex="0185"/>
  <outline>
    <contour>
      <point x="280" y="-6" type="curve" smooth="yes"/>
      <point x="497" y="-6"/>
      <point x="605" y="70"/>
      <point x="605" y="222" type="curve" smooth="yes"/>
      <point x="605" y="381"/>
      <point x="489" y="457"/>
      <point x="312" y="457" type="curve" smooth="yes"/>
      <point x="283" y="457"/>
      <point x="259" y="456"/>
      <point x="229" y="451" type="curve"/>
      <point x="229" y="703" type="line"/>
      <point x="142" y="680"/>
      <point x="63" y="647"/>
      <point x="-5" y="610" type="curve"/>
      <point x="80" y="521" type="line"/>
      <point x="80" y="15" type="line"/>
      <point x="151" y="-1"/>
      <point x="224" y="-6"/>
    </contour>
    <contour>
      <point x="287" y="124" type="curve" smooth="yes"/>
      <point x="262" y="124"/>
      <point x="244" y="124"/>
      <point x="229" y="125" type="curve"/>
      <point x="229" y="321" type="line"/>
      <point x="251" y="325"/>
      <point x="278" y="328"/>
      <point x="303" y="328" type="curve" smooth="yes"/>
      <point x="380" y="328"/>
      <point x="447" y="306"/>
      <point x="447" y="222" type="curve" smooth="yes"/>
      <point x="447" y="145"/>
      <point x="374" y="124"/>
    </contour>
  </outline>
</glyph>
<glyph name="uni0187" format="2">
  <advance width="720"/>
  <unicode hex="0187"/>
  <anchor x="360" y="0" name="bottom"/>
  <anchor x="360" y="693" name="top"/>
  <outline>
    <contour>
      <point x="396" y="-14" type="curve" smooth="yes"/>
      <point x="501" y="-14"/>
      <point x="584" y="11"/>
      <point x="628" y="38" type="curve"/>
      <point x="585" y="163" type="line"/>
      <point x="551" y="147"/>
      <point x="502" y="124"/>
      <point x="410" y="124" type="curve" smooth="yes"/>
      <point x="265" y="124"/>
      <point x="212" y="222"/>
      <point x="212" y="350" type="curve" smooth="yes"/>
      <point x="212" y="510"/>
      <point x="305" y="571"/>
      <point x="402" y="571" type="curve" smooth="yes"/>
      <point x="474" y="571"/>
      <point x="530" y="553"/>
      <point x="573" y="530" type="curve"/>
      <point x="596" y="603" type="line" smooth="yes"/>
      <point x="611" y="650"/>
      <point x="639" y="656"/>
      <point x="662" y="656" type="curve" smooth="yes"/>
      <point x="682" y="656"/>
      <point x="698" y="652"/>
      <point x="714" y="645" type="curve"/>
      <point x="750" y="764" type="line"/>
      <point x="729" y="775"/>
      <point x="692" y="786"/>
      <point x="649" y="786" type="curve" smooth="yes"/>
      <point x="582" y="786"/>
      <point x="538" y="767"/>
      <point x="510" y="696" type="curve"/>
      <point x="477" y="705"/>
      <point x="447" y="709"/>
      <point x="404" y="709" type="curve" smooth="yes"/>
      <point x="201" y="709"/>
      <point x="50" y="577"/>
      <point x="50" y="347" type="curve" smooth="yes"/>
      <point x="50" y="116"/>
      <point x="171" y="-14"/>
    </contour>
  </outline>
</glyph>
<glyph name="Dhook" format="2">
  <advance width="876"/>
  <unicode hex="018A"/>
  <unicode hex="0257"/>
  <anchor x="438" y="0" name="bottom"/>
  <anchor x="438" y="693" name="top"/>
  <outline>
    <contour>
      <point x="427" y="-9" type="curve" smooth="yes"/>
      <point x="672" y="-9"/>
      <point x="826" y="107"/>
      <point x="826" y="347" type="curve" smooth="yes"/>
      <point x="826" y="598"/>
      <point x="669" y="701"/>
      <point x="432" y="701" type="curve" smooth="yes"/>
      <point x="285" y="701"/>
      <point x="15" y="705"/>
      <point x="15" y="523" type="curve" smooth="yes"/>
      <point x="15" y="498"/>
      <point x="22" y="465"/>
      <point x="27" y="446" type="curve"/>
      <point x="145" y="462" type="line"/>
      <point x="140" y="483"/>
      <point x="140" y="499"/>
      <point x="140" y="506" type="curve" smooth="yes"/>
      <point x="140" y="537"/>
      <point x="164" y="560"/>
      <point x="219" y="565" type="curve"/>
      <point x="219" y="9" type="line"/>
      <point x="291" y="-6"/>
      <point x="371" y="-9"/>
    </contour>
    <contour>
      <point x="435" y="125" type="curve" smooth="yes"/>
      <point x="408" y="125"/>
      <point x="390" y="126"/>
      <point x="375" y="127" type="curve"/>
      <point x="375" y="565" type="line"/>
      <point x="395" y="568"/>
      <point x="419" y="568"/>
      <point x="440" y="568" type="curve" smooth="yes"/>
      <point x="596" y="568"/>
      <point x="665" y="492"/>
      <point x="665" y="347" type="curve" smooth="yes"/>
      <point x="665" y="208"/>
      <point x="591" y="125"/>
    </contour>
  </outline>
</glyph>
<glyph name="Ereversed" format="2">
  <advance width="606"/>
  <unicode hex="018E"/>
  <anchor x="303" y="0" name="bottom"/>
  <anchor x="303" y="693" name="top"/>
  <outline>
    <contour>
      <point x="35" y="0" type="line"/>
      <point x="526" y="0" type="line"/>
      <point x="526" y="693" type="line"/>
      <point x="58" y="693" type="line"/>
      <point x="58" y="562" type="line"/>
      <point x="370" y="562" type="line"/>
      <point x="370" y="426" type="line"/>
      <point x="93" y="426" type="line"/>
      <point x="93" y="298" type="line"/>
      <point x="370" y="298" type="line"/>
      <point x="370" y="131" type="line"/>
      <point x="35" y="131" type="line"/>
    </contour>
  </outline>
</glyph>
<glyph name="uni018F" format="2">
  <advance width="730"/>
  <unicode hex="018F"/>
  <anchor x="365" y="0" name="bottom"/>
  <anchor x="365" y="693" name="top"/>
  <outline>
    <contour>
      <point x="355" y="-14" type="curve" smooth="yes"/>
      <point x="544" y="-14"/>
      <point x="680" y="106"/>
      <point x="680" y="350" type="curve" smooth="yes"/>
      <point x="680" y="553"/>
      <point x="576" y="709"/>
      <point x="322" y="709" type="curve" smooth="yes"/>
      <point x="213" y="709"/>
      <point x="124" y="670"/>
      <point x="92" y="651" type="curve"/>
      <point x="132" y="529" type="line"/>
      <point x="166" y="545"/>
      <point x="234" y="574"/>
      <point x="312" y="574" type="curve" smooth="yes"/>
      <point x="442" y="574"/>
      <point x="503" y="527"/>
      <point x="516" y="396" type="curve"/>
      <point x="57" y="396" type="line"/>
      <point x="54" y="381"/>
      <point x="50" y="348"/>
      <point x="50" y="333" type="curve" smooth="yes"/>
      <point x="50" y="104"/>
      <point x="172" y="-14"/>
    </contour>
    <contour>
      <point x="356" y="118" type="curve" smooth="yes"/>
      <point x="271" y="118"/>
      <point x="220" y="173"/>
      <point x="212" y="268" type="curve"/>
      <point x="511" y="268" type="line"/>
      <point x="500" y="186"/>
      <point x="457" y="118"/>
    </contour>
  </outline>
</glyph>
<glyph name="uni0191" format="2">
  <advance width="574"/>
  <unicode hex="0191"/>
  <outline>
    <contour>
      <point x="39" y="-187" type="curve" smooth="yes"/>
      <point x="176" y="-187"/>
      <point x="236" y="-122"/>
      <point x="236" y="17" type="curve" smooth="yes"/>
      <point x="236" y="286" type="line"/>
      <point x="510" y="286" type="line"/>
      <point x="510" y="417" type="line"/>
      <point x="236" y="417" type="line"/>
      <point x="236" y="562" type="line"/>
      <point x="544" y="562" type="line"/>
      <point x="544" y="693" type="line"/>
      <point x="80" y="693" type="line"/>
      <point x="80" y="21" type="line" smooth="yes"/>
      <point x="80" y="-32"/>
      <point x="66" y="-61"/>
      <point x="25" y="-61" type="curve" smooth="yes"/>
      <point x="0" y="-61"/>
      <point x="-8" y="-60"/>
      <point x="-28" y="-53" type="curve"/>
      <point x="-48" y="-174" type="line"/>
      <point x="-16" y="-185"/>
      <point x="20" y="-187"/>
    </contour>
  </outline>
</glyph>
<glyph name="florin" format="2">
  <advance width="422"/>
  <unicode hex="0192"/>
  <outline>
    <contour>
      <point x="21" y="-185" type="curve" smooth="yes"/>
      <point x="149" y="-185"/>
      <point x="219" y="-120"/>
      <point x="219" y="19" type="curve" smooth="yes"/>
      <point x="219" y="402" type="line"/>
      <point x="403" y="402" type="line"/>
      <point x="403" y="526" type="line"/>
      <point x="219" y="526" type="line"/>
      <point x="219" y="552" type="line" smooth="yes"/>
      <point x="219" y="608"/>
      <point x="240" y="650"/>
      <point x="313" y="650" type="curve" smooth="yes"/>
      <point x="340" y="650"/>
      <point x="373" y="644"/>
      <point x="400" y="632" type="curve"/>
      <point x="429" y="751" type="line"/>
      <point x="404" y="762"/>
      <point x="354" y="776"/>
      <point x="298" y="776" type="curve" smooth="yes"/>
      <point x="147" y="776"/>
      <point x="70" y="690"/>
      <point x="70" y="554" type="curve" smooth="yes"/>
      <point x="70" y="23" type="line" smooth="yes"/>
      <point x="70" y="-30"/>
      <point x="54" y="-59"/>
      <point x="7" y="-59" type="curve" smooth="yes"/>
      <point x="-18" y="-59"/>
      <point x="-32" y="-57"/>
      <point x="-52" y="-50" type="curve"/>
      <point x="-72" y="-171" type="line"/>
      <point x="-40" y="-182"/>
      <point x="2" y="-185"/>
    </contour>
  </outline>
</glyph>
<glyph name="Iota-latin" format="2">
  <advance width="435"/>
  <unicode hex="0196"/>
  <unicode hex="0269"/>
  <anchor x="218" y="0" name="bottom"/>
  <anchor x="218" y="693" name="top"/>
  <outline>
    <contour>
      <point x="294" y="-14" type="curve" smooth="yes"/>
      <point x="350" y="-14"/>
      <point x="386" y="-3"/>
      <point x="415" y="8" type="curve"/>
      <point x="392" y="127" type="line"/>
      <point x="371" y="120"/>
      <point x="341" y="114"/>
      <point x="316" y="114" type="curve" smooth="yes"/>
      <point x="249" y="114"/>
      <point x="236" y="150"/>
      <point x="236" y="213" type="curve" smooth="yes"/>
      <point x="236" y="693" type="line"/>
      <point x="80" y="693" type="line"/>
      <point x="80" y="209" type="line"/>
      <point x="80" y="73"/>
      <point x="123" y="-14"/>
    </contour>
  </outline>
</glyph>
<glyph name="Istroke" format="2">
  <advance width="362"/>
  <unicode hex="0197"/>
  <unicode hex="0268"/>
  <outline>
    <contour>
      <point x="103" y="0" type="line"/>
      <point x="259" y="0" type="line"/>
      <point x="259" y="304" type="line"/>
      <point x="360" y="304" type="line"/>
      <point x="360" y="414" type="line"/>
      <point x="259" y="414" type="line"/>
      <point x="259" y="693" type="line"/>
      <point x="103" y="693" type="line"/>
      <point x="103" y="414" type="line"/>
      <point x="2" y="414" type="line"/>
      <point x="2" y="304" type="line"/>
      <point x="103" y="304" type="line"/>
    </contour>
  </outline>
</glyph>
<glyph name="lbar" format="2">
  <advance width="344"/>
  <unicode hex="019A"/>
  <outline>
    <contour>
      <point x="300" y="-10" type="curve"/>
      <point x="321" y="113" type="line"/>
      <point x="250" y="118"/>
      <point x="239" y="150"/>
      <point x="239" y="203" type="curve" smooth="yes"/>
      <point x="239" y="353" type="line"/>
      <point x="329" y="353" type="line"/>
      <point x="329" y="448" type="line"/>
      <point x="239" y="448" type="line"/>
      <point x="239" y="776" type="line"/>
      <point x="90" y="752" type="line"/>
      <point x="90" y="448" type="line"/>
      <point x="10" y="448" type="line"/>
      <point x="10" y="353" type="line"/>
      <point x="90" y="353" type="line"/>
      <point x="90" y="173" type="line" smooth="yes"/>
      <point x="90" y="61"/>
      <point x="128" y="-7"/>
    </contour>
  </outline>
</glyph>
<glyph name="uni019C" format="2">
  <advance width="982"/>
  <unicode hex="019C"/>
  <outline>
    <contour>
      <point x="315" y="-14" type="curve" smooth="yes"/>
      <point x="395" y="-14"/>
      <point x="456" y="13"/>
      <point x="493" y="33" type="curve"/>
      <point x="534" y="2"/>
      <point x="587" y="-14"/>
      <point x="652" y="-14" type="curve" smooth="yes"/>
      <point x="742" y="-14"/>
      <point x="842" y="2"/>
      <point x="902" y="18" type="curve"/>
      <point x="902" y="693" type="line"/>
      <point x="746" y="693" type="line"/>
      <point x="746" y="125" type="line"/>
      <point x="723" y="122"/>
      <point x="690" y="120"/>
      <point x="663" y="120" type="curve" smooth="yes"/>
      <point x="583" y="120"/>
      <point x="564" y="172"/>
      <point x="564" y="292" type="curve" smooth="yes"/>
      <point x="564" y="693" type="line"/>
      <point x="408" y="693" type="line"/>
      <point x="408" y="269" type="line" smooth="yes"/>
      <point x="408" y="225"/>
      <point x="412" y="180"/>
      <point x="421" y="143" type="curve"/>
      <point x="398" y="131"/>
      <point x="363" y="120"/>
      <point x="326" y="120" type="curve" smooth="yes"/>
      <point x="246" y="120"/>
      <point x="226" y="172"/>
      <point x="226" y="292" type="curve" smooth="yes"/>
      <point x="226" y="693" type="line"/>
      <point x="70" y="693" type="line"/>
      <point x="70" y="269" type="line" smooth="yes"/>
      <point x="70" y="105"/>
      <point x="111" y="-14"/>
    </contour>
  </outline>
</glyph>
<glyph name="Ocenteredtilde" format="2">
  <advance width="790"/>
  <unicode hex="019F"/>
  <unicode hex="0275"/>
  <anchor x="395" y="685" name="top"/>
  <outline>
    <contour>
      <point x="395" y="-14" type="curve" smooth="yes"/>
      <point x="591" y="-14"/>
      <point x="740" y="110"/>
      <point x="740" y="347" type="curve" smooth="yes"/>
      <point x="740" y="584"/>
      <point x="585" y="709"/>
      <point x="395" y="709" type="curve" smooth="yes"/>
      <point x="211" y="709"/>
      <point x="50" y="584"/>
      <point x="50" y="347" type="curve" smooth="yes"/>
      <point x="50" y="110"/>
      <point x="205" y="-14"/>
    </contour>
    <contour>
      <point x="395" y="123" type="curve" smooth="yes"/>
      <point x="295" y="123"/>
      <point x="230" y="189"/>
      <point x="214" y="294" type="curve"/>
      <point x="575" y="294" type="line"/>
      <point x="559" y="189"/>
      <point x="495" y="123"/>
    </contour>
    <contour>
      <point x="215" y="404" type="line"/>
      <point x="232" y="507"/>
      <point x="295" y="572"/>
      <point x="395" y="572" type="curve" smooth="yes"/>
      <point x="495" y="572"/>
      <point x="557" y="507"/>
      <point x="574" y="404" type="curve"/>
    </contour>
  </outline>
</glyph>
<glyph name="Oi" format="2">
  <advance width="1074"/>
  <unicode hex="01A2"/>
  <outline>
    <contour>
      <point x="382" y="-14" type="curve" smooth="yes"/>
      <point x="563" y="-14"/>
      <point x="714" y="110"/>
      <point x="714" y="347" type="curve" smooth="yes"/>
      <point x="714" y="427"/>
      <point x="697" y="492"/>
      <point x="666" y="547" type="curve"/>
      <point x="691" y="564"/>
      <point x="717" y="573"/>
      <point x="744" y="573" type="curve" smooth="yes"/>
      <point x="808" y="573"/>
      <point x="838" y="544"/>
      <point x="838" y="425" type="curve" smooth="yes"/>
      <point x="838" y="0" type="line"/>
      <point x="994" y="0" type="line"/>
      <point x="994" y="428" type="line" smooth="yes"/>
      <point x="994" y="593"/>
      <point x="960" y="709"/>
      <point x="760" y="709" type="curve" smooth="yes"/>
      <point x="689" y="709"/>
      <point x="633" y="688"/>
      <point x="580" y="645" type="curve"/>
      <point x="524" y="688"/>
      <point x="454" y="709"/>
      <point x="382" y="709" type="curve" smooth="yes"/>
      <point x="213" y="709"/>
      <point x="50" y="584"/>
      <point x="50" y="347" type="curve" smooth="yes"/>
      <point x="50" y="110"/>
      <point x="207" y="-14"/>
    </contour>
    <contour>
      <point x="382" y="123" type="curve" smooth="yes"/>
      <point x="281" y="123"/>
      <point x="211" y="212"/>
      <point x="211" y="347" type="curve" smooth="yes"/>
      <point x="211" y="480"/>
      <point x="281" y="572"/>
      <point x="382" y="572" type="curve" smooth="yes"/>
      <point x="483" y="572"/>
      <point x="553" y="483"/>
      <point x="553" y="347" type="curve" smooth="yes"/>
      <point x="553" y="212"/>
      <point x="483" y="123"/>
    </contour>
  </outline>
</glyph>
<glyph name="Yr" format="2">
  <advance width="667"/>
  <unicode hex="01A6"/>
  <unicode hex="0280"/>
  <outline>
    <contour>
      <point x="525" y="-108" type="curve"/>
      <point x="700" y="-108" type="line"/>
      <point x="652" y="6"/>
      <point x="531" y="213"/>
      <point x="475" y="283" type="curve"/>
      <point x="559" y="318"/>
      <point x="605" y="376"/>
      <point x="605" y="473" type="curve" smooth="yes"/>
      <point x="605" y="622"/>
      <point x="495" y="700"/>
      <point x="296" y="700" type="curve" smooth="yes"/>
      <point x="281" y="700"/>
      <point x="252" y="699"/>
      <point x="235" y="698" type="curve"/>
      <point x="235" y="776" type="line"/>
      <point x="80" y="776" type="line"/>
      <point x="80" y="0" type="line"/>
      <point x="236" y="0" type="line"/>
      <point x="236" y="253" type="line"/>
      <point x="298" y="253" type="line"/>
      <point x="303" y="253"/>
      <point x="308" y="253"/>
      <point x="313" y="253" type="curve"/>
      <point x="367" y="189"/>
      <point x="475" y="4"/>
    </contour>
    <contour>
      <point x="236" y="377" type="line"/>
      <point x="236" y="565" type="line"/>
      <point x="252" y="566"/>
      <point x="269" y="568"/>
      <point x="292" y="568" type="curve" smooth="yes"/>
      <point x="392" y="568"/>
      <point x="444" y="542"/>
      <point x="444" y="474" type="curve" smooth="yes"/>
      <point x="444" y="403"/>
      <point x="397" y="377"/>
      <point x="280" y="377" type="curve" smooth="yes"/>
    </contour>
  </outline>
</glyph>
<glyph name="tonetwo" format="2">
  <advance width="485"/>
  <unicode hex="01A8"/>
  <outline>
    <contour>
      <point x="264" y="-14" type="curve" smooth="yes"/>
      <point x="357" y="-14"/>
      <point x="421" y="7"/>
      <point x="445" y="18" type="curve"/>
      <point x="420" y="139" type="line"/>
      <point x="369" y="119"/>
      <point x="315" y="107"/>
      <point x="263" y="107" type="curve" smooth="yes"/>
      <point x="208" y="107"/>
      <point x="188" y="115"/>
      <point x="188" y="146" type="curve" smooth="yes"/>
      <point x="188" y="170"/>
      <point x="217" y="185"/>
      <point x="277" y="208" type="curve" smooth="yes"/>
      <point x="370" y="243"/>
      <point x="431" y="278"/>
      <point x="431" y="380" type="curve" smooth="yes"/>
      <point x="431" y="479"/>
      <point x="353" y="540"/>
      <point x="225" y="540" type="curve" smooth="yes"/>
      <point x="161" y="540"/>
      <point x="98" y="526"/>
      <point x="63" y="513" type="curve"/>
      <point x="89" y="397" type="line"/>
      <point x="124" y="409"/>
      <point x="163" y="420"/>
      <point x="214" y="420" type="curve" smooth="yes"/>
      <point x="261" y="420"/>
      <point x="284" y="407"/>
      <point x="284" y="381" type="curve" smooth="yes"/>
      <point x="284" y="358"/>
      <point x="270" y="345"/>
      <point x="205" y="321" type="curve" smooth="yes"/>
      <point x="74" y="273"/>
      <point x="40" y="232"/>
      <point x="40" y="144" type="curve" smooth="yes"/>
      <point x="40" y="40"/>
      <point x="121" y="-14"/>
    </contour>
  </outline>
</glyph>
<glyph name="uni01AC" format="2">
  <advance width="654"/>
  <unicode hex="01AC"/>
  <anchor x="327" y="0" name="bottom"/>
  <anchor x="327" y="693" name="top"/>
  <outline>
    <contour>
      <point x="269" y="0" type="line"/>
      <point x="425" y="0" type="line"/>
      <point x="425" y="560" type="line"/>
      <point x="634" y="560" type="line"/>
      <point x="634" y="693" type="line"/>
      <point x="353" y="693" type="line" smooth="yes"/>
      <point x="205" y="693"/>
      <point x="15" y="698"/>
      <point x="15" y="518" type="curve" smooth="yes"/>
      <point x="15" y="493"/>
      <point x="22" y="460"/>
      <point x="27" y="441" type="curve"/>
      <point x="147" y="457" type="line"/>
      <point x="142" y="478"/>
      <point x="142" y="494"/>
      <point x="142" y="501" type="curve" smooth="yes"/>
      <point x="142" y="532"/>
      <point x="160" y="560"/>
      <point x="215" y="560" type="curve" smooth="yes"/>
      <point x="269" y="560" type="line"/>
    </contour>
  </outline>
</glyph>
<glyph name="Tretroflexhook" format="2">
  <advance width="614"/>
  <unicode hex="01AE"/>
  <unicode hex="0288"/>
  <anchor x="307" y="0" name="bottom"/>
  <anchor x="307" y="693" name="top"/>
  <outline>
    <contour>
      <point x="426" y="-187" type="curve" smooth="yes"/>
      <point x="445" y="-187"/>
      <point x="481" y="-185"/>
      <point x="513" y="-174" type="curve"/>
      <point x="493" y="-53" type="line"/>
      <point x="473" y="-60"/>
      <point x="465" y="-61"/>
      <point x="440" y="-61" type="curve" smooth="yes"/>
      <point x="399" y="-61"/>
      <point x="385" y="-32"/>
      <point x="385" y="21" type="curve" smooth="yes"/>
      <point x="385" y="560" type="line"/>
      <point x="594" y="560" type="line"/>
      <point x="594" y="693" type="line"/>
      <point x="20" y="693" type="line"/>
      <point x="20" y="560" type="line"/>
      <point x="229" y="560" type="line"/>
      <point x="229" y="17" type="line" smooth="yes"/>
      <point x="229" y="-122"/>
      <point x="289" y="-187"/>
    </contour>
  </outline>
</glyph>
<glyph name="Upsilon-latin" format="2">
  <advance width="773"/>
  <unicode hex="01B1"/>
  <unicode hex="028A"/>
  <anchor x="387" y="0" name="bottom"/>
  <anchor x="387" y="693" name="top"/>
  <outline>
    <contour>
      <point x="387" y="-14" type="curve" smooth="yes"/>
      <point x="579" y="-14"/>
      <point x="723" y="103"/>
      <point x="723" y="315" type="curve" smooth="yes"/>
      <point x="723" y="410"/>
      <point x="688" y="493"/>
      <point x="619" y="564" type="curve"/>
      <point x="738" y="564" type="line"/>
      <point x="738" y="693" type="line"/>
      <point x="435" y="693" type="line"/>
      <point x="435" y="577" type="line"/>
      <point x="504" y="516"/>
      <point x="562" y="443"/>
      <point x="562" y="320" type="curve" smooth="yes"/>
      <point x="562" y="191"/>
      <point x="495" y="121"/>
      <point x="387" y="121" type="curve" smooth="yes"/>
      <point x="279" y="121"/>
      <point x="212" y="191"/>
      <point x="212" y="320" type="curve" smooth="yes"/>
      <point x="212" y="444"/>
      <point x="269" y="516"/>
      <point x="338" y="577" type="curve"/>
      <point x="338" y="693" type="line"/>
      <point x="35" y="693" type="line"/>
      <point x="35" y="564" type="line"/>
      <point x="154" y="564" type="line"/>
      <point x="86" y="493"/>
      <point x="51" y="411"/>
      <point x="51" y="315" type="curve" smooth="yes"/>
      <point x="51" y="103"/>
      <point x="195" y="-14"/>
    </contour>
  </outline>
</glyph>
<glyph name="Vhook" format="2">
  <advance width="724"/>
  <unicode hex="01B2"/>
  <unicode hex="028B"/>
  <anchor x="362" y="0" name="bottom"/>
  <anchor x="362" y="693" name="top"/>
  <outline>
    <contour>
      <point x="353" y="-14" type="curve" smooth="yes"/>
      <point x="549" y="-14"/>
      <point x="674" y="107"/>
      <point x="674" y="344" type="curve" smooth="yes"/>
      <point x="674" y="583"/>
      <point x="597" y="701"/>
      <point x="414" y="701" type="curve" smooth="yes"/>
      <point x="393" y="701"/>
      <point x="357" y="697"/>
      <point x="336" y="692" type="curve"/>
      <point x="350" y="562" type="line"/>
      <point x="364" y="566"/>
      <point x="379" y="568"/>
      <point x="394" y="568" type="curve" smooth="yes"/>
      <point x="495" y="568"/>
      <point x="513" y="487"/>
      <point x="513" y="344" type="curve" smooth="yes"/>
      <point x="513" y="209"/>
      <point x="471" y="121"/>
      <point x="355" y="121" type="curve" smooth="yes"/>
      <point x="286" y="121"/>
      <point x="226" y="162"/>
      <point x="226" y="285" type="curve" smooth="yes"/>
      <point x="226" y="693" type="line"/>
      <point x="70" y="693" type="line"/>
      <point x="70" y="272" type="line" smooth="yes"/>
      <point x="70" y="100"/>
      <point x="164" y="-14"/>
    </contour>
  </outline>
</glyph>
<glyph name="zstroke" format="2">
  <advance width="500"/>
  <unicode hex="01B6"/>
  <outline>
    <contour>
      <point x="35" y="0" type="line"/>
      <point x="470" y="0" type="line"/>
      <point x="470" y="119" type="line"/>
      <point x="206" y="119" type="line"/>
      <point x="229" y="151"/>
      <point x="255" y="187"/>
      <point x="283" y="222" type="curve"/>
      <point x="445" y="222" type="line"/>
      <point x="445" y="310" type="line"/>
      <point x="358" y="310" type="line"/>
      <point x="402" y="361"/>
      <point x="442" y="407"/>
      <point x="465" y="431" type="curve"/>
      <point x="465" y="526" type="line"/>
      <point x="47" y="526" type="line"/>
      <point x="47" y="407" type="line"/>
      <point x="281" y="407" type="line"/>
      <point x="258" y="380"/>
      <point x="231" y="345"/>
      <point x="202" y="310" type="curve"/>
      <point x="67" y="310" type="line"/>
      <point x="67" y="222" type="line"/>
      <point x="131" y="222" type="line"/>
      <point x="92" y="171"/>
      <point x="58" y="123"/>
      <point x="35" y="83" type="curve"/>
    </contour>
  </outline>
</glyph>
<glyph name="Ezh" format="2">
  <advance width="614"/>
  <unicode hex="01B7"/>
  <anchor x="307" y="0" name="bottom"/>
  <anchor x="295" y="685" name="top"/>
  <outline>
    <contour>
      <point x="259" y="-15" type="curve" smooth="yes"/>
      <point x="439" y="-15"/>
      <point x="559" y="53"/>
      <point x="559" y="205" type="curve" smooth="yes"/>
      <point x="559" y="313"/>
      <point x="505" y="378"/>
      <point x="362" y="403" type="curve"/>
      <point x="423" y="466"/>
      <point x="509" y="559"/>
      <point x="541" y="600" type="curve"/>
      <point x="541" y="693" type="line"/>
      <point x="56" y="693" type="line"/>
      <point x="56" y="563" type="line"/>
      <point x="339" y="563" type="line"/>
      <point x="300" y="516"/>
      <point x="228" y="442"/>
      <point x="178" y="392" type="curve"/>
      <point x="178" y="306" type="line"/>
      <point x="227" y="306" type="line" smooth="yes"/>
      <point x="328" y="306"/>
      <point x="398" y="284"/>
      <point x="398" y="207" type="curve" smooth="yes"/>
      <point x="398" y="143"/>
      <point x="346" y="118"/>
      <point x="258" y="118" type="curve" smooth="yes"/>
      <point x="181" y="118"/>
      <point x="110" y="146"/>
      <point x="66" y="169" type="curve"/>
      <point x="20" y="45" type="line"/>
      <point x="58" y="24"/>
      <point x="148" y="-15"/>
    </contour>
  </outline>
</glyph>
<glyph name="ezhreversed" format="2">
  <advance width="515"/>
  <unicode hex="01B9"/>
  <anchor x="258" y="0" name="bottom"/>
  <anchor x="258" y="526" name="top"/>
  <outline>
    <contour>
      <point x="305" y="-185" type="curve" smooth="yes"/>
      <point x="380" y="-185"/>
      <point x="464" y="-167"/>
      <point x="510" y="-145" type="curve"/>
      <point x="477" y="-26" type="line"/>
      <point x="434" y="-45"/>
      <point x="367" y="-57"/>
      <point x="315" y="-57" type="curve" smooth="yes"/>
      <point x="232" y="-57"/>
      <point x="190" y="-20"/>
      <point x="190" y="41" type="curve" smooth="yes"/>
      <point x="190" y="110"/>
      <point x="242" y="143"/>
      <point x="337" y="143" type="curve" smooth="yes"/>
      <point x="391" y="143" type="line"/>
      <point x="391" y="230" type="line"/>
      <point x="346" y="278"/>
      <point x="287" y="354"/>
      <point x="250" y="402" type="curve"/>
      <point x="484" y="402" type="line"/>
      <point x="484" y="526" type="line"/>
      <point x="61" y="526" type="line"/>
      <point x="61" y="424" type="line"/>
      <point x="94" y="381"/>
      <point x="153" y="311"/>
      <point x="212" y="240" type="curve"/>
      <point x="116" y="213"/>
      <point x="40" y="147"/>
      <point x="40" y="35" type="curve" smooth="yes"/>
      <point x="40" y="-112"/>
      <point x="140" y="-185"/>
    </contour>
  </outline>
</glyph>
<glyph name="twostroke" format="2">
  <advance width="565"/>
  <unicode hex="01BB"/>
  <anchor x="283" y="0" name="bottom"/>
  <anchor x="283" y="776" name="top"/>
  <outline>
    <contour>
      <point x="40" y="0" type="curve"/>
      <point x="520" y="0" type="line"/>
      <point x="520" y="125" type="line"/>
      <point x="205" y="125" type="line"/>
      <point x="213" y="152"/>
      <point x="284" y="217"/>
      <point x="337" y="268" type="curve"/>
      <point x="513" y="268" type="line"/>
      <point x="513" y="378" type="line"/>
      <point x="434" y="378" type="line"/>
      <point x="473" y="422"/>
      <point x="499" y="460"/>
      <point x="499" y="511" type="curve" smooth="yes"/>
      <point x="499" y="633"/>
      <point x="426" y="709"/>
      <point x="258" y="709" type="curve" smooth="yes"/>
      <point x="162" y="709"/>
      <point x="79" y="670"/>
      <point x="20" y="615" type="curve"/>
      <point x="94" y="511" type="line"/>
      <point x="123" y="537"/>
      <point x="178" y="581"/>
      <point x="252" y="581" type="curve" smooth="yes"/>
      <point x="307" y="581"/>
      <point x="346" y="560"/>
      <point x="346" y="501" type="curve" smooth="yes"/>
      <point x="346" y="460"/>
      <point x="302" y="421"/>
      <point x="259" y="378" type="curve"/>
      <point x="62" y="378" type="line"/>
      <point x="62" y="268" type="line"/>
      <point x="153" y="268" type="line"/>
      <point x="89" y="204"/>
      <point x="38" y="148"/>
      <point x="38" y="51" type="curve" smooth="yes"/>
      <point x="38" y="42"/>
      <point x="37" y="15"/>
    </contour>
  </outline>
</glyph>
<glyph name="uni01BD" format="2">
  <advance width="512"/>
  <unicode hex="01BD"/>
  <anchor x="256" y="0" name="bottom"/>
  <anchor x="256" y="526" name="top"/>
  <outline>
    <contour>
      <point x="223" y="-14" type="curve" smooth="yes"/>
      <point x="383" y="-14"/>
      <point x="467" y="48"/>
      <point x="467" y="161" type="curve" smooth="yes"/>
      <point x="467" y="277"/>
      <point x="383" y="332"/>
      <point x="242" y="332" type="curve" smooth="yes"/>
      <point x="210" y="332" type="line"/>
      <point x="213" y="355"/>
      <point x="216" y="383"/>
      <point x="217" y="406" type="curve"/>
      <point x="447" y="406" type="line"/>
      <point x="447" y="526" type="line"/>
      <point x="10" y="526" type="line"/>
      <point x="10" y="406" type="line"/>
      <point x="84" y="406" type="line"/>
      <point x="80" y="349"/>
      <point x="73" y="291"/>
      <point x="66" y="226" type="curve"/>
      <point x="147" y="226" type="line" smooth="yes"/>
      <point x="288" y="226"/>
      <point x="319" y="211"/>
      <point x="319" y="163" type="curve" smooth="yes"/>
      <point x="319" y="129"/>
      <point x="286" y="112"/>
      <point x="220" y="112" type="curve" smooth="yes"/>
      <point x="147" y="112"/>
      <point x="85" y="131"/>
      <point x="60" y="139" type="curve"/>
      <point x="35" y="15" type="line"/>
      <point x="60" y="4"/>
      <point x="132" y="-14"/>
    </contour>
  </outline>
</glyph>
<glyph name="glottalinvertedstroke" format="2">
  <advance width="489"/>
  <unicode hex="01BE"/>
  <anchor x="245" y="0" name="bottom"/>
  <anchor x="245" y="526" name="top"/>
  <outline>
    <contour>
      <point x="220" y="-14" type="curve" smooth="yes"/>
      <point x="363" y="-14"/>
      <point x="444" y="40"/>
      <point x="444" y="144" type="curve" smooth="yes"/>
      <point x="444" y="251"/>
      <point x="383" y="281"/>
      <point x="282" y="318" type="curve" smooth="yes"/>
      <point x="227" y="338"/>
      <point x="210" y="355"/>
      <point x="210" y="390" type="curve" smooth="yes"/>
      <point x="210" y="404" type="line"/>
      <point x="389" y="404" type="line"/>
      <point x="389" y="526" type="line"/>
      <point x="210" y="526" type="line"/>
      <point x="210" y="681" type="line"/>
      <point x="61" y="657" type="line"/>
      <point x="61" y="391" type="line" smooth="yes"/>
      <point x="61" y="271"/>
      <point x="123" y="240"/>
      <point x="211" y="208" type="curve" smooth="yes"/>
      <point x="275" y="184"/>
      <point x="296" y="171"/>
      <point x="296" y="146" type="curve" smooth="yes"/>
      <point x="296" y="115"/>
      <point x="276" y="107"/>
      <point x="221" y="107" type="curve" smooth="yes"/>
      <point x="169" y="107"/>
      <point x="115" y="119"/>
      <point x="64" y="139" type="curve"/>
      <point x="39" y="18" type="line"/>
      <point x="63" y="7"/>
      <point x="127" y="-14"/>
    </contour>
  </outline>
</glyph>
<glyph name="wynn" format="2">
  <advance width="588"/>
  <unicode hex="01BF"/>
  <outline>
    <contour>
      <point x="70" y="-185" type="line"/>
      <point x="219" y="-185" type="line"/>
      <point x="219" y="-46" type="line"/>
      <point x="396" y="18"/>
      <point x="543" y="103"/>
      <point x="543" y="302" type="curve" smooth="yes"/>
      <point x="543" y="448"/>
      <point x="444" y="538"/>
      <point x="285" y="538" type="curve" smooth="yes"/>
      <point x="197" y="538"/>
      <point x="118" y="515"/>
      <point x="70" y="496" type="curve"/>
    </contour>
    <contour>
      <point x="219" y="88" type="curve"/>
      <point x="219" y="402" type="line"/>
      <point x="235" y="406"/>
      <point x="256" y="410"/>
      <point x="284" y="410" type="curve" smooth="yes"/>
      <point x="351" y="410"/>
      <point x="391" y="369"/>
      <point x="391" y="304" type="curve" smooth="yes"/>
      <point x="391" y="190"/>
      <point x="335" y="136"/>
    </contour>
  </outline>
</glyph>
<glyph name="eturned" format="2">
  <advance width="584"/>
  <unicode hex="01DD"/>
  <anchor x="287" y="526" name="top"/>
  <outline>
    <contour>
      <point x="287" y="-14" type="curve" smooth="yes"/>
      <point x="415" y="-14"/>
      <point x="539" y="80"/>
      <point x="539" y="267" type="curve" smooth="yes"/>
      <point x="539" y="422"/>
      <point x="451" y="540"/>
      <point x="261" y="540" type="curve" smooth="yes"/>
      <point x="186" y="540"/>
      <point x="108" y="523"/>
      <point x="76" y="507" type="curve"/>
      <point x="96" y="386" type="line"/>
      <point x="129" y="401"/>
      <point x="186" y="412"/>
      <point x="241" y="412" type="curve" smooth="yes"/>
      <point x="326" y="412"/>
      <point x="379" y="373"/>
      <point x="386" y="312" type="curve"/>
      <point x="48" y="312" type="line"/>
      <point x="47" y="296"/>
      <point x="45" y="273"/>
      <point x="45" y="256" type="curve" smooth="yes"/>
      <point x="45" y="79"/>
      <point x="138" y="-14"/>
    </contour>
    <contour>
      <point x="285" y="109" type="curve" smooth="yes"/>
      <point x="216" y="109"/>
      <point x="192" y="159"/>
      <point x="189" y="210" type="curve"/>
      <point x="386" y="210" type="line"/>
      <point x="378" y="158"/>
      <point x="352" y="109"/>
    </contour>
  </outline>
</glyph>
<glyph name="uni01EA" format="2">
  <advance width="790"/>
  <unicode hex="01EA"/>
  <anchor x="395" y="685" name="top"/>
  <outline>
    <contour>
      <point x="449" y="-221" type="curve" smooth="yes"/>
      <point x="480" y="-221"/>
      <point x="521" y="-216"/>
      <point x="548" y="-205" type="curve"/>
      <point x="536" y="-105" type="line"/>
      <point x="513" y="-112"/>
      <point x="497" y="-113"/>
      <point x="485" y="-113" type="curve" smooth="yes"/>
      <point x="462" y="-113"/>
      <point x="455" y="-103"/>
      <point x="455" y="-88" type="curve" smooth="yes"/>
      <point x="455" y="-73"/>
      <point x="466" y="-58"/>
      <point x="483" y="-41" type="curve" smooth="yes"/>
      <point x="522" y="1"/>
      <point x="565" y="20"/>
      <point x="608" y="52" type="curve" smooth="yes"/>
      <point x="692" y="116"/>
      <point x="740" y="208"/>
      <point x="740" y="347" type="curve" smooth="yes"/>
      <point x="740" y="584"/>
      <point x="585" y="709"/>
      <point x="395" y="709" type="curve" smooth="yes"/>
      <point x="211" y="709"/>
      <point x="50" y="584"/>
      <point x="50" y="347" type="curve" smooth="yes"/>
      <point x="50" y="110"/>
      <point x="203" y="-11"/>
      <point x="391" y="-14" type="curve"/>
      <point x="380" y="-23"/>
      <point x="368" y="-35"/>
      <point x="357" y="-50" type="curve" smooth="yes"/>
      <point x="337" y="-75"/>
      <point x="324" y="-102"/>
      <point x="324" y="-130" type="curve" smooth="yes"/>
      <point x="324" y="-185"/>
      <point x="360" y="-221"/>
    </contour>
    <contour>
      <point x="395" y="123" type="curve" smooth="yes"/>
      <point x="279" y="123"/>
      <point x="211" y="212"/>
      <point x="211" y="347" type="curve" smooth="yes"/>
      <point x="211" y="480"/>
      <point x="279" y="572"/>
      <point x="395" y="572" type="curve" smooth="yes"/>
      <point x="511" y="572"/>
      <point x="579" y="483"/>
      <point x="579" y="347" type="curve" smooth="yes"/>
      <point x="579" y="212"/>
      <point x="511" y="123"/>
    </contour>
  </outline>
</glyph>
<glyph name="uni01EB" format="2">
  <advance width="607"/>
  <unicode hex="01EB"/>
  <anchor x="304" y="526" name="top"/>
  <outline>
    <contour>
      <point x="333" y="-221" type="curve" smooth="yes"/>
      <point x="364" y="-221"/>
      <point x="405" y="-216"/>
      <point x="432" y="-205" type="curve"/>
      <point x="420" y="-105" type="line"/>
      <point x="397" y="-112"/>
      <point x="381" y="-113"/>
      <point x="369" y="-113" type="curve" smooth="yes"/>
      <point x="346" y="-113"/>
      <point x="339" y="-103"/>
      <point x="339" y="-88" type="curve" smooth="yes"/>
      <point x="339" y="-73"/>
      <point x="350" y="-58"/>
      <point x="367" y="-41" type="curve" smooth="yes"/>
      <point x="394" y="-14"/>
      <point x="416" y="6"/>
      <point x="441" y="21" type="curve" smooth="yes"/>
      <point x="517" y="68"/>
      <point x="562" y="152"/>
      <point x="562" y="264" type="curve" smooth="yes"/>
      <point x="562" y="429"/>
      <point x="456" y="540"/>
      <point x="304" y="540" type="curve" smooth="yes"/>
      <point x="155" y="540"/>
      <point x="45" y="429"/>
      <point x="45" y="264" type="curve" smooth="yes"/>
      <point x="45" y="110"/>
      <point x="135" y="1"/>
      <point x="273" y="-12" type="curve" smooth="yes"/>
      <point x="275" y="-12"/>
      <point x="276" y="-12"/>
      <point x="277" y="-12" type="curve"/>
      <point x="243" y="-43"/>
      <point x="208" y="-84"/>
      <point x="208" y="-130" type="curve" smooth="yes"/>
      <point x="208" y="-185"/>
      <point x="244" y="-221"/>
    </contour>
    <contour>
      <point x="304" y="114" type="curve" smooth="yes"/>
      <point x="236" y="114"/>
      <point x="197" y="172"/>
      <point x="197" y="264" type="curve" smooth="yes"/>
      <point x="197" y="356"/>
      <point x="236" y="412"/>
      <point x="304" y="412" type="curve" smooth="yes"/>
      <point x="372" y="412"/>
      <point x="410" y="356"/>
      <point x="410" y="264" type="curve" smooth="yes"/>
      <point x="410" y="172"/>
      <point x="372" y="114"/>
    </contour>
  </outline>
</glyph>
<glyph name="Aringacute" format="2">
  <advance width="721"/>
  <unicode hex="01FA"/>
  <outline>
    <contour>
      <point x="10" y="0" type="curve"/>
      <point x="172" y="0" type="line"/>
      <point x="187" y="48"/>
      <point x="206" y="99"/>
      <point x="223" y="150" type="curve"/>
      <point x="493" y="150" type="line"/>
      <point x="510" y="99"/>
      <point x="529" y="48"/>
      <point x="544" y="0" type="curve"/>
      <point x="711" y="0" type="line"/>
      <point x="612" y="281"/>
      <point x="536" y="477"/>
      <point x="450" y="661" type="curve"/>
      <point x="457" y="676"/>
      <point x="462" y="691"/>
      <point x="462" y="711" type="curve" smooth="yes"/>
      <point x="462" y="778"/>
      <point x="413" y="813"/>
      <point x="357" y="813" type="curve" smooth="yes"/>
      <point x="302" y="813"/>
      <point x="254" y="778"/>
      <point x="254" y="711" type="curve" smooth="yes"/>
      <point x="254" y="690"/>
      <point x="259" y="671"/>
      <point x="268" y="656" type="curve"/>
      <point x="183" y="474"/>
      <point x="106" y="280"/>
    </contour>
    <contour>
      <point x="259" y="274" type="line"/>
      <point x="302" y="394"/>
      <point x="344" y="496"/>
      <point x="357" y="536" type="curve"/>
      <point x="373" y="496"/>
      <point x="413" y="394"/>
      <point x="456" y="274" type="curve"/>
    </contour>
    <contour>
      <point x="357" y="674" type="curve" smooth="yes"/>
      <point x="340" y="674"/>
      <point x="321" y="687"/>
      <point x="321" y="711" type="curve" smooth="yes"/>
      <point x="321" y="735"/>
      <point x="340" y="749"/>
      <point x="357" y="749" type="curve" smooth="yes"/>
      <point x="376" y="749"/>
      <point x="394" y="735"/>
      <point x="394" y="711" type="curve" smooth="yes"/>
      <point x="394" y="687"/>
      <point x="376" y="674"/>
    </contour>
    <contour>
      <point x="287" y="818" type="line"/>
      <point x="456" y="882" type="line"/>
      <point x="417" y="962" type="line"/>
      <point x="255" y="878" type="line"/>
    </contour>
  </outline>
</glyph>
<glyph name="Yogh" format="2">
  <advance width="568"/>
  <unicode hex="021C"/>
  <outline>
    <contour>
      <point x="113" y="-186" type="curve" smooth="yes"/>
      <point x="328" y="-186"/>
      <point x="517" y="-113"/>
      <point x="517" y="105" type="curve" smooth="yes"/>
      <point x="517" y="188"/>
      <point x="474" y="268"/>
      <point x="386" y="309" type="curve"/>
      <point x="454" y="350"/>
      <point x="489" y="413"/>
      <point x="489" y="481" type="curve" smooth="yes"/>
      <point x="489" y="642"/>
      <point x="374" y="709"/>
      <point x="220" y="709" type="curve" smooth="yes"/>
      <point x="143" y="709"/>
      <point x="72" y="691"/>
      <point x="15" y="663" type="curve"/>
      <point x="66" y="539" type="line"/>
      <point x="106" y="559"/>
      <point x="163" y="574"/>
      <point x="215" y="574" type="curve" smooth="yes"/>
      <point x="283" y="574"/>
      <point x="329" y="540"/>
      <point x="329" y="476" type="curve" smooth="yes"/>
      <point x="329" y="400"/>
      <point x="264" y="363"/>
      <point x="168" y="363" type="curve" smooth="yes"/>
      <point x="111" y="363" type="line"/>
      <point x="111" y="232" type="line"/>
      <point x="176" y="232" type="line" smooth="yes"/>
      <point x="267" y="232"/>
      <point x="356" y="200"/>
      <point x="356" y="99" type="curve" smooth="yes"/>
      <point x="356" y="-18"/>
      <point x="238" y="-49"/>
      <point x="110" y="-49" type="curve" smooth="yes"/>
      <point x="94" y="-49"/>
      <point x="52" y="-48"/>
      <point x="26" y="-45" type="curve"/>
      <point x="16" y="-181" type="line"/>
      <point x="48" y="-186"/>
      <point x="97" y="-186"/>
    </contour>
  </outline>
</glyph>
<glyph name="OU" format="2">
  <advance width="712"/>
  <unicode hex="0222"/>
  <outline>
    <contour>
      <point x="356" y="-14" type="curve" smooth="yes"/>
      <point x="572" y="-14"/>
      <point x="662" y="67"/>
      <point x="662" y="203" type="curve" smooth="yes"/>
      <point x="662" y="268"/>
      <point x="636" y="334"/>
      <point x="543" y="379" type="curve"/>
      <point x="608" y="417"/>
      <point x="617" y="487"/>
      <point x="617" y="538" type="curve" smooth="yes"/>
      <point x="617" y="598"/>
      <point x="610" y="638"/>
      <point x="597" y="693" type="curve"/>
      <point x="446" y="693" type="line"/>
      <point x="459" y="627"/>
      <point x="461" y="599"/>
      <point x="461" y="546" type="curve" smooth="yes"/>
      <point x="461" y="481"/>
      <point x="431" y="433"/>
      <point x="356" y="433" type="curve" smooth="yes"/>
      <point x="281" y="433"/>
      <point x="251" y="481"/>
      <point x="251" y="546" type="curve" smooth="yes"/>
      <point x="251" y="599"/>
      <point x="253" y="627"/>
      <point x="266" y="693" type="curve"/>
      <point x="115" y="693" type="line"/>
      <point x="100" y="638"/>
      <point x="95" y="598"/>
      <point x="95" y="538" type="curve" smooth="yes"/>
      <point x="95" y="487"/>
      <point x="104" y="417"/>
      <point x="169" y="379" type="curve"/>
      <point x="76" y="334"/>
      <point x="50" y="268"/>
      <point x="50" y="203" type="curve" smooth="yes"/>
      <point x="50" y="67"/>
      <point x="140" y="-14"/>
    </contour>
    <contour>
      <point x="356" y="115" type="curve" smooth="yes"/>
      <point x="279" y="115"/>
      <point x="210" y="144"/>
      <point x="210" y="211" type="curve" smooth="yes"/>
      <point x="210" y="278"/>
      <point x="271" y="306"/>
      <point x="356" y="306" type="curve" smooth="yes"/>
      <point x="441" y="306"/>
      <point x="502" y="278"/>
      <point x="502" y="211" type="curve" smooth="yes"/>
      <point x="502" y="144"/>
      <point x="433" y="115"/>
    </contour>
  </outline>
</glyph>
<glyph name="ou" format="2">
  <advance width="598"/>
  <unicode hex="0223"/>
  <outline>
    <contour>
      <point x="299" y="-14" type="curve" smooth="yes"/>
      <point x="451" y="-14"/>
      <point x="558" y="80"/>
      <point x="558" y="230" type="curve" smooth="yes"/>
      <point x="558" y="315"/>
      <point x="521" y="395"/>
      <point x="438" y="435" type="curve"/>
      <point x="506" y="472"/>
      <point x="528" y="529"/>
      <point x="528" y="612" type="curve" smooth="yes"/>
      <point x="528" y="669"/>
      <point x="522" y="723"/>
      <point x="511" y="776" type="curve"/>
      <point x="371" y="776" type="line"/>
      <point x="380" y="713"/>
      <point x="382" y="649"/>
      <point x="382" y="610" type="curve" smooth="yes"/>
      <point x="382" y="531"/>
      <point x="351" y="489"/>
      <point x="299" y="489" type="curve" smooth="yes"/>
      <point x="247" y="489"/>
      <point x="216" y="531"/>
      <point x="216" y="610" type="curve" smooth="yes"/>
      <point x="216" y="649"/>
      <point x="218" y="713"/>
      <point x="227" y="776" type="curve"/>
      <point x="87" y="776" type="line"/>
      <point x="76" y="723"/>
      <point x="70" y="669"/>
      <point x="70" y="612" type="curve" smooth="yes"/>
      <point x="70" y="529"/>
      <point x="92" y="472"/>
      <point x="160" y="435" type="curve"/>
      <point x="77" y="395"/>
      <point x="40" y="315"/>
      <point x="40" y="230" type="curve" smooth="yes"/>
      <point x="40" y="80"/>
      <point x="147" y="-14"/>
    </contour>
    <contour>
      <point x="299" y="114" type="curve" smooth="yes"/>
      <point x="234" y="114"/>
      <point x="192" y="157"/>
      <point x="192" y="236" type="curve" smooth="yes"/>
      <point x="192" y="312"/>
      <point x="234" y="361"/>
      <point x="299" y="361" type="curve" smooth="yes"/>
      <point x="364" y="361"/>
      <point x="406" y="312"/>
      <point x="406" y="236" type="curve" smooth="yes"/>
      <point x="406" y="157"/>
      <point x="364" y="114"/>
    </contour>
  </outline>
</glyph>
<glyph name="Zhook" format="2">
  <advance width="610"/>
  <unicode hex="0224"/>
  <outline>
    <contour>
      <point x="390" y="-187" type="curve" smooth="yes"/>
      <point x="522" y="-187"/>
      <point x="580" y="-122"/>
      <point x="580" y="17" type="curve" smooth="yes"/>
      <point x="580" y="131" type="line"/>
      <point x="227" y="131" type="line"/>
      <point x="323" y="291"/>
      <point x="484" y="497"/>
      <point x="569" y="585" type="curve"/>
      <point x="569" y="693" type="line"/>
      <point x="51" y="693" type="line"/>
      <point x="51" y="562" type="line"/>
      <point x="362" y="562" type="line"/>
      <point x="258" y="437"/>
      <point x="111" y="231"/>
      <point x="35" y="93" type="curve"/>
      <point x="35" y="0" type="line"/>
      <point x="435" y="0" type="line"/>
      <point x="435" y="0" type="line"/>
      <point x="435" y="-45"/>
      <point x="416" y="-67"/>
      <point x="378" y="-67" type="curve" smooth="yes"/>
      <point x="351" y="-67"/>
      <point x="344" y="-66"/>
      <point x="323" y="-59" type="curve"/>
      <point x="303" y="-174" type="line"/>
      <point x="335" y="-185"/>
      <point x="371" y="-187"/>
    </contour>
  </outline>
</glyph>
<glyph name="zhook" format="2">
  <advance width="500"/>
  <unicode hex="0225"/>
  <outline>
    <contour>
      <point x="301" y="-185" type="curve" smooth="yes"/>
      <point x="408" y="-185"/>
      <point x="470" y="-131"/>
      <point x="470" y="-22" type="curve" smooth="yes"/>
      <point x="470" y="124" type="line"/>
      <point x="216" y="124" type="line"/>
      <point x="293" y="236"/>
      <point x="417" y="372"/>
      <point x="465" y="426" type="curve"/>
      <point x="465" y="526" type="line"/>
      <point x="47" y="526" type="line"/>
      <point x="47" y="402" type="line"/>
      <point x="271" y="402" type="line"/>
      <point x="200" y="317"/>
      <point x="91" y="184"/>
      <point x="35" y="88" type="curve"/>
      <point x="35" y="0" type="line"/>
      <point x="346" y="0" type="line"/>
      <point x="346" y="-24" type="line" smooth="yes"/>
      <point x="346" y="-59"/>
      <point x="323" y="-74"/>
      <point x="288" y="-74" type="curve" smooth="yes"/>
      <point x="264" y="-74"/>
      <point x="251" y="-73"/>
      <point x="232" y="-66" type="curve"/>
      <point x="213" y="-172" type="line"/>
      <point x="244" y="-183"/>
      <point x="284" y="-185"/>
    </contour>
  </outline>
</glyph>
<glyph name="jdotless" format="2">
  <advance width="289"/>
  <unicode hex="0237"/>
  <anchor x="145" y="-185" name="bottom"/>
  <anchor x="145" y="281" name="center"/>
  <anchor x="145" y="526" name="top"/>
  <outline>
    <contour>
      <point x="21" y="-185" type="curve" smooth="yes"/>
      <point x="149" y="-185"/>
      <point x="219" y="-120"/>
      <point x="219" y="19" type="curve" smooth="yes"/>
      <point x="219" y="526" type="line"/>
      <point x="70" y="526" type="line"/>
      <point x="70" y="23" type="line" smooth="yes"/>
      <point x="70" y="-30"/>
      <point x="54" y="-59"/>
      <point x="7" y="-59" type="curve" smooth="yes"/>
      <point x="-18" y="-59"/>
      <point x="-32" y="-57"/>
      <point x="-52" y="-50" type="curve"/>
      <point x="-72" y="-171" type="line"/>
      <point x="-40" y="-182"/>
      <point x="2" y="-185"/>
    </contour>
  </outline>
</glyph>
<glyph name="dbdigraph" format="2">
  <advance width="919"/>
  <unicode hex="0238"/>
  <outline>
    <contour>
      <point x="319" y="-13" type="curve" smooth="yes"/>
      <point x="366" y="-13"/>
      <point x="415" y="-3"/>
      <point x="460" y="12" type="curve"/>
      <point x="505" y="-3"/>
      <point x="555" y="-13"/>
      <point x="600" y="-13" type="curve" smooth="yes"/>
      <point x="773" y="-13"/>
      <point x="874" y="95"/>
      <point x="874" y="263" type="curve" smooth="yes"/>
      <point x="874" y="428"/>
      <point x="793" y="537"/>
      <point x="644" y="537" type="curve" smooth="yes"/>
      <point x="603" y="537"/>
      <point x="567" y="529"/>
      <point x="534" y="514" type="curve"/>
      <point x="534" y="776" type="line"/>
      <point x="385" y="752" type="line"/>
      <point x="385" y="514" type="line"/>
      <point x="352" y="529"/>
      <point x="321" y="537"/>
      <point x="280" y="537" type="curve" smooth="yes"/>
      <point x="132" y="537"/>
      <point x="45" y="432"/>
      <point x="45" y="260" type="curve" smooth="yes"/>
      <point x="45" y="92"/>
      <point x="146" y="-13"/>
    </contour>
    <contour>
      <point x="320" y="114" type="curve" smooth="yes"/>
      <point x="239" y="114"/>
      <point x="197" y="175"/>
      <point x="197" y="267" type="curve" smooth="yes"/>
      <point x="197" y="363"/>
      <point x="232" y="411"/>
      <point x="303" y="411" type="curve" smooth="yes"/>
      <point x="334" y="411"/>
      <point x="366" y="402"/>
      <point x="385" y="390" type="curve"/>
      <point x="385" y="119" type="line"/>
      <point x="370" y="116"/>
      <point x="347" y="114"/>
    </contour>
    <contour>
      <point x="599" y="114" type="curve" smooth="yes"/>
      <point x="572" y="114"/>
      <point x="549" y="116"/>
      <point x="534" y="119" type="curve"/>
      <point x="534" y="390" type="line"/>
      <point x="553" y="402"/>
      <point x="585" y="411"/>
      <point x="616" y="411" type="curve" smooth="yes"/>
      <point x="687" y="411"/>
      <point x="722" y="363"/>
      <point x="722" y="267" type="curve" smooth="yes"/>
      <point x="722" y="175"/>
      <point x="680" y="114"/>
    </contour>
  </outline>
</glyph>
<glyph name="Astroke" format="2">
  <advance width="743"/>
  <unicode hex="023A"/>
  <unicode hex="2C65"/>
  <outline>
    <contour>
      <point x="300" y="-97" type="line"/>
      <point x="382" y="150" type="line"/>
      <point x="518" y="150" type="line"/>
      <point x="535" y="99"/>
      <point x="551" y="48"/>
      <point x="566" y="0" type="curve"/>
      <point x="733" y="0" type="line"/>
      <point x="654" y="228"/>
      <point x="584" y="403"/>
      <point x="516" y="558" type="curve"/>
      <point x="585" y="763" type="line"/>
      <point x="498" y="787" type="line"/>
      <point x="454" y="654" type="line"/>
      <point x="448" y="667"/>
      <point x="442" y="680"/>
      <point x="436" y="693" type="curve"/>
      <point x="287" y="693" type="line"/>
      <point x="194" y="501"/>
      <point x="114" y="298"/>
      <point x="10" y="0" type="curve"/>
      <point x="172" y="0" type="line"/>
      <point x="187" y="48"/>
      <point x="203" y="99"/>
      <point x="220" y="150" type="curve"/>
      <point x="288" y="150" type="line"/>
      <point x="215" y="-72" type="line"/>
    </contour>
    <contour>
      <point x="258" y="269" type="line"/>
      <point x="301" y="389"/>
      <point x="345" y="493"/>
      <point x="358" y="533" type="curve"/>
      <point x="368" y="507"/>
      <point x="378" y="481"/>
      <point x="388" y="455" type="curve"/>
      <point x="327" y="269" type="line"/>
    </contour>
    <contour>
      <point x="421" y="269" type="line"/>
      <point x="448" y="348" type="line"/>
      <point x="457" y="324"/>
      <point x="468" y="296"/>
      <point x="477" y="269" type="curve"/>
    </contour>
  </outline>
</glyph>
<glyph name="uni023B" format="2">
  <advance width="661"/>
  <unicode hex="023B"/>
  <outline>
    <contour>
      <point x="320" y="-102" type="line"/>
      <point x="350" y="-12" type="line"/>
      <point x="365" y="-13"/>
      <point x="380" y="-14"/>
      <point x="396" y="-14" type="curve" smooth="yes"/>
      <point x="501" y="-14"/>
      <point x="584" y="11"/>
      <point x="628" y="38" type="curve"/>
      <point x="585" y="163" type="line"/>
      <point x="551" y="147"/>
      <point x="502" y="124"/>
      <point x="410" y="124" type="curve" smooth="yes"/>
      <point x="405" y="124"/>
      <point x="400" y="124"/>
      <point x="395" y="124" type="curve"/>
      <point x="535" y="548" type="line"/>
      <point x="556" y="541"/>
      <point x="575" y="532"/>
      <point x="590" y="524" type="curve"/>
      <point x="635" y="650" type="line"/>
      <point x="620" y="658"/>
      <point x="602" y="668"/>
      <point x="578" y="677" type="curve"/>
      <point x="606" y="761" type="line"/>
      <point x="506" y="789" type="line"/>
      <point x="478" y="704" type="line"/>
      <point x="455" y="707"/>
      <point x="431" y="709"/>
      <point x="404" y="709" type="curve" smooth="yes"/>
      <point x="201" y="709"/>
      <point x="50" y="577"/>
      <point x="50" y="347" type="curve" smooth="yes"/>
      <point x="50" y="172"/>
      <point x="118" y="56"/>
      <point x="249" y="9" type="curve"/>
      <point x="222" y="-73" type="line"/>
    </contour>
    <contour>
      <point x="296" y="152" type="line"/>
      <point x="236" y="191"/>
      <point x="212" y="263"/>
      <point x="212" y="350" type="curve" smooth="yes"/>
      <point x="212" y="510"/>
      <point x="305" y="571"/>
      <point x="402" y="571" type="curve" smooth="yes"/>
      <point x="413" y="571"/>
      <point x="422" y="570"/>
      <point x="433" y="569" type="curve"/>
    </contour>
  </outline>
</glyph>
<glyph name="Tdiagonalstroke" format="2">
  <advance width="608"/>
  <unicode hex="023E"/>
  <unicode hex="2C66"/>
  <outline>
    <contour>
      <point x="102" y="-46" type="line"/>
      <point x="226" y="112" type="line"/>
      <point x="226" y="0" type="line"/>
      <point x="382" y="0" type="line"/>
      <point x="382" y="310" type="line"/>
      <point x="688" y="700" type="line"/>
      <point x="617" y="758" type="line"/>
      <point x="566" y="693" type="line"/>
      <point x="17" y="693" type="line"/>
      <point x="17" y="560" type="line"/>
      <point x="226" y="560" type="line"/>
      <point x="226" y="260" type="line"/>
      <point x="31" y="12" type="line"/>
    </contour>
    <contour>
      <point x="382" y="458" type="line"/>
      <point x="382" y="560" type="line"/>
      <point x="461" y="560" type="line"/>
    </contour>
  </outline>
</glyph>
<glyph name="zswashtail" format="2">
  <advance width="500"/>
  <unicode hex="0240"/>
  <outline>
    <contour>
      <point x="418" y="-185" type="curve" smooth="yes"/>
      <point x="434" y="-185"/>
      <point x="477" y="-182"/>
      <point x="510" y="-173" type="curve"/>
      <point x="496" y="-55" type="line"/>
      <point x="475" y="-59"/>
      <point x="453" y="-61"/>
      <point x="430" y="-61" type="curve" smooth="yes"/>
      <point x="386" y="-61"/>
      <point x="352" y="-29"/>
      <point x="314" y="7" type="curve" smooth="yes"/>
      <point x="281" y="39"/>
      <point x="244" y="74"/>
      <point x="196" y="91" type="curve"/>
      <point x="268" y="203"/>
      <point x="417" y="374"/>
      <point x="465" y="426" type="curve"/>
      <point x="465" y="526" type="line"/>
      <point x="47" y="526" type="line"/>
      <point x="47" y="402" type="line"/>
      <point x="271" y="402" type="line"/>
      <point x="200" y="317"/>
      <point x="91" y="184"/>
      <point x="35" y="88" type="curve"/>
      <point x="35" y="0" type="line"/>
      <point x="68" y="0" type="line" smooth="yes"/>
      <point x="145" y="0"/>
      <point x="195" y="-41"/>
      <point x="241" y="-85" type="curve" smooth="yes"/>
      <point x="292" y="-134"/>
      <point x="339" y="-185"/>
    </contour>
  </outline>
</glyph>
<glyph name="Glottalstop" format="2">
  <advance width="507"/>
  <unicode hex="0241"/>
  <outline>
    <contour>
      <point x="106" y="0" type="line"/>
      <point x="262" y="0" type="line"/>
      <point x="262" y="176" type="line"/>
      <point x="262" y="259"/>
      <point x="324" y="290"/>
      <point x="381" y="336" type="curve" smooth="yes"/>
      <point x="432" y="376"/>
      <point x="474" y="420"/>
      <point x="474" y="517" type="curve" smooth="yes"/>
      <point x="474" y="637"/>
      <point x="382" y="709"/>
      <point x="219" y="709" type="curve" smooth="yes"/>
      <point x="135" y="709"/>
      <point x="49" y="680"/>
      <point x="2" y="655" type="curve"/>
      <point x="52" y="529" type="line"/>
      <point x="87" y="548"/>
      <point x="159" y="571"/>
      <point x="217" y="571" type="curve" smooth="yes"/>
      <point x="276" y="571"/>
      <point x="314" y="552"/>
      <point x="314" y="505" type="curve" smooth="yes"/>
      <point x="314" y="447"/>
      <point x="265" y="426"/>
      <point x="209" y="383" type="curve" smooth="yes"/>
      <point x="158" y="343"/>
      <point x="106" y="294"/>
      <point x="106" y="198" type="curve" smooth="yes"/>
    </contour>
  </outline>
</glyph>
<glyph name="Bstroke" format="2">
  <advance width="672"/>
  <unicode hex="0243"/>
  <outline>
    <contour>
      <point x="311" y="-9" type="curve" smooth="yes"/>
      <point x="520" y="-9"/>
      <point x="627" y="65"/>
      <point x="627" y="210" type="curve" smooth="yes"/>
      <point x="627" y="282"/>
      <point x="601" y="342"/>
      <point x="513" y="375" type="curve"/>
      <point x="566" y="407"/>
      <point x="593" y="451"/>
      <point x="593" y="506" type="curve" smooth="yes"/>
      <point x="593" y="654"/>
      <point x="467" y="701"/>
      <point x="291" y="701" type="curve" smooth="yes"/>
      <point x="226" y="701"/>
      <point x="144" y="695"/>
      <point x="80" y="683" type="curve"/>
      <point x="80" y="257" type="line"/>
      <point x="10" y="257" type="line"/>
      <point x="10" y="169" type="line"/>
      <point x="80" y="169" type="line"/>
      <point x="80" y="11" type="line"/>
      <point x="161" y="-6"/>
      <point x="235" y="-9"/>
    </contour>
    <contour>
      <point x="313" y="117" type="curve" smooth="yes"/>
      <point x="281" y="117"/>
      <point x="255" y="118"/>
      <point x="232" y="121" type="curve"/>
      <point x="232" y="169" type="line"/>
      <point x="326" y="169" type="line"/>
      <point x="326" y="257" type="line"/>
      <point x="232" y="257" type="line"/>
      <point x="232" y="304" type="line"/>
      <point x="330" y="304" type="line"/>
      <point x="419" y="304"/>
      <point x="469" y="278"/>
      <point x="469" y="213" type="curve" smooth="yes"/>
      <point x="469" y="138"/>
      <point x="405" y="117"/>
    </contour>
    <contour>
      <point x="232" y="421" type="line"/>
      <point x="232" y="572" type="line"/>
      <point x="256" y="575"/>
      <point x="289" y="575"/>
      <point x="316" y="575" type="curve" smooth="yes"/>
      <point x="399" y="575"/>
      <point x="442" y="555"/>
      <point x="442" y="499" type="curve" smooth="yes"/>
      <point x="442" y="444"/>
      <point x="404" y="421"/>
      <point x="308" y="421" type="curve" smooth="yes"/>
    </contour>
  </outline>
</glyph>
<glyph name="uni0244" format="2">
  <advance width="749"/>
  <unicode hex="0244"/>
  <anchor x="375" y="0" name="bottom"/>
  <anchor x="375" y="693" name="top"/>
  <outline>
    <contour>
      <point x="372" y="-14" type="curve" smooth="yes"/>
      <point x="569" y="-14"/>
      <point x="658" y="98"/>
      <point x="658" y="262" type="curve" smooth="yes"/>
      <point x="658" y="327" type="line"/>
      <point x="739" y="327" type="line"/>
      <point x="739" y="437" type="line"/>
      <point x="658" y="437" type="line"/>
      <point x="658" y="693" type="line"/>
      <point x="502" y="693" type="line"/>
      <point x="502" y="437" type="line"/>
      <point x="247" y="437" type="line"/>
      <point x="247" y="693" type="line"/>
      <point x="91" y="693" type="line"/>
      <point x="91" y="437" type="line"/>
      <point x="10" y="437" type="line"/>
      <point x="10" y="327" type="line"/>
      <point x="91" y="327" type="line"/>
      <point x="91" y="262" type="line" smooth="yes"/>
      <point x="91" y="100"/>
      <point x="177" y="-14"/>
    </contour>
    <contour>
      <point x="374" y="121" type="curve" smooth="yes"/>
      <point x="299" y="121"/>
      <point x="247" y="162"/>
      <point x="247" y="275" type="curve" smooth="yes"/>
      <point x="247" y="327" type="line"/>
      <point x="502" y="327" type="line"/>
      <point x="502" y="275" type="line" smooth="yes"/>
      <point x="502" y="163"/>
      <point x="450" y="121"/>
    </contour>
  </outline>
</glyph>
<glyph name="jstroke" format="2">
  <advance width="299"/>
  <unicode hex="0249"/>
  <anchor x="150" y="0" name="bottom"/>
  <anchor x="150" y="526" name="top"/>
  <outline>
    <contour>
      <point x="23" y="-185" type="curve" smooth="yes"/>
      <point x="151" y="-185"/>
      <point x="221" y="-120"/>
      <point x="221" y="19" type="curve" smooth="yes"/>
      <point x="221" y="234" type="line"/>
      <point x="289" y="234" type="line"/>
      <point x="289" y="327" type="line"/>
      <point x="221" y="327" type="line"/>
      <point x="221" y="526" type="line"/>
      <point x="72" y="526" type="line"/>
      <point x="72" y="327" type="line"/>
      <point x="-15" y="327" type="line"/>
      <point x="-15" y="234" type="line"/>
      <point x="72" y="234" type="line"/>
      <point x="72" y="23" type="line" smooth="yes"/>
      <point x="72" y="-30"/>
      <point x="56" y="-59"/>
      <point x="9" y="-59" type="curve" smooth="yes"/>
      <point x="-16" y="-59"/>
      <point x="-30" y="-57"/>
      <point x="-50" y="-50" type="curve"/>
      <point x="-70" y="-171" type="line"/>
      <point x="-38" y="-182"/>
      <point x="4" y="-185"/>
    </contour>
    <contour>
      <point x="146" y="590" type="curve" smooth="yes"/>
      <point x="194" y="590"/>
      <point x="235" y="623"/>
      <point x="235" y="678" type="curve" smooth="yes"/>
      <point x="235" y="733"/>
      <point x="194" y="766"/>
      <point x="146" y="766" type="curve" smooth="yes"/>
      <point x="98" y="766"/>
      <point x="57" y="733"/>
      <point x="57" y="678" type="curve" smooth="yes"/>
      <point x="57" y="623"/>
      <point x="98" y="590"/>
    </contour>
  </outline>
</glyph>
<glyph name="uni024A" format="2">
  <advance width="812"/>
  <unicode hex="024A"/>
  <anchor x="406" y="0" name="bottom"/>
  <anchor x="406" y="693" name="top"/>
  <outline>
    <contour>
      <point x="775" y="-187" type="curve" smooth="yes"/>
      <point x="794" y="-187"/>
      <point x="830" y="-185"/>
      <point x="862" y="-174" type="curve"/>
      <point x="842" y="-53" type="line"/>
      <point x="822" y="-60"/>
      <point x="814" y="-61"/>
      <point x="789" y="-61" type="curve" smooth="yes"/>
      <point x="748" y="-61"/>
      <point x="734" y="-32"/>
      <point x="734" y="21" type="curve" smooth="yes"/>
      <point x="734" y="347" type="line" smooth="yes"/>
      <point x="734" y="584"/>
      <point x="584" y="709"/>
      <point x="395" y="709" type="curve" smooth="yes"/>
      <point x="211" y="709"/>
      <point x="50" y="584"/>
      <point x="50" y="347" type="curve" smooth="yes"/>
      <point x="50" y="110"/>
      <point x="205" y="-14"/>
      <point x="385" y="-14" type="curve" smooth="yes"/>
      <point x="469" y="-14"/>
      <point x="533" y="16"/>
      <point x="578" y="64" type="curve"/>
      <point x="578" y="5" type="line"/>
      <point x="578" y="-134"/>
      <point x="638" y="-187"/>
    </contour>
    <contour>
      <point x="395" y="123" type="curve" smooth="yes"/>
      <point x="279" y="123"/>
      <point x="211" y="212"/>
      <point x="211" y="347" type="curve" smooth="yes"/>
      <point x="211" y="480"/>
      <point x="279" y="572"/>
      <point x="395" y="572" type="curve" smooth="yes"/>
      <point x="511" y="572"/>
      <point x="579" y="483"/>
      <point x="579" y="347" type="curve" smooth="yes"/>
      <point x="579" y="204"/>
      <point x="512" y="123"/>
    </contour>
  </outline>
</glyph>
<glyph name="Rstroke" format="2">
  <advance width="678"/>
  <unicode hex="024C"/>
  <anchor x="339" y="0" name="bottom"/>
  <anchor x="339" y="693" name="top"/>
  <outline>
    <contour>
      <point x="91" y="0" type="line"/>
      <point x="247" y="0" type="line"/>
      <point x="247" y="253" type="line"/>
      <point x="309" y="253" type="line"/>
      <point x="314" y="253"/>
      <point x="319" y="253"/>
      <point x="324" y="253" type="curve"/>
      <point x="377" y="190"/>
      <point x="432" y="91"/>
      <point x="483" y="0" type="curve"/>
      <point x="658" y="0" type="line"/>
      <point x="610" y="102"/>
      <point x="543" y="213"/>
      <point x="486" y="283" type="curve"/>
      <point x="570" y="318"/>
      <point x="616" y="376"/>
      <point x="616" y="473" type="curve" smooth="yes"/>
      <point x="616" y="629"/>
      <point x="502" y="701"/>
      <point x="294" y="701" type="curve" smooth="yes"/>
      <point x="237" y="701"/>
      <point x="159" y="696"/>
      <point x="91" y="683" type="curve"/>
      <point x="91" y="377" type="line"/>
      <point x="10" y="377" type="line"/>
      <point x="10" y="253" type="line"/>
      <point x="91" y="253" type="line"/>
    </contour>
    <contour>
      <point x="247" y="377" type="line"/>
      <point x="247" y="565" type="line"/>
      <point x="263" y="566"/>
      <point x="280" y="568"/>
      <point x="303" y="568" type="curve" smooth="yes"/>
      <point x="403" y="568"/>
      <point x="455" y="542"/>
      <point x="455" y="474" type="curve" smooth="yes"/>
      <point x="455" y="403"/>
      <point x="408" y="377"/>
      <point x="291" y="377" type="curve" smooth="yes"/>
    </contour>
  </outline>
</glyph>
<glyph name="Ystroke" format="2">
  <advance width="681"/>
  <unicode hex="024E"/>
  <anchor x="341" y="0" name="bottom"/>
  <anchor x="341" y="693" name="top"/>
  <outline>
    <contour>
      <point x="263" y="0" type="line"/>
      <point x="419" y="0" type="line"/>
      <point x="419" y="260" type="line"/>
      <point x="462" y="328"/>
      <point x="504" y="395"/>
      <point x="543" y="466" type="curve"/>
      <point x="671" y="466" type="line"/>
      <point x="671" y="576" type="line"/>
      <point x="604" y="576" type="line"/>
      <point x="625" y="615"/>
      <point x="646" y="654"/>
      <point x="666" y="693" type="curve"/>
      <point x="499" y="693" type="line"/>
      <point x="483" y="656"/>
      <point x="462" y="616"/>
      <point x="441" y="576" type="curve"/>
      <point x="247" y="576" type="line"/>
      <point x="227" y="616"/>
      <point x="207" y="656"/>
      <point x="191" y="693" type="curve"/>
      <point x="15" y="693" type="line"/>
      <point x="35" y="654"/>
      <point x="55" y="615"/>
      <point x="76" y="576" type="curve"/>
      <point x="10" y="576" type="line"/>
      <point x="10" y="466" type="line"/>
      <point x="137" y="466" type="line"/>
      <point x="177" y="394"/>
      <point x="219" y="326"/>
      <point x="263" y="258" type="curve"/>
    </contour>
    <contour>
      <point x="344" y="383" type="curve"/>
      <point x="329" y="410"/>
      <point x="316" y="437"/>
      <point x="301" y="466" type="curve"/>
      <point x="386" y="466" type="line"/>
      <point x="371" y="437"/>
      <point x="359" y="410"/>
    </contour>
  </outline>
</glyph>
<glyph name="ezh" format="2">
  <advance width="515"/>
  <unicode hex="0292"/>
  <anchor x="258" y="0" name="bottom"/>
  <anchor x="245" y="526" name="top"/>
  <outline>
    <contour>
      <point x="210" y="-185" type="curve" smooth="yes"/>
      <point x="375" y="-185"/>
      <point x="475" y="-112"/>
      <point x="475" y="35" type="curve" smooth="yes"/>
      <point x="475" y="147"/>
      <point x="399" y="213"/>
      <point x="303" y="240" type="curve"/>
      <point x="361" y="312"/>
      <point x="421" y="381"/>
      <point x="454" y="424" type="curve"/>
      <point x="454" y="526" type="line"/>
      <point x="31" y="526" type="line"/>
      <point x="31" y="402" type="line"/>
      <point x="265" y="402" type="line"/>
      <point x="227" y="353"/>
      <point x="167" y="279"/>
      <point x="124" y="230" type="curve"/>
      <point x="124" y="143" type="line"/>
      <point x="178" y="143" type="line" smooth="yes"/>
      <point x="273" y="143"/>
      <point x="325" y="110"/>
      <point x="325" y="41" type="curve" smooth="yes"/>
      <point x="325" y="-20"/>
      <point x="283" y="-57"/>
      <point x="200" y="-57" type="curve" smooth="yes"/>
      <point x="147" y="-57"/>
      <point x="82" y="-45"/>
      <point x="38" y="-26" type="curve"/>
      <point x="5" y="-145" type="line"/>
      <point x="51" y="-167"/>
      <point x="135" y="-185"/>
    </contour>
  </outline>
</glyph>
<glyph name="apostrophemod" format="2">
  <advance width="272"/>
  <unicode hex="02BC"/>
  <outline>
    <contour>
      <point x="161" y="540" type="line"/>
      <point x="200" y="599"/>
      <point x="223" y="650"/>
      <point x="228" y="733" type="curve" smooth="yes"/>
      <point x="229" y="749"/>
      <point x="229" y="759"/>
      <point x="229" y="776" type="curve"/>
      <point x="99" y="776" type="line"/>
      <point x="102" y="765"/>
      <point x="102" y="747"/>
      <point x="102" y="731" type="curve" smooth="yes"/>
      <point x="102" y="674"/>
      <point x="92" y="627"/>
      <point x="64" y="567" type="curve"/>
    </contour>
  </outline>
</glyph>
<glyph name="ogonek" format="2">
  <advance width="312"/>
  <unicode hex="02DB"/>
  <outline>
    <contour>
      <point x="176" y="-221" type="curve" smooth="yes"/>
      <point x="207" y="-221"/>
      <point x="248" y="-216"/>
      <point x="275" y="-205" type="curve"/>
      <point x="263" y="-105" type="line"/>
      <point x="240" y="-112"/>
      <point x="224" y="-113"/>
      <point x="212" y="-113" type="curve" smooth="yes"/>
      <point x="189" y="-113"/>
      <point x="182" y="-103"/>
      <point x="182" y="-88" type="curve" smooth="yes"/>
      <point x="182" y="-62"/>
      <point x="222" y="-28"/>
      <point x="273" y="15" type="curve"/>
      <point x="156" y="15" type="line"/>
      <point x="108" y="-18"/>
      <point x="51" y="-72"/>
      <point x="51" y="-130" type="curve" smooth="yes"/>
      <point x="51" y="-185"/>
      <point x="87" y="-221"/>
    </contour>
  </outline>
</glyph>
<glyph name="acutecomb" format="2">
  <unicode hex="0301"/>
  <anchor x="0" y="526" name="_top"/>
  <anchor x="0" y="799" name="top"/>
  <outline>
    <contour>
      <point x="-41" y="576" type="line"/>
      <point x="124" y="715" type="line"/>
      <point x="33" y="799" type="line"/>
      <point x="-109" y="637" type="line"/>
    </contour>
  </outline>
</glyph>
<glyph name="circumflexcomb" format="2">
  <unicode hex="0302"/>
  <anchor x="0" y="526" name="_top"/>
  <anchor x="0" y="782" name="top"/>
  <outline>
    <contour>
      <point x="-99" y="579" type="line"/>
      <point x="1" y="656" type="line"/>
      <point x="101" y="579" type="line"/>
      <point x="156" y="645" type="line"/>
      <point x="1" y="782" type="line"/>
      <point x="-156" y="645" type="line"/>
    </contour>
  </outline>
</glyph>
<glyph name="macroncomb" format="2">
  <unicode hex="0304"/>
  <anchor x="0" y="526" name="_top"/>
  <anchor x="0" y="725" name="top"/>
  <outline>
    <contour>
      <point x="-161" y="623" type="line"/>
      <point x="161" y="623" type="line"/>
      <point x="161" y="725" type="line"/>
      <point x="-161" y="725" type="line"/>
    </contour>
  </outline>
</glyph>
<glyph name="brevecomb" format="2">
  <unicode hex="0306"/>
  <anchor x="0" y="526" name="_top"/>
  <anchor x="0" y="764" name="top"/>
  <outline>
    <contour>
      <point x="0" y="598" type="curve" smooth="yes"/>
      <point x="92" y="598"/>
      <point x="162" y="657"/>
      <point x="162" y="764" type="curve"/>
      <point x="61" y="764" type="line"/>
      <point x="57" y="708"/>
      <point x="32" y="693"/>
      <point x="0" y="693" type="curve" smooth="yes"/>
      <point x="-32" y="693"/>
      <point x="-57" y="708"/>
      <point x="-61" y="764" type="curve"/>
      <point x="-162" y="764" type="line"/>
      <point x="-162" y="657"/>
      <point x="-92" y="598"/>
    </contour>
  </outline>
</glyph>
<glyph name="dotaccentcomb" format="2">
  <unicode hex="0307"/>
  <anchor x="0" y="526" name="_top"/>
  <anchor x="0" y="756" name="top"/>
  <outline>
    <contour>
      <point x="0" y="600" type="curve"/>
      <point x="43" y="600"/>
      <point x="79" y="630"/>
      <point x="79" y="678" type="curve"/>
      <point x="79" y="726"/>
      <point x="43" y="756"/>
      <point x="0" y="756" type="curve"/>
      <point x="-43" y="756"/>
      <point x="-79" y="726"/>
      <point x="-79" y="678" type="curve"/>
      <point x="-79" y="630"/>
      <point x="-43" y="600"/>
    </contour>
  </outline>
</glyph>
<glyph name="dieresiscomb" format="2">
  <unicode hex="0308"/>
  <anchor x="0" y="526" name="_top"/>
  <anchor x="0" y="754" name="top"/>
  <outline>
    <contour>
      <point x="111" y="602" type="curve" smooth="yes"/>
      <point x="152" y="602"/>
      <point x="188" y="631"/>
      <point x="188" y="678" type="curve" smooth="yes"/>
      <point x="188" y="725"/>
      <point x="152" y="754"/>
      <point x="111" y="754" type="curve" smooth="yes"/>
      <point x="70" y="754"/>
      <point x="34" y="725"/>
      <point x="34" y="678" type="curve" smooth="yes"/>
      <point x="34" y="631"/>
      <point x="70" y="602"/>
    </contour>
    <contour>
      <point x="-111" y="602" type="curve" smooth="yes"/>
      <point x="-70" y="602"/>
      <point x="-34" y="631"/>
      <point x="-34" y="678" type="curve" smooth="yes"/>
      <point x="-34" y="725"/>
      <point x="-70" y="754"/>
      <point x="-111" y="754" type="curve" smooth="yes"/>
      <point x="-152" y="754"/>
      <point x="-188" y="725"/>
      <point x="-188" y="678" type="curve" smooth="yes"/>
      <point x="-188" y="631"/>
      <point x="-152" y="602"/>
    </contour>
  </outline>
</glyph>
<glyph name="ringcomb" format="2">
  <unicode hex="030A"/>
  <anchor x="0" y="526" name="_top"/>
  <anchor x="0" y="814" name="top"/>
  <outline>
    <contour>
      <point x="0" y="584" type="curve" smooth="yes"/>
      <point x="63" y="584"/>
      <point x="118" y="624"/>
      <point x="118" y="699" type="curve" smooth="yes"/>
      <point x="118" y="774"/>
      <point x="63" y="814"/>
      <point x="0" y="814" type="curve" smooth="yes"/>
      <point x="-62" y="814"/>
      <point x="-118" y="774"/>
      <point x="-118" y="699" type="curve" smooth="yes"/>
      <point x="-118" y="624"/>
      <point x="-62" y="584"/>
    </contour>
    <contour>
      <point x="0" y="652" type="curve" smooth="yes"/>
      <point x="-24" y="652"/>
      <point x="-46" y="668"/>
      <point x="-46" y="699" type="curve" smooth="yes"/>
      <point x="-46" y="730"/>
      <point x="-24" y="746"/>
      <point x="0" y="746" type="curve" smooth="yes"/>
      <point x="23" y="746"/>
      <point x="45" y="730"/>
      <point x="45" y="699" type="curve" smooth="yes"/>
      <point x="45" y="668"/>
      <point x="23" y="652"/>
    </contour>
  </outline>
</glyph>
<glyph name="hungarumlautcomb" format="2">
  <unicode hex="030B"/>
  <anchor x="0" y="526" name="_top"/>
  <anchor x="0" y="799" name="top"/>
  <outline>
    <contour>
      <point x="98" y="577" type="line"/>
      <point x="238" y="729" type="line"/>
      <point x="151" y="799" type="line"/>
      <point x="31" y="628" type="line"/>
    </contour>
    <contour>
      <point x="-104" y="577" type="line"/>
      <point x="36" y="729" type="line"/>
      <point x="-51" y="799" type="line"/>
      <point x="-171" y="628" type="line"/>
    </contour>
  </outline>
</glyph>
<glyph name="breveinvertedcomb" format="2">
  <unicode hex="0311"/>
  <anchor x="195" y="756" name="_top"/>
  <anchor x="195" y="526" name="top"/>
  <outline>
    <contour>
      <point x="33" y="590" type="curve"/>
      <point x="134" y="590" type="line"/>
      <point x="138" y="646"/>
      <point x="163" y="661"/>
      <point x="195" y="661" type="curve" smooth="yes"/>
      <point x="227" y="661"/>
      <point x="252" y="646"/>
      <point x="256" y="590" type="curve"/>
      <point x="357" y="590" type="line"/>
      <point x="357" y="697"/>
      <point x="287" y="756"/>
      <point x="195" y="756" type="curve" smooth="yes"/>
      <point x="103" y="756"/>
      <point x="33" y="697"/>
    </contour>
  </outline>
</glyph>
<glyph name="commaturnedabovecomb" format="2">
  <unicode hex="0312"/>
  <anchor x="0" y="526" name="_top"/>
  <anchor x="0" y="793" name="top"/>
  <outline>
    <contour>
      <point x="-71" y="599" type="curve"/>
      <point x="51" y="599" type="line"/>
      <point x="51" y="604"/>
      <point x="51" y="608"/>
      <point x="51" y="613" type="curve"/>
      <point x="51" y="672"/>
      <point x="72" y="700"/>
      <point x="113" y="725" type="curve"/>
      <point x="64" y="793" type="line"/>
      <point x="-22" y="771"/>
      <point x="-75" y="717"/>
      <point x="-72" y="620" type="curve" smooth="yes"/>
      <point x="-72" y="613"/>
      <point x="-72" y="606"/>
    </contour>
  </outline>
</glyph>
<glyph name="commaaccentcomb" format="2">
  <unicode hex="0326"/>
  <anchor x="0" y="0" name="_bottom"/>
  <anchor x="0" y="-220" name="bottom"/>
  <outline>
    <contour>
      <point x="-48" y="-220" type="curve" smooth="yes"/>
      <point x="24" y="-220"/>
      <point x="94" y="-189"/>
      <point x="94" y="-89" type="curve" smooth="yes"/>
      <point x="94" y="-84"/>
      <point x="94" y="-67"/>
      <point x="91" y="-52" type="curve"/>
      <point x="-27" y="-52" type="line"/>
      <point x="-27" y="-57"/>
      <point x="-27" y="-61"/>
      <point x="-27" y="-66" type="curve"/>
      <point x="-27" y="-124"/>
      <point x="-58" y="-130"/>
      <point x="-99" y="-130" type="curve"/>
      <point x="-99" y="-214" type="line"/>
      <point x="-91" y="-217"/>
      <point x="-68" y="-220"/>
    </contour>
  </outline>
</glyph>
<glyph name="macronbelowcomb" format="2">
  <unicode hex="0331"/>
  <anchor x="0" y="0" name="_bottom"/>
  <anchor x="0" y="-162" name="bottom"/>
  <outline>
    <contour>
      <point x="-161" y="-162" type="line"/>
      <point x="161" y="-162" type="line"/>
      <point x="161" y="-60" type="line"/>
      <point x="-161" y="-60" type="line"/>
    </contour>
  </outline>
</glyph>
<glyph name="tonos" format="2">
  <advance width="300"/>
  <unicode hex="0384"/>
  <anchor x="119" y="526" name="_top"/>
  <outline>
    <contour>
      <point x="116" y="582" type="line"/>
      <point x="261" y="747" type="line"/>
      <point x="167" y="819" type="line"/>
      <point x="40" y="638" type="line"/>
    </contour>
  </outline>
</glyph>
<glyph name="dieresistonos" format="2">
  <advance width="614"/>
  <unicode hex="0385"/>
  <anchor x="307" y="526" name="_top"/>
  <outline>
    <contour>
      <point x="297" y="573" type="line"/>
      <point x="406" y="773" type="line"/>
      <point x="315" y="817" type="line"/>
      <point x="228" y="606" type="line"/>
    </contour>
    <contour>
      <point x="144" y="604" type="curve" smooth="yes"/>
      <point x="184" y="604"/>
      <point x="218" y="632"/>
      <point x="218" y="677" type="curve" smooth="yes"/>
      <point x="218" y="724"/>
      <point x="184" y="751"/>
      <point x="144" y="751" type="curve" smooth="yes"/>
      <point x="103" y="751"/>
      <point x="70" y="724"/>
      <point x="70" y="677" type="curve" smooth="yes"/>
      <point x="70" y="632"/>
      <point x="103" y="604"/>
    </contour>
    <contour>
      <point x="470" y="604" type="curve" smooth="yes"/>
      <point x="510" y="604"/>
      <point x="544" y="632"/>
      <point x="544" y="677" type="curve" smooth="yes"/>
      <point x="544" y="724"/>
      <point x="510" y="751"/>
      <point x="470" y="751" type="curve" smooth="yes"/>
      <point x="430" y="751"/>
      <point x="396" y="724"/>
      <point x="396" y="677" type="curve" smooth="yes"/>
      <point x="396" y="632"/>
      <point x="430" y="604"/>
    </contour>
  </outline>
</glyph>
<glyph name="Theta" format="2">
  <advance width="790"/>
  <unicode hex="0398"/>
  <outline>
    <contour>
      <point x="395" y="-14" type="curve" smooth="yes"/>
      <point x="591" y="-14"/>
      <point x="740" y="110"/>
      <point x="740" y="347" type="curve" smooth="yes"/>
      <point x="740" y="584"/>
      <point x="585" y="709"/>
      <point x="395" y="709" type="curve" smooth="yes"/>
      <point x="211" y="709"/>
      <point x="50" y="584"/>
      <point x="50" y="347" type="curve" smooth="yes"/>
      <point x="50" y="110"/>
      <point x="205" y="-14"/>
    </contour>
    <contour>
      <point x="395" y="123" type="curve" smooth="yes"/>
      <point x="279" y="123"/>
      <point x="211" y="212"/>
      <point x="211" y="347" type="curve" smooth="yes"/>
      <point x="211" y="480"/>
      <point x="279" y="572"/>
      <point x="395" y="572" type="curve" smooth="yes"/>
      <point x="511" y="572"/>
      <point x="579" y="483"/>
      <point x="579" y="347" type="curve" smooth="yes"/>
      <point x="579" y="212"/>
      <point x="511" y="123"/>
    </contour>
    <contour>
      <point x="284" y="286" type="line"/>
      <point x="507" y="286" type="line"/>
      <point x="507" y="410" type="line"/>
      <point x="284" y="410" type="line"/>
    </contour>
  </outline>
</glyph>
<glyph name="Lambda" format="2">
  <advance width="722"/>
  <unicode hex="039B"/>
  <outline>
    <contour>
      <point x="10" y="0" type="curve"/>
      <point x="176" y="0" type="line"/>
      <point x="229" y="159"/>
      <point x="305" y="387"/>
      <point x="358" y="509" type="curve"/>
      <point x="409" y="386"/>
      <point x="487" y="159"/>
      <point x="540" y="0" type="curve"/>
      <point x="712" y="0" type="line"/>
      <point x="651" y="176"/>
      <point x="545" y="461"/>
      <point x="436" y="693" type="curve"/>
      <point x="286" y="693" type="line"/>
      <point x="177" y="462"/>
      <point x="69" y="176"/>
    </contour>
  </outline>
</glyph>
<glyph name="Sigma" format="2">
  <advance width="595"/>
  <unicode hex="03A3"/>
  <outline>
    <contour>
      <point x="31" y="0" type="line"/>
      <point x="555" y="0" type="line"/>
      <point x="555" y="131" type="line"/>
      <point x="226" y="131" type="line"/>
      <point x="271" y="187"/>
      <point x="383" y="302"/>
      <point x="423" y="350" type="curve"/>
      <point x="372" y="417"/>
      <point x="309" y="494"/>
      <point x="253" y="562" type="curve"/>
      <point x="555" y="562" type="line"/>
      <point x="555" y="693" type="line"/>
      <point x="46" y="693" type="line"/>
      <point x="46" y="592" type="line"/>
      <point x="99" y="530"/>
      <point x="186" y="432"/>
      <point x="247" y="350" type="curve"/>
      <point x="176" y="271"/>
      <point x="94" y="184"/>
      <point x="31" y="108" type="curve"/>
    </contour>
  </outline>
</glyph>
<glyph name="Phi" format="2">
  <advance width="870"/>
  <unicode hex="03A6"/>
  <outline>
    <contour>
      <point x="359" y="0" type="line"/>
      <point x="511" y="0" type="line"/>
      <point x="511" y="82" type="line"/>
      <point x="724" y="93"/>
      <point x="824" y="226"/>
      <point x="824" y="367" type="curve" smooth="yes"/>
      <point x="824" y="506"/>
      <point x="724" y="644"/>
      <point x="511" y="660" type="curve"/>
      <point x="511" y="738" type="line"/>
      <point x="359" y="738" type="line"/>
      <point x="359" y="660" type="line"/>
      <point x="146" y="644"/>
      <point x="46" y="506"/>
      <point x="46" y="367" type="curve" smooth="yes"/>
      <point x="46" y="226"/>
      <point x="146" y="93"/>
      <point x="359" y="82" type="curve"/>
    </contour>
    <contour>
      <point x="359" y="212" type="line"/>
      <point x="253" y="220"/>
      <point x="201" y="285"/>
      <point x="201" y="369" type="curve" smooth="yes"/>
      <point x="201" y="452"/>
      <point x="251" y="519"/>
      <point x="359" y="530" type="curve"/>
    </contour>
    <contour>
      <point x="511" y="212" type="curve"/>
      <point x="511" y="530" type="line"/>
      <point x="619" y="519"/>
      <point x="669" y="452"/>
      <point x="669" y="369" type="curve" smooth="yes"/>
      <point x="669" y="285"/>
      <point x="617" y="220"/>
    </contour>
  </outline>
</glyph>
<glyph name="Omega" format="2">
  <advance width="783"/>
  <unicode hex="03A9"/>
  <anchor x="392" y="0" name="bottom"/>
  <anchor x="20" y="693" name="topleft"/>
  <outline>
    <contour>
      <point x="40" y="0" type="line"/>
      <point x="343" y="0" type="line"/>
      <point x="343" y="116" type="line"/>
      <point x="273" y="175"/>
      <point x="217" y="254"/>
      <point x="217" y="375" type="curve" smooth="yes"/>
      <point x="217" y="504"/>
      <point x="284" y="574"/>
      <point x="392" y="574" type="curve" smooth="yes"/>
      <point x="500" y="574"/>
      <point x="567" y="504"/>
      <point x="567" y="375" type="curve" smooth="yes"/>
      <point x="567" y="254"/>
      <point x="510" y="175"/>
      <point x="440" y="116" type="curve"/>
      <point x="440" y="0" type="line"/>
      <point x="743" y="0" type="line"/>
      <point x="743" y="129" type="line"/>
      <point x="624" y="129" type="line"/>
      <point x="693" y="200"/>
      <point x="728" y="284"/>
      <point x="728" y="380" type="curve" smooth="yes"/>
      <point x="728" y="592"/>
      <point x="584" y="709"/>
      <point x="392" y="709" type="curve" smooth="yes"/>
      <point x="200" y="709"/>
      <point x="56" y="592"/>
      <point x="56" y="380" type="curve" smooth="yes"/>
      <point x="56" y="284"/>
      <point x="91" y="200"/>
      <point x="159" y="129" type="curve"/>
      <point x="40" y="129" type="line"/>
    </contour>
  </outline>
</glyph>
<glyph name="gamma" format="2">
  <advance width="557"/>
  <unicode hex="03B3"/>
  <outline>
    <contour>
      <point x="196" y="-185" type="curve"/>
      <point x="345" y="-185" type="line"/>
      <point x="338" y="-138"/>
      <point x="329" y="-76"/>
      <point x="317" y="-5" type="curve"/>
      <point x="406" y="151"/>
      <point x="489" y="319"/>
      <point x="537" y="526" type="curve"/>
      <point x="383" y="526" type="line"/>
      <point x="361" y="418"/>
      <point x="311" y="255"/>
      <point x="268" y="164" type="curve"/>
      <point x="241" y="278"/>
      <point x="195" y="438"/>
      <point x="166" y="526" type="curve"/>
      <point x="8" y="526" type="line"/>
      <point x="82" y="303"/>
      <point x="156" y="87"/>
    </contour>
  </outline>
</glyph>
<glyph name="zeta" format="2">
  <advance width="500"/>
  <unicode hex="03B6"/>
  <outline>
    <contour>
      <point x="449" y="-191" type="line"/>
      <point x="481" y="-144"/>
      <point x="505" y="-96"/>
      <point x="505" y="-41" type="curve" smooth="yes"/>
      <point x="505" y="48"/>
      <point x="463" y="91"/>
      <point x="329" y="131" type="curve" smooth="yes"/>
      <point x="287" y="144"/>
      <point x="258" y="158"/>
      <point x="240" y="177" type="curve" smooth="yes"/>
      <point x="219" y="198"/>
      <point x="212" y="223"/>
      <point x="212" y="256" type="curve" smooth="yes"/>
      <point x="212" y="430"/>
      <point x="402" y="582"/>
      <point x="487" y="659" type="curve"/>
      <point x="487" y="769" type="line"/>
      <point x="86" y="769" type="line"/>
      <point x="86" y="645" type="line"/>
      <point x="297" y="645" type="line"/>
      <point x="209" y="557"/>
      <point x="60" y="413"/>
      <point x="60" y="245" type="curve" smooth="yes"/>
      <point x="60" y="104"/>
      <point x="132" y="50"/>
      <point x="258" y="15" type="curve"/>
      <point x="340" y="-6"/>
      <point x="357" y="-27"/>
      <point x="357" y="-61" type="curve" smooth="yes"/>
      <point x="357" y="-86"/>
      <point x="344" y="-109"/>
      <point x="323" y="-148" type="curve"/>
    </contour>
  </outline>
</glyph>
<glyph name="iota" format="2">
  <advance width="309"/>
  <unicode hex="03B9"/>
  <anchor x="155" y="526" name="top"/>
  <outline>
    <contour>
      <point x="271" y="-11" type="curve"/>
      <point x="289" y="103" type="line"/>
      <point x="229" y="107"/>
      <point x="217" y="130"/>
      <point x="217" y="177" type="curve" smooth="yes"/>
      <point x="217" y="526" type="line"/>
      <point x="68" y="526" type="line"/>
      <point x="68" y="161" type="line" smooth="yes"/>
      <point x="68" y="58"/>
      <point x="111" y="-11"/>
    </contour>
  </outline>
</glyph>
<glyph name="nu" format="2">
  <advance width="532"/>
  <unicode hex="03BD"/>
  <guideline x="214" y="158" angle="0"/>
  <outline>
    <contour>
      <point x="150" y="0" type="curve"/>
      <point x="314" y="0" type="line"/>
      <point x="408" y="172"/>
      <point x="490" y="322"/>
      <point x="512" y="526" type="curve"/>
      <point x="356" y="526" type="line"/>
      <point x="351" y="401"/>
      <point x="314" y="271"/>
      <point x="258" y="152" type="curve"/>
      <point x="243" y="296"/>
      <point x="206" y="421"/>
      <point x="166" y="526" type="curve"/>
      <point x="14" y="526" type="line"/>
      <point x="73" y="387"/>
      <point x="136" y="141"/>
    </contour>
  </outline>
</glyph>
<glyph name="xi" format="2">
  <advance width="556"/>
  <unicode hex="03BE"/>
  <outline>
    <contour>
      <point x="444" y="-191" type="line"/>
      <point x="476" y="-144"/>
      <point x="500" y="-96"/>
      <point x="500" y="-41" type="curve" smooth="yes"/>
      <point x="500" y="48"/>
      <point x="456" y="93"/>
      <point x="324" y="131" type="curve"/>
      <point x="247" y="152"/>
      <point x="201" y="169"/>
      <point x="201" y="242" type="curve" smooth="yes"/>
      <point x="201" y="342"/>
      <point x="308" y="348"/>
      <point x="359" y="348" type="curve" smooth="yes"/>
      <point x="451" y="348" type="line"/>
      <point x="451" y="472" type="line"/>
      <point x="353" y="472" type="line" smooth="yes"/>
      <point x="285" y="472"/>
      <point x="234" y="497"/>
      <point x="234" y="562" type="curve" smooth="yes"/>
      <point x="234" y="613"/>
      <point x="262" y="653"/>
      <point x="341" y="653" type="curve" smooth="yes"/>
      <point x="384" y="653"/>
      <point x="418" y="647"/>
      <point x="461" y="631" type="curve"/>
      <point x="489" y="748" type="line"/>
      <point x="460" y="759"/>
      <point x="399" y="776"/>
      <point x="327" y="776" type="curve" smooth="yes"/>
      <point x="182" y="776"/>
      <point x="87" y="698"/>
      <point x="87" y="580" type="curve" smooth="yes"/>
      <point x="87" y="511"/>
      <point x="112" y="454"/>
      <point x="180" y="414" type="curve"/>
      <point x="107" y="384"/>
      <point x="49" y="327"/>
      <point x="49" y="229" type="curve" smooth="yes"/>
      <point x="49" y="104"/>
      <point x="120" y="49"/>
      <point x="253" y="15" type="curve" smooth="yes"/>
      <point x="332" y="-5"/>
      <point x="352" y="-26"/>
      <point x="352" y="-61" type="curve" smooth="yes"/>
      <point x="352" y="-86"/>
      <point x="339" y="-109"/>
      <point x="318" y="-148" type="curve"/>
    </contour>
  </outline>
</glyph>
<glyph name="rho" format="2">
  <advance width="612"/>
  <unicode hex="03C1"/>
  <anchor x="309" y="526" name="top"/>
  <outline>
    <contour>
      <point x="70" y="-185" type="line"/>
      <point x="219" y="-185" type="line"/>
      <point x="219" y="15" type="line"/>
      <point x="246" y="0"/>
      <point x="281" y="-10"/>
      <point x="329" y="-10" type="curve" smooth="yes"/>
      <point x="478" y="-10"/>
      <point x="567" y="101"/>
      <point x="567" y="263" type="curve" smooth="yes"/>
      <point x="567" y="434"/>
      <point x="481" y="538"/>
      <point x="310" y="538" type="curve" smooth="yes"/>
      <point x="161" y="538"/>
      <point x="70" y="441"/>
      <point x="70" y="293" type="curve" smooth="yes"/>
    </contour>
    <contour>
      <point x="301" y="116" type="curve" smooth="yes"/>
      <point x="266" y="116"/>
      <point x="238" y="124"/>
      <point x="219" y="135" type="curve"/>
      <point x="219" y="289" type="line"/>
      <point x="219" y="376"/>
      <point x="264" y="411"/>
      <point x="315" y="411" type="curve" smooth="yes"/>
      <point x="384" y="411"/>
      <point x="415" y="367"/>
      <point x="415" y="264" type="curve" smooth="yes"/>
      <point x="415" y="156"/>
      <point x="372" y="116"/>
    </contour>
  </outline>
</glyph>
<glyph name="sigmafinal" format="2">
  <advance width="500"/>
  <unicode hex="03C2"/>
  <outline>
    <contour>
      <point x="411" y="-191" type="line"/>
      <point x="443" y="-144"/>
      <point x="467" y="-96"/>
      <point x="467" y="-41" type="curve" smooth="yes"/>
      <point x="467" y="45"/>
      <point x="426" y="92"/>
      <point x="298" y="129" type="curve"/>
      <point x="220" y="150"/>
      <point x="197" y="190"/>
      <point x="197" y="269" type="curve" smooth="yes"/>
      <point x="197" y="358"/>
      <point x="240" y="412"/>
      <point x="328" y="412" type="curve" smooth="yes"/>
      <point x="369" y="412"/>
      <point x="401" y="403"/>
      <point x="429" y="392" type="curve"/>
      <point x="462" y="511" type="line"/>
      <point x="418" y="530"/>
      <point x="372" y="540"/>
      <point x="316" y="540" type="curve" smooth="yes"/>
      <point x="146" y="540"/>
      <point x="45" y="422"/>
      <point x="45" y="265" type="curve" smooth="yes"/>
      <point x="45" y="105"/>
      <point x="118" y="46"/>
      <point x="227" y="14" type="curve" smooth="yes"/>
      <point x="302" y="-8"/>
      <point x="319" y="-28"/>
      <point x="319" y="-61" type="curve" smooth="yes"/>
      <point x="319" y="-86"/>
      <point x="306" y="-109"/>
      <point x="285" y="-148" type="curve"/>
    </contour>
  </outline>
</glyph>
<glyph name="phi" format="2">
  <advance width="790"/>
  <unicode hex="03C6"/>
  <outline>
    <contour>
      <point x="322" y="-185" type="line"/>
      <point x="467" y="-185" type="line"/>
      <point x="467" y="-9" type="line"/>
      <point x="648" y="12"/>
      <point x="745" y="122"/>
      <point x="745" y="264" type="curve" smooth="yes"/>
      <point x="745" y="424"/>
      <point x="619" y="540"/>
      <point x="395" y="540" type="curve" smooth="yes"/>
      <point x="171" y="540"/>
      <point x="45" y="424"/>
      <point x="45" y="264" type="curve" smooth="yes"/>
      <point x="45" y="123"/>
      <point x="142" y="12"/>
      <point x="322" y="-9" type="curve"/>
    </contour>
    <contour>
      <point x="322" y="116" type="line"/>
      <point x="237" y="129"/>
      <point x="195" y="181"/>
      <point x="195" y="264" type="curve" smooth="yes"/>
      <point x="195" y="345"/>
      <point x="237" y="397"/>
      <point x="322" y="410" type="curve"/>
    </contour>
    <contour>
      <point x="467" y="116" type="curve"/>
      <point x="467" y="410" type="line"/>
      <point x="554" y="397"/>
      <point x="595" y="345"/>
      <point x="595" y="264" type="curve" smooth="yes"/>
      <point x="595" y="181"/>
      <point x="554" y="129"/>
    </contour>
  </outline>
</glyph>
<glyph name="psi" format="2">
  <advance width="814"/>
  <unicode hex="03C8"/>
  <outline>
    <contour>
      <point x="334" y="-185" type="line"/>
      <point x="479" y="-185" type="line"/>
      <point x="479" y="-10" type="line"/>
      <point x="676" y="11"/>
      <point x="749" y="127"/>
      <point x="749" y="271" type="curve" smooth="yes"/>
      <point x="749" y="526" type="line"/>
      <point x="602" y="526" type="line"/>
      <point x="602" y="278" type="line" smooth="yes"/>
      <point x="602" y="182"/>
      <point x="559" y="123"/>
      <point x="479" y="116" type="curve"/>
      <point x="479" y="526" type="line"/>
      <point x="334" y="526" type="line"/>
      <point x="334" y="116" type="line"/>
      <point x="254" y="123"/>
      <point x="212" y="182"/>
      <point x="212" y="278" type="curve" smooth="yes"/>
      <point x="212" y="526" type="line"/>
      <point x="65" y="526" type="line"/>
      <point x="65" y="271" type="line" smooth="yes"/>
      <point x="65" y="128"/>
      <point x="138" y="11"/>
      <point x="334" y="-10" type="curve"/>
    </contour>
  </outline>
</glyph>
<glyph name="Tshe-cy" format="2">
  <advance width="771"/>
  <unicode hex="040B"/>
  <outline>
    <contour>
      <point x="209" y="0" type="line"/>
      <point x="365" y="0" type="line"/>
      <point x="365" y="299" type="line"/>
      <point x="389" y="302"/>
      <point x="422" y="305"/>
      <point x="450" y="305" type="curve" smooth="yes"/>
      <point x="542" y="305"/>
      <point x="575" y="271"/>
      <point x="575" y="199" type="curve" smooth="yes"/>
      <point x="575" y="0" type="line"/>
      <point x="731" y="0" type="line"/>
      <point x="731" y="199" type="line" smooth="yes"/>
      <point x="731" y="343"/>
      <point x="668" y="437"/>
      <point x="459" y="437" type="curve" smooth="yes"/>
      <point x="431" y="437"/>
      <point x="396" y="433"/>
      <point x="365" y="429" type="curve"/>
      <point x="365" y="560" type="line"/>
      <point x="594" y="560" type="line"/>
      <point x="594" y="693" type="line"/>
      <point x="20" y="693" type="line"/>
      <point x="20" y="560" type="line"/>
      <point x="209" y="560" type="line"/>
    </contour>
  </outline>
</glyph>
<glyph name="Dzhe-cy" format="2">
  <advance width="730"/>
  <unicode hex="040F"/>
  <outline>
    <contour>
      <point x="291" y="-185" type="line"/>
      <point x="441" y="-185" type="line"/>
      <point x="441" y="0" type="line"/>
      <point x="650" y="0" type="line"/>
      <point x="650" y="693" type="line"/>
      <point x="494" y="693" type="line"/>
      <point x="494" y="132" type="line"/>
      <point x="236" y="132" type="line"/>
      <point x="236" y="693" type="line"/>
      <point x="80" y="693" type="line"/>
      <point x="80" y="0" type="line"/>
      <point x="291" y="0" type="line"/>
    </contour>
  </outline>
</glyph>
<glyph name="Ge-cy" format="2">
  <advance width="593"/>
  <unicode hex="0413"/>
  <anchor x="573" y="0" name="bottomright"/>
  <anchor x="323" y="685" name="top"/>
  <outline>
    <contour>
      <point x="80" y="0" type="line"/>
      <point x="236" y="0" type="line"/>
      <point x="236" y="561" type="line"/>
      <point x="553" y="561" type="line"/>
      <point x="553" y="693" type="line"/>
      <point x="80" y="693" type="line"/>
    </contour>
  </outline>
</glyph>
<glyph name="afii10020" format="2">
  <advance width="593"/>
  <unicode hex="0413"/>
  <anchor x="573" y="0" name="bottomright"/>
  <anchor x="297" y="693" name="top"/>
  <outline>
    <contour>
      <point x="80" y="0" type="line"/>
      <point x="236" y="0" type="line"/>
      <point x="236" y="561" type="line"/>
      <point x="553" y="561" type="line"/>
      <point x="553" y="693" type="line"/>
      <point x="80" y="693" type="line"/>
    </contour>
  </outline>
</glyph>
<glyph name="De-cy" format="2">
  <advance width="822"/>
  <unicode hex="0414"/>
  <outline>
    <contour>
      <point x="20" y="-185" type="line"/>
      <point x="170" y="-185" type="line"/>
      <point x="170" y="0" type="line"/>
      <point x="652" y="0" type="line"/>
      <point x="652" y="-185" type="line"/>
      <point x="802" y="-185" type="line"/>
      <point x="802" y="132" type="line"/>
      <point x="683" y="132" type="line"/>
      <point x="683" y="693" type="line"/>
      <point x="225" y="693" type="line"/>
      <point x="225" y="463"/>
      <point x="219" y="303"/>
      <point x="120" y="132" type="curve"/>
      <point x="20" y="132" type="line"/>
    </contour>
    <contour>
      <point x="282" y="132" type="line"/>
      <point x="349" y="253"/>
      <point x="367" y="416"/>
      <point x="372" y="561" type="curve"/>
      <point x="531" y="561" type="line"/>
      <point x="531" y="132" type="line"/>
    </contour>
  </outline>
</glyph>
<glyph name="Ii-cy" format="2">
  <advance width="756"/>
  <unicode hex="0418"/>
  <anchor x="736" y="0" name="bottomright"/>
  <anchor x="391" y="685" name="top"/>
  <outline>
    <contour>
      <point x="80" y="0" type="line"/>
      <point x="211" y="0" type="line"/>
      <point x="300" y="159"/>
      <point x="405" y="317"/>
      <point x="522" y="454" type="curve"/>
      <point x="522" y="0" type="line"/>
      <point x="676" y="0" type="line"/>
      <point x="676" y="693" type="line"/>
      <point x="549" y="693" type="line"/>
      <point x="460" y="604"/>
      <point x="331" y="429"/>
      <point x="235" y="284" type="curve"/>
      <point x="235" y="693" type="line"/>
      <point x="80" y="693" type="line"/>
    </contour>
  </outline>
</glyph>
<glyph name="afii10041" format="2">
  <advance width="680"/>
  <unicode hex="0427"/>
  <anchor x="660" y="0" name="bottomright"/>
  <anchor x="322" y="685" name="top"/>
  <outline>
    <contour>
      <point x="444" y="0" type="line"/>
      <point x="600" y="0" type="line"/>
      <point x="600" y="693" type="line"/>
      <point x="444" y="693" type="line"/>
      <point x="444" y="364" type="line"/>
      <point x="405" y="359"/>
      <point x="368" y="356"/>
      <point x="336" y="356" type="curve" smooth="yes"/>
      <point x="252" y="356"/>
      <point x="196" y="381"/>
      <point x="196" y="489" type="curve" smooth="yes"/>
      <point x="196" y="693" type="line"/>
      <point x="40" y="693" type="line"/>
      <point x="40" y="481" type="line" smooth="yes"/>
      <point x="40" y="278"/>
      <point x="148" y="224"/>
      <point x="317" y="224" type="curve" smooth="yes"/>
      <point x="356" y="224"/>
      <point x="399" y="227"/>
      <point x="444" y="232" type="curve"/>
    </contour>
  </outline>
</glyph>
<glyph name="Sha-cy" format="2">
  <advance width="1020"/>
  <unicode hex="0428"/>
  <outline>
    <contour>
      <point x="80" y="0" type="line"/>
      <point x="940" y="0" type="line"/>
      <point x="940" y="693" type="line"/>
      <point x="784" y="693" type="line"/>
      <point x="784" y="132" type="line"/>
      <point x="588" y="132" type="line"/>
      <point x="588" y="693" type="line"/>
      <point x="432" y="693" type="line"/>
      <point x="432" y="132" type="line"/>
      <point x="236" y="132" type="line"/>
      <point x="236" y="693" type="line"/>
      <point x="80" y="693" type="line"/>
    </contour>
  </outline>
</glyph>
<glyph name="Hardsign-cy" format="2">
  <advance width="773"/>
  <unicode hex="042A"/>
  <anchor x="387" y="693" name="top"/>
  <outline>
    <contour>
      <point x="401" y="-9" type="curve" smooth="yes"/>
      <point x="608" y="-9"/>
      <point x="728" y="71"/>
      <point x="728" y="227" type="curve" smooth="yes"/>
      <point x="728" y="391"/>
      <point x="606" y="469"/>
      <point x="438" y="469" type="curve" smooth="yes"/>
      <point x="408" y="469"/>
      <point x="377" y="468"/>
      <point x="349" y="463" type="curve"/>
      <point x="349" y="693" type="line"/>
      <point x="20" y="693" type="line"/>
      <point x="20" y="561" type="line"/>
      <point x="193" y="561" type="line"/>
      <point x="193" y="16" type="line"/>
      <point x="265" y="-1"/>
      <point x="344" y="-9"/>
    </contour>
    <contour>
      <point x="408" y="123" type="curve" smooth="yes"/>
      <point x="381" y="123"/>
      <point x="364" y="123"/>
      <point x="349" y="124" type="curve"/>
      <point x="349" y="331" type="line"/>
      <point x="367" y="335"/>
      <point x="385" y="337"/>
      <point x="407" y="337" type="curve" smooth="yes"/>
      <point x="497" y="337"/>
      <point x="567" y="313"/>
      <point x="567" y="227" type="curve" smooth="yes"/>
      <point x="567" y="147"/>
      <point x="492" y="123"/>
    </contour>
  </outline>
</glyph>
<glyph name="Yeru-cy" format="2">
  <advance width="927"/>
  <unicode hex="042B"/>
  <anchor x="470" y="685" name="top"/>
  <outline>
    <contour>
      <point x="284" y="-9" type="curve" smooth="yes"/>
      <point x="480" y="-9"/>
      <point x="604" y="72"/>
      <point x="604" y="227" type="curve" smooth="yes"/>
      <point x="604" y="391"/>
      <point x="494" y="469"/>
      <point x="317" y="469" type="curve" smooth="yes"/>
      <point x="287" y="469"/>
      <point x="266" y="467"/>
      <point x="236" y="463" type="curve"/>
      <point x="236" y="693" type="line"/>
      <point x="80" y="693" type="line"/>
      <point x="80" y="16" type="line"/>
      <point x="153" y="-1"/>
      <point x="228" y="-9"/>
    </contour>
    <contour>
      <point x="295" y="123" type="curve" smooth="yes"/>
      <point x="268" y="123"/>
      <point x="251" y="123"/>
      <point x="236" y="124" type="curve"/>
      <point x="236" y="331" type="line"/>
      <point x="252" y="335"/>
      <point x="280" y="337"/>
      <point x="302" y="337" type="curve" smooth="yes"/>
      <point x="394" y="337"/>
      <point x="444" y="312"/>
      <point x="444" y="227" type="curve" smooth="yes"/>
      <point x="444" y="147"/>
      <point x="378" y="123"/>
    </contour>
    <contour>
      <point x="691" y="0" type="line"/>
      <point x="847" y="0" type="line"/>
      <point x="847" y="693" type="line"/>
      <point x="691" y="693" type="line"/>
    </contour>
  </outline>
</glyph>
<glyph name="Softsign-cy" format="2">
  <advance width="659"/>
  <unicode hex="042C"/>
  <outline>
    <contour>
      <point x="284" y="-9" type="curve" smooth="yes"/>
      <point x="486" y="-9"/>
      <point x="614" y="72"/>
      <point x="614" y="227" type="curve" smooth="yes"/>
      <point x="614" y="391"/>
      <point x="500" y="469"/>
      <point x="317" y="469" type="curve" smooth="yes"/>
      <point x="287" y="469"/>
      <point x="266" y="467"/>
      <point x="236" y="463" type="curve"/>
      <point x="236" y="693" type="line"/>
      <point x="80" y="693" type="line"/>
      <point x="80" y="16" type="line"/>
      <point x="153" y="-1"/>
      <point x="228" y="-9"/>
    </contour>
    <contour>
      <point x="295" y="123" type="curve" smooth="yes"/>
      <point x="268" y="123"/>
      <point x="251" y="123"/>
      <point x="236" y="124" type="curve"/>
      <point x="236" y="331" type="line"/>
      <point x="252" y="335"/>
      <point x="280" y="337"/>
      <point x="302" y="337" type="curve" smooth="yes"/>
      <point x="400" y="337"/>
      <point x="454" y="312"/>
      <point x="454" y="227" type="curve" smooth="yes"/>
      <point x="454" y="147"/>
      <point x="384" y="123"/>
    </contour>
  </outline>
</glyph>
<glyph name="afii10047" format="2">
  <advance width="681"/>
  <unicode hex="042D"/>
  <anchor x="341" y="693" name="top"/>
  <outline>
    <contour>
      <point x="281" y="-14" type="curve" smooth="yes"/>
      <point x="474" y="-14"/>
      <point x="631" y="92"/>
      <point x="631" y="347" type="curve" smooth="yes"/>
      <point x="631" y="595"/>
      <point x="478" y="710"/>
      <point x="284" y="710" type="curve" smooth="yes"/>
      <point x="205" y="710"/>
      <point x="123" y="693"/>
      <point x="47" y="653" type="curve"/>
      <point x="93" y="531" type="line"/>
      <point x="130" y="550"/>
      <point x="199" y="574"/>
      <point x="278" y="574" type="curve" smooth="yes"/>
      <point x="385" y="574"/>
      <point x="447" y="525"/>
      <point x="463" y="418" type="curve"/>
      <point x="176" y="418" type="line"/>
      <point x="176" y="286" type="line"/>
      <point x="466" y="286" type="line"/>
      <point x="450" y="178"/>
      <point x="385" y="122"/>
      <point x="278" y="122" type="curve" smooth="yes"/>
      <point x="191" y="122"/>
      <point x="128" y="154"/>
      <point x="90" y="170" type="curve"/>
      <point x="40" y="45" type="line"/>
      <point x="116" y="6"/>
      <point x="189" y="-14"/>
    </contour>
  </outline>
</glyph>
<glyph name="Yu-cy" format="2">
  <advance width="1081"/>
  <unicode hex="042E"/>
  <anchor x="541" y="693" name="top"/>
  <outline>
    <contour>
      <point x="696" y="-14" type="curve" smooth="yes"/>
      <point x="879" y="-14"/>
      <point x="1031" y="110"/>
      <point x="1031" y="347" type="curve" smooth="yes"/>
      <point x="1031" y="584"/>
      <point x="877" y="710"/>
      <point x="696" y="710" type="curve" smooth="yes"/>
      <point x="536" y="710"/>
      <point x="398" y="612"/>
      <point x="366" y="427" type="curve"/>
      <point x="236" y="427" type="line"/>
      <point x="236" y="693" type="line"/>
      <point x="80" y="693" type="line"/>
      <point x="80" y="0" type="line"/>
      <point x="236" y="0" type="line"/>
      <point x="236" y="295" type="line"/>
      <point x="363" y="295" type="line"/>
      <point x="384" y="91"/>
      <point x="527" y="-14"/>
    </contour>
    <contour>
      <point x="696" y="122" type="curve" smooth="yes"/>
      <point x="585" y="122"/>
      <point x="520" y="207"/>
      <point x="520" y="347" type="curve" smooth="yes"/>
      <point x="520" y="487"/>
      <point x="585" y="574"/>
      <point x="696" y="574" type="curve" smooth="yes"/>
      <point x="807" y="574"/>
      <point x="870" y="487"/>
      <point x="870" y="347" type="curve" smooth="yes"/>
      <point x="870" y="207"/>
      <point x="807" y="122"/>
    </contour>
  </outline>
</glyph>
<glyph name="Ya-cy" format="2">
  <advance width="689"/>
  <unicode hex="042F"/>
  <anchor x="345" y="693" name="top"/>
  <outline>
    <contour>
      <point x="40" y="0" type="curve"/>
      <point x="205" y="0" type="line"/>
      <point x="250" y="95"/>
      <point x="307" y="191"/>
      <point x="351" y="251" type="curve"/>
      <point x="374" y="248"/>
      <point x="388" y="249"/>
      <point x="405" y="249" type="curve" smooth="yes"/>
      <point x="453" y="249" type="line"/>
      <point x="453" y="0" type="line"/>
      <point x="609" y="0" type="line"/>
      <point x="609" y="678" type="line"/>
      <point x="536" y="694"/>
      <point x="455" y="700"/>
      <point x="399" y="700" type="curve" smooth="yes"/>
      <point x="202" y="700"/>
      <point x="78" y="622"/>
      <point x="78" y="470" type="curve" smooth="yes"/>
      <point x="78" y="361"/>
      <point x="139" y="304"/>
      <point x="198" y="277" type="curve"/>
      <point x="153" y="216"/>
      <point x="88" y="110"/>
    </contour>
    <contour>
      <point x="388" y="378" type="line" smooth="yes"/>
      <point x="289" y="378"/>
      <point x="239" y="400"/>
      <point x="239" y="471" type="curve" smooth="yes"/>
      <point x="239" y="546"/>
      <point x="313" y="566"/>
      <point x="392" y="566" type="curve" smooth="yes"/>
      <point x="420" y="566"/>
      <point x="437" y="566"/>
      <point x="453" y="565" type="curve"/>
      <point x="453" y="378" type="line"/>
    </contour>
  </outline>
</glyph>
<glyph name="be-cy" format="2">
  <advance width="601"/>
  <unicode hex="0431"/>
  <outline>
    <contour>
      <point x="304" y="-14" type="curve" smooth="yes"/>
      <point x="442" y="-14"/>
      <point x="556" y="74"/>
      <point x="556" y="254" type="curve" smooth="yes"/>
      <point x="556" y="422"/>
      <point x="457" y="508"/>
      <point x="330" y="508" type="curve" smooth="yes"/>
      <point x="289" y="508"/>
      <point x="247" y="498"/>
      <point x="204" y="477" type="curve"/>
      <point x="225" y="580"/>
      <point x="311" y="616"/>
      <point x="391" y="629" type="curve" smooth="yes"/>
      <point x="438" y="637"/>
      <point x="480" y="638"/>
      <point x="529" y="649" type="curve"/>
      <point x="512" y="776" type="line"/>
      <point x="465" y="765"/>
      <point x="421" y="763"/>
      <point x="377" y="754" type="curve" smooth="yes"/>
      <point x="126" y="702"/>
      <point x="45" y="573"/>
      <point x="45" y="319" type="curve" smooth="yes"/>
      <point x="45" y="100"/>
      <point x="119" y="-14"/>
    </contour>
    <contour>
      <point x="305" y="113" type="curve" smooth="yes"/>
      <point x="228" y="113"/>
      <point x="198" y="174"/>
      <point x="198" y="291" type="curve" smooth="yes"/>
      <point x="198" y="310"/>
      <point x="198" y="336"/>
      <point x="201" y="355" type="curve"/>
      <point x="228" y="376"/>
      <point x="269" y="383"/>
      <point x="304" y="383" type="curve" smooth="yes"/>
      <point x="373" y="383"/>
      <point x="406" y="320"/>
      <point x="406" y="253" type="curve" smooth="yes"/>
      <point x="406" y="168"/>
      <point x="370" y="113"/>
    </contour>
  </outline>
</glyph>
<glyph name="afii10067" format="2">
  <advance width="598"/>
  <unicode hex="0432"/>
  <outline>
    <contour>
      <point x="298" y="-10" type="curve" smooth="yes"/>
      <point x="491" y="-10"/>
      <point x="553" y="71"/>
      <point x="553" y="156" type="curve" smooth="yes"/>
      <point x="553" y="230"/>
      <point x="508" y="270"/>
      <point x="471" y="286" type="curve"/>
      <point x="506" y="303"/>
      <point x="531" y="345"/>
      <point x="531" y="392" type="curve" smooth="yes"/>
      <point x="531" y="461"/>
      <point x="471" y="538"/>
      <point x="298" y="538" type="curve" smooth="yes"/>
      <point x="223" y="538"/>
      <point x="121" y="529"/>
      <point x="70" y="518" type="curve"/>
      <point x="70" y="14" type="line"/>
      <point x="121" y="3"/>
      <point x="223" y="-10"/>
    </contour>
    <contour>
      <point x="300" y="105" type="curve" smooth="yes"/>
      <point x="273" y="105"/>
      <point x="238" y="107"/>
      <point x="219" y="110" type="curve"/>
      <point x="219" y="220" type="line"/>
      <point x="306" y="220" type="line" smooth="yes"/>
      <point x="371" y="220"/>
      <point x="406" y="206"/>
      <point x="406" y="163" type="curve" smooth="yes"/>
      <point x="406" y="119"/>
      <point x="367" y="105"/>
    </contour>
    <contour>
      <point x="219" y="320" type="line"/>
      <point x="219" y="418" type="line"/>
      <point x="238" y="421"/>
      <point x="273" y="423"/>
      <point x="292" y="423" type="curve" smooth="yes"/>
      <point x="348" y="423"/>
      <point x="386" y="411"/>
      <point x="386" y="371" type="curve" smooth="yes"/>
      <point x="386" y="328"/>
      <point x="352" y="320"/>
      <point x="303" y="320" type="curve" smooth="yes"/>
    </contour>
  </outline>
</glyph>
<glyph name="afii10073" format="2">
  <advance width="495"/>
  <unicode hex="0437"/>
  <anchor x="248" y="0" name="bottom"/>
  <anchor x="248" y="526" name="top"/>
  <outline>
    <contour>
      <point x="232" y="-14" type="curve" smooth="yes"/>
      <point x="349" y="-14"/>
      <point x="460" y="28"/>
      <point x="460" y="147" type="curve" smooth="yes"/>
      <point x="460" y="211"/>
      <point x="433" y="251"/>
      <point x="374" y="276" type="curve"/>
      <point x="418" y="300"/>
      <point x="443" y="336"/>
      <point x="443" y="388" type="curve" smooth="yes"/>
      <point x="443" y="502"/>
      <point x="335" y="538"/>
      <point x="226" y="538" type="curve" smooth="yes"/>
      <point x="154" y="538"/>
      <point x="92" y="526"/>
      <point x="45" y="509" type="curve"/>
      <point x="71" y="393" type="line"/>
      <point x="103" y="402"/>
      <point x="158" y="416"/>
      <point x="217" y="416" type="curve" smooth="yes"/>
      <point x="276" y="416"/>
      <point x="294" y="391"/>
      <point x="294" y="366" type="curve" smooth="yes"/>
      <point x="294" y="341"/>
      <point x="277" y="318"/>
      <point x="229" y="318" type="curve" smooth="yes"/>
      <point x="111" y="318" type="line"/>
      <point x="111" y="212" type="line"/>
      <point x="228" y="212" type="line" smooth="yes"/>
      <point x="269" y="212"/>
      <point x="310" y="203"/>
      <point x="310" y="158" type="curve" smooth="yes"/>
      <point x="310" y="125"/>
      <point x="280" y="108"/>
      <point x="220" y="108" type="curve" smooth="yes"/>
      <point x="147" y="108"/>
      <point x="85" y="127"/>
      <point x="57" y="138" type="curve"/>
      <point x="30" y="22" type="line"/>
      <point x="81" y="0"/>
      <point x="161" y="-14"/>
    </contour>
  </outline>
</glyph>
<glyph name="ii-cy" format="2">
  <advance width="619"/>
  <unicode hex="0438"/>
  <anchor x="599" y="0" name="bottomright"/>
  <anchor x="309" y="526" name="top"/>
  <outline>
    <contour>
      <point x="70" y="0" type="line"/>
      <point x="201" y="0" type="line"/>
      <point x="249" y="83"/>
      <point x="329" y="202"/>
      <point x="406" y="311" type="curve"/>
      <point x="406" y="271"/>
      <point x="399" y="134"/>
      <point x="399" y="0" type="curve"/>
      <point x="549" y="0" type="line"/>
      <point x="549" y="526" type="line"/>
      <point x="423" y="526" type="line"/>
      <point x="359" y="450"/>
      <point x="294" y="358"/>
      <point x="214" y="241" type="curve"/>
      <point x="214" y="281"/>
      <point x="219" y="392"/>
      <point x="219" y="526" type="curve"/>
      <point x="70" y="526" type="line"/>
    </contour>
  </outline>
</glyph>
<glyph name="el-cy" format="2">
  <advance width="627"/>
  <unicode hex="043B"/>
  <outline>
    <contour>
      <point x="30" y="-9" type="line"/>
      <point x="176" y="4"/>
      <point x="239" y="72"/>
      <point x="271" y="156" type="curve" smooth="yes"/>
      <point x="295" y="220"/>
      <point x="302" y="305"/>
      <point x="305" y="378" type="curve"/>
      <point x="306" y="404" type="line"/>
      <point x="408" y="404" type="line"/>
      <point x="408" y="0" type="line"/>
      <point x="557" y="0" type="line"/>
      <point x="557" y="526" type="line"/>
      <point x="162" y="526" type="line"/>
      <point x="162" y="466" type="line" smooth="yes"/>
      <point x="162" y="372"/>
      <point x="161" y="258"/>
      <point x="131" y="191" type="curve"/>
      <point x="112" y="152"/>
      <point x="78" y="128"/>
      <point x="10" y="115" type="curve"/>
    </contour>
  </outline>
</glyph>
<glyph name="em-cy" format="2">
  <advance width="761"/>
  <unicode hex="043C"/>
  <outline>
    <contour>
      <point x="60" y="0" type="curve"/>
      <point x="205" y="0" type="line"/>
      <point x="208" y="74"/>
      <point x="213" y="210"/>
      <point x="218" y="303" type="curve"/>
      <point x="255" y="223"/>
      <point x="291" y="142"/>
      <point x="328" y="62" type="curve"/>
      <point x="431" y="62" type="line"/>
      <point x="468" y="143"/>
      <point x="504" y="223"/>
      <point x="541" y="304" type="curve"/>
      <point x="545" y="208"/>
      <point x="550" y="104"/>
      <point x="553" y="0" type="curve"/>
      <point x="701" y="0" type="line"/>
      <point x="696" y="147"/>
      <point x="679" y="383"/>
      <point x="660" y="526" type="curve"/>
      <point x="534" y="526" type="line"/>
      <point x="491" y="458"/>
      <point x="436" y="344"/>
      <point x="380" y="216" type="curve"/>
      <point x="327" y="336"/>
      <point x="282" y="433"/>
      <point x="225" y="526" type="curve"/>
      <point x="101" y="526" type="line"/>
      <point x="85" y="383"/>
      <point x="65" y="147"/>
    </contour>
  </outline>
</glyph>
<glyph name="en-cy" format="2">
  <advance width="593"/>
  <unicode hex="043D"/>
  <anchor x="573" y="0" name="bottomright"/>
  <outline>
    <contour>
      <point x="70" y="0" type="line"/>
      <point x="219" y="0" type="line"/>
      <point x="219" y="208" type="line"/>
      <point x="374" y="208" type="line"/>
      <point x="374" y="0" type="line"/>
      <point x="523" y="0" type="line"/>
      <point x="523" y="526" type="line"/>
      <point x="374" y="526" type="line"/>
      <point x="374" y="330" type="line"/>
      <point x="219" y="330" type="line"/>
      <point x="219" y="526" type="line"/>
      <point x="70" y="526" type="line"/>
    </contour>
  </outline>
</glyph>
<glyph name="pe-cy" format="2">
  <advance width="593"/>
  <unicode hex="043F"/>
  <anchor x="573" y="0" name="bottomright"/>
  <outline>
    <contour>
      <point x="70" y="0" type="line"/>
      <point x="219" y="0" type="line"/>
      <point x="219" y="402" type="line"/>
      <point x="374" y="402" type="line"/>
      <point x="374" y="0" type="line"/>
      <point x="523" y="0" type="line"/>
      <point x="523" y="526" type="line"/>
      <point x="70" y="526" type="line"/>
    </contour>
  </outline>
</glyph>
<glyph name="te-cy" format="2">
  <advance width="525"/>
  <unicode hex="0442"/>
  <anchor x="505" y="0" name="bottomright"/>
  <outline>
    <contour>
      <point x="188" y="0" type="line"/>
      <point x="337" y="0" type="line"/>
      <point x="337" y="404" type="line"/>
      <point x="505" y="404" type="line"/>
      <point x="505" y="526" type="line"/>
      <point x="20" y="526" type="line"/>
      <point x="20" y="404" type="line"/>
      <point x="188" y="404" type="line"/>
    </contour>
  </outline>
</glyph>
<glyph name="hardsign-cy" format="2">
  <advance width="639"/>
  <unicode hex="044A"/>
  <outline>
    <contour>
      <point x="378" y="-11" type="curve" smooth="yes"/>
      <point x="514" y="-11"/>
      <point x="604" y="43"/>
      <point x="604" y="166" type="curve" smooth="yes"/>
      <point x="604" y="290"/>
      <point x="509" y="348"/>
      <point x="382" y="348" type="curve" smooth="yes"/>
      <point x="343" y="348"/>
      <point x="313" y="344"/>
      <point x="294" y="339" type="curve"/>
      <point x="294" y="526" type="line"/>
      <point x="20" y="526" type="line"/>
      <point x="20" y="404" type="line"/>
      <point x="145" y="404" type="line"/>
      <point x="145" y="16" type="line"/>
      <point x="221" y="-3"/>
      <point x="290" y="-11"/>
    </contour>
    <contour>
      <point x="368" y="104" type="curve" smooth="yes"/>
      <point x="339" y="104"/>
      <point x="310" y="105"/>
      <point x="294" y="108" type="curve"/>
      <point x="294" y="228" type="line"/>
      <point x="306" y="231"/>
      <point x="334" y="234"/>
      <point x="354" y="234" type="curve" smooth="yes"/>
      <point x="410" y="234"/>
      <point x="456" y="219"/>
      <point x="456" y="170" type="curve" smooth="yes"/>
      <point x="456" y="123"/>
      <point x="423" y="104"/>
    </contour>
  </outline>
</glyph>
<glyph name="afii10095" format="2">
  <advance width="521"/>
  <unicode hex="044D"/>
  <anchor x="261" y="526" name="top"/>
  <outline>
    <contour>
      <point x="216" y="-12" type="curve" smooth="yes"/>
      <point x="375" y="-12"/>
      <point x="486" y="87"/>
      <point x="486" y="266" type="curve" smooth="yes"/>
      <point x="486" y="438"/>
      <point x="375" y="540"/>
      <point x="213" y="540" type="curve" smooth="yes"/>
      <point x="161" y="540"/>
      <point x="105" y="531"/>
      <point x="45" y="510" type="curve"/>
      <point x="73" y="395" type="line"/>
      <point x="117" y="408"/>
      <point x="154" y="418"/>
      <point x="205" y="418" type="curve" smooth="yes"/>
      <point x="273" y="418"/>
      <point x="324" y="395"/>
      <point x="335" y="320" type="curve"/>
      <point x="136" y="320" type="line"/>
      <point x="136" y="213" type="line"/>
      <point x="336" y="213" type="line"/>
      <point x="325" y="137"/>
      <point x="266" y="112"/>
      <point x="199" y="112" type="curve" smooth="yes"/>
      <point x="152" y="112"/>
      <point x="96" y="125"/>
      <point x="57" y="138" type="curve"/>
      <point x="29" y="21" type="line"/>
      <point x="96" y="-4"/>
      <point x="149" y="-12"/>
    </contour>
  </outline>
</glyph>
